<?xml version="1.0" encoding="utf-8"?>
<!-- Generator: Adobe Illustrator 27.4.1, SVG Export Plug-In . SVG Version: 6.00 Build 0)  -->
<svg version="1.1" id="Capa_2_00000107557858246314377930000013191612246948029861_"
	 xmlns="http://www.w3.org/2000/svg" xmlns:xlink="http://www.w3.org/1999/xlink" x="0px" y="0px" viewBox="0 0 401 881"
	 style="enable-background:new 0 0 401 881;" xml:space="preserve">
<style type="text/css">
	.st0{fill:#769F95;}
	.st1{opacity:0.7;fill:#FFFFFF;enable-background:new    ;}
	.st2{fill:#252134;}
	.st3{fill:none;stroke:#D33226;stroke-width:0.85;stroke-miterlimit:10;}
	.st4{fill:#FFFFFF;}
	.st5{fill:#142ECC;}
	.st6{fill:none;}
</style>
<g id="Capa_1-2">
	<path class="st0" d="M85,437.6c0,0-43.8,32.7-46.9,104.6s49.8,109.5,91.1,104.1c41.3-5.5,54.8-27,89.1-33.8
		c34.2-6.8,92.2,14.7,131.3-24s16.3-120.7-22.8-177.3C287.8,354.7,157.7,358.3,85,437.6L85,437.6L85,437.6z"/>
	<path class="st1" d="M85,437.6c0,0-43.8,32.7-46.9,104.6s49.8,109.5,91.1,104.1c41.3-5.5,54.8-27,89.1-33.8
		c34.2-6.8,92.2,14.7,131.3-24s16.3-120.7-22.8-177.3C287.8,354.7,157.7,358.3,85,437.6L85,437.6L85,437.6z"/>
	<path class="st2" d="M283.8,626.5c1.2,0.5,4.1,0.5,4.1,0.5c0,0-0.6-1.9-0.7-2c-0.6-1.3-2.7-3.6-4.3-3.3c-1.2,0.2-1.9,1.4-1.6,2.5
		C281.6,625.2,282.8,626.1,283.8,626.5L283.8,626.5L283.8,626.5z"/>
	<path class="st2" d="M284.8,635c1.2,0.2,3.9-0.6,4.1-0.6c0.4,1.5,1,2.9,1.6,4.4c0.4,0.8,0.8,1.7,1.1,2.5c-0.2-0.3-0.5-0.7-0.5-0.7
		c-1-1.1-3.5-2.7-5.1-2.1c-1.1,0.5-1.4,1.8-0.9,2.8c0.6,1,1.9,1.5,3,1.7c1.1,0.2,3.4-0.4,4-0.6c0.2,0.3,0.3,0.6,0.5,1
		c0.8,1.5,1.5,3,2.2,4.5c0.2,0.5,0.5,1.1,0.7,1.6c-0.2-0.3-0.4-0.6-0.4-0.6c-1-1.1-3.5-2.7-5.1-2.1c-1.1,0.5-1.4,1.8-0.9,2.8
		c0.6,1,1.9,1.5,3,1.7c1.1,0.2,3.1-0.4,3.9-0.6c0.2,0.5,0.4,1.1,0.6,1.6c0.1,0.4,0.3,0.7,0.4,1.1c0.1,0.4,0.2,0.8,0.3,1.1
		c0.2,0.7,0.4,1.5,0.5,2.2c0.1,0.5,0.2,1,0.3,1.4c-0.2-0.5-0.7-1.5-0.8-1.6c-0.8-1.3-3.1-3.2-4.7-2.8c-1.2,0.3-1.7,1.6-1.3,2.7
		c0.4,1.1,1.7,1.8,2.8,2.2c1.2,0.4,3.8,0,4.1,0c0.2,0.8,0.3,1.5,0.4,2.2c0.1,0.4,0.1,0.7,0.2,1.1h1c-0.1-0.4-0.2-0.8-0.2-1.3
		c-0.2-0.8-0.3-1.6-0.5-2.5c0.2-0.1,1.3-0.5,2.3-1.1c0.9,0.9,3,2,3.3,2.2c-0.3,0.7-0.6,1.4-0.9,2.1c-0.1,0.2-0.2,0.4-0.3,0.6h1.1
		c0-0.1,0.1-0.1,0.1-0.2c0.3-0.8,0.6-1.5,0.9-2.4c0.3,0.1,2.9,0.6,4.1,0.3c1.1-0.2,2.4-0.9,2.9-1.9c0.5-1,0-2.3-1.1-2.7
		c-1.6-0.5-4,1.3-4.9,2.5c0,0.1-0.5,0.9-0.8,1.4c0.1-0.3,0.2-0.7,0.4-1c0.3-0.7,0.5-1.4,0.7-2.1c0.1-0.4,0.2-0.7,0.3-1.1
		c0.1-0.4,0.2-0.8,0.3-1.2c0.2-0.9,0.4-1.8,0.5-2.8c0.6,0.2,2.8,1,3.9,0.9c1.1-0.1,2.5-0.5,3.2-1.5c0.6-1,0.4-2.3-0.7-2.9
		c-1.5-0.8-4.1,0.7-5.2,1.7c-0.1,0.1-0.7,0.9-1.1,1.4c0.1-0.6,0.2-1.1,0.2-1.7c0.2-1.7,0.4-3.3,0.5-5c0-0.5,0.1-1,0.2-1.5
		c0.2,0.1,2.8,1,4,0.9c1.1-0.1,2.5-0.5,3.2-1.5c0.6-1,0.4-2.3-0.7-2.9c-1.5-0.8-4.1,0.7-5.2,1.7c-0.1,0.1-1,1.3-1.3,1.6
		c0.1-1.1,0.2-2.2,0.4-3.4c0.2-1.5,0.5-3,1-4.4c0.1,0,2.8,1,4,1c1.1-0.1,2.5-0.5,3.2-1.5c0.6-1,0.4-2.3-0.7-2.9
		c-1.5-0.8-4.1,0.7-5.2,1.7c-0.1,0.1-1.1,1.4-1.3,1.6l0.1-0.3c0.5-1.5,1.1-2.9,1.8-4.2c0.4-0.8,0.8-1.4,1.2-2.1
		c0.5,0.2,2.7,1.3,3.8,1.3c1.1,0,2.5-0.2,3.3-1.1c0.7-0.9,0.7-2.3-0.4-2.9c-1.4-0.9-4.2,0.2-5.4,1.1c-0.1,0-0.6,0.6-1.1,1.1
		c0.2-0.3,0.4-0.6,0.6-0.9c0.7-1,1.4-2,2-2.8c0.4-0.5,0.7-0.9,1-1.2c0.6,0,3-0.1,4-0.6c1-0.5,2.2-1.4,2.4-2.5
		c0.2-1.1-0.5-2.3-1.7-2.4c-1.7-0.2-3.6,2.1-4.2,3.5c0,0.1-0.7,2.1-0.6,2.1h0c-0.3,0.4-0.6,0.8-1,1.2c-0.6,0.8-1.4,1.7-2.1,2.8
		c-0.7,1-1.5,2.2-2.2,3.5c-0.7,1.3-1.4,2.7-1.9,4.2c0,0,0,0,0,0c0-0.5,0-1.9,0-2c-0.2-1.5-1.4-4.2-3.1-4.5c-1.2-0.2-2.2,0.7-2.3,1.9
		c-0.1,1.2,0.8,2.3,1.6,3.1c0.9,0.8,3.5,1.7,3.8,1.7c-0.5,1.5-0.8,3-1.1,4.5c-0.2,0.9-0.3,1.8-0.4,2.7c0-0.4,0-0.8,0-0.8
		c-0.2-1.5-1.4-4.2-3.1-4.5c-1.2-0.2-2.2,0.7-2.3,1.9c-0.1,1.2,0.8,2.3,1.6,3.1c0.9,0.8,3,1.5,3.6,1.7c0,0.3-0.1,0.7-0.1,1
		c-0.2,1.7-0.4,3.4-0.6,5c-0.1,0.6-0.2,1.2-0.3,1.7c0-0.4,0-0.7,0-0.7c-0.2-1.5-1.4-4.2-3.1-4.5c-1.2-0.2-2.2,0.7-2.3,1.9
		c-0.1,1.2,0.8,2.3,1.6,3.1c0.8,0.7,2.8,1.4,3.5,1.6c-0.1,0.6-0.2,1.2-0.4,1.7c-0.1,0.4-0.2,0.8-0.3,1.1c-0.1,0.4-0.2,0.7-0.4,1.1
		c-0.2,0.7-0.5,1.4-0.8,2.1c-0.2,0.5-0.4,0.9-0.5,1.3c0.1-0.6,0.2-1.7,0.2-1.8c0-1-0.3-2.6-1-3.7c0-0.2,0-0.3,0-0.4
		c-0.2-1.2-1.3-2-2.4-1.7c-1.6,0.4-2.6,3.3-2.7,4.8c0,0.1,0,1,0.1,1.7c-0.1-0.3-0.2-0.7-0.2-1c-0.2-0.7-0.4-1.4-0.6-2.2
		c-0.1-0.4-0.2-0.7-0.3-1.1c-0.1-0.4-0.3-0.8-0.4-1.1c-0.3-0.9-0.7-1.7-1.1-2.6c0.6-0.2,2.8-0.7,3.7-1.4s1.8-1.8,1.8-3
		c0-1.2-0.9-2.2-2.1-2c-1.7,0.2-3.1,2.8-3.4,4.3c0,0.1-0.1,1.2-0.2,1.8c-0.2-0.5-0.5-1-0.7-1.6c-0.8-1.5-1.5-3-2.3-4.5
		c-0.2-0.5-0.5-0.9-0.7-1.4c0.2,0,2.9-0.7,3.9-1.4c0.9-0.7,1.8-1.8,1.8-3c0-1.2-0.9-2.2-2.1-2c-1.7,0.2-3.1,2.8-3.4,4.3
		c0,0.1-0.2,1.7-0.2,2c-0.5-1-1-2-1.5-3c-0.6-1.4-1.2-2.8-1.6-4.2c0.1,0,2.9-0.7,3.9-1.4c0.9-0.7,1.8-1.8,1.8-3c0-1.2-0.9-2.2-2.1-2
		c-1.7,0.2-3.1,2.8-3.4,4.3c0,0.1-0.2,1.8-0.2,2.1c0-0.1-0.1-0.2-0.1-0.2c-0.5-1.5-0.7-3-0.9-4.5c-0.1-0.8-0.1-1.6-0.2-2.4
		c0.5-0.1,2.9-0.4,3.9-1c1-0.6,2-1.6,2.1-2.8c0.1-1.2-0.7-2.2-1.9-2.2c-1.7,0-3.4,2.5-3.9,3.9c0,0.1-0.2,0.9-0.3,1.5
		c0-0.3,0-0.7,0-1c0-1.3,0.1-2.4,0.2-3.5c0-0.6,0.1-1.1,0.2-1.6c0.5-0.3,2.4-1.7,3-2.7c0.6-1,1.1-2.3,0.6-3.4
		c-0.4-1.1-1.7-1.7-2.7-1.1c-1.5,0.8-1.9,3.8-1.6,5.2c0,0.1,0.6,2.1,0.6,2.1c0,0,0,0,0,0c-0.1,0.5-0.1,1-0.2,1.5
		c-0.1,1-0.2,2.2-0.2,3.5c0,1.3,0,2.7,0.1,4.1c0.1,1.5,0.3,3,0.8,4.5c0,0,0,0,0,0c-0.3-0.4-1-1.5-1.1-1.6c-1-1.1-3.5-2.7-5.1-2.1
		c-1.1,0.5-1.4,1.8-0.9,2.8C282.4,634.4,283.8,634.9,284.8,635L284.8,635L284.8,635z"/>
	<path class="st2" d="M313.5,627.2c0,0,0.5-2,0.5-2.1c0.2-1.5-0.3-4.5-1.8-5.2c-1.1-0.5-2.3,0.1-2.7,1.2c-0.4,1.1,0.1,2.5,0.7,3.4
		C311,625.6,313.5,627.2,313.5,627.2L313.5,627.2z"/>
	<path class="st2" d="M48.5,642.8c0.7,0.3,2.2,0.2,2.2,0.2c0,0-0.3-1-0.4-1.1c-0.3-0.7-1.5-1.9-2.3-1.8c-0.6,0.1-1,0.7-0.9,1.3
		C47.3,642.1,47.9,642.6,48.5,642.8L48.5,642.8z"/>
	<path class="st2" d="M49,647.4c0.7,0.1,2.1-0.3,2.2-0.3c0.2,0.8,0.5,1.6,0.9,2.4c0.2,0.5,0.4,0.9,0.6,1.3c-0.1-0.2-0.2-0.4-0.3-0.4
		c-0.5-0.6-1.9-1.5-2.7-1.1c-0.6,0.2-0.8,1-0.5,1.5c0.3,0.6,1,0.8,1.6,0.9c0.6,0.1,1.8-0.2,2.1-0.3c0.1,0.2,0.2,0.3,0.2,0.5
		c0.4,0.8,0.8,1.6,1.2,2.4c0.1,0.3,0.3,0.6,0.4,0.9c-0.1-0.2-0.2-0.3-0.2-0.3c-0.5-0.6-1.9-1.5-2.7-1.1c-0.6,0.2-0.8,1-0.5,1.5
		c0.3,0.6,1,0.8,1.6,0.9c0.6,0.1,1.7-0.2,2.1-0.3c0.1,0.3,0.2,0.6,0.3,0.9c0.1,0.2,0.1,0.4,0.2,0.6c0.1,0.2,0.1,0.4,0.2,0.6
		c0.1,0.4,0.2,0.8,0.3,1.2c0.1,0.3,0.1,0.5,0.2,0.8c-0.1-0.3-0.4-0.8-0.4-0.9c-0.4-0.7-1.7-1.8-2.5-1.5c-0.6,0.2-0.9,0.8-0.7,1.4
		c0.2,0.6,0.9,1,1.5,1.2c0.6,0.2,2,0,2.2,0c0.1,0.4,0.2,0.8,0.2,1.2c0,0.2,0.1,0.4,0.1,0.6h0.6c0-0.2-0.1-0.5-0.1-0.7
		c-0.1-0.4-0.2-0.9-0.3-1.3c0.1,0,0.7-0.3,1.2-0.6c0.5,0.5,1.6,1.1,1.8,1.2c-0.2,0.4-0.3,0.8-0.5,1.1c0,0.1-0.1,0.2-0.1,0.3h0.6
		c0,0,0-0.1,0-0.1c0.2-0.4,0.3-0.8,0.5-1.3c0.2,0,1.6,0.3,2.2,0.2c0.6-0.1,1.3-0.5,1.6-1c0.3-0.6,0-1.3-0.6-1.5
		c-0.9-0.3-2.2,0.7-2.6,1.3c0,0-0.3,0.5-0.5,0.8c0.1-0.2,0.1-0.4,0.2-0.5c0.1-0.4,0.3-0.8,0.4-1.2c0.1-0.2,0.1-0.4,0.2-0.6
		c0.1-0.2,0.1-0.4,0.2-0.6c0.1-0.5,0.2-1,0.3-1.5c0.3,0.1,1.5,0.5,2.1,0.5c0.6,0,1.3-0.3,1.7-0.8c0.3-0.5,0.2-1.2-0.4-1.5
		c-0.8-0.4-2.2,0.3-2.8,0.9c0,0-0.4,0.5-0.6,0.7c0-0.3,0.1-0.6,0.1-0.9c0.1-0.9,0.2-1.8,0.3-2.7c0-0.3,0.1-0.6,0.1-0.8
		c0.1,0,1.5,0.6,2.2,0.5c0.6,0,1.3-0.3,1.7-0.8c0.3-0.5,0.2-1.2-0.4-1.5c-0.8-0.4-2.2,0.3-2.8,0.9c0,0-0.6,0.7-0.7,0.9
		c0.1-0.6,0.1-1.2,0.2-1.8c0.1-0.8,0.3-1.6,0.5-2.4c0,0,1.5,0.6,2.2,0.5c0.6,0,1.3-0.3,1.7-0.8c0.3-0.5,0.2-1.2-0.4-1.5
		c-0.8-0.4-2.2,0.3-2.8,0.9c0,0-0.6,0.8-0.7,0.9c0,0,0-0.1,0-0.1c0.2-0.8,0.6-1.6,0.9-2.3c0.2-0.4,0.4-0.8,0.6-1.1
		c0.3,0.1,1.4,0.7,2.1,0.7c0.6,0,1.4-0.1,1.8-0.6c0.4-0.5,0.4-1.2-0.2-1.6c-0.8-0.5-2.3,0.1-2.9,0.6c0,0-0.3,0.3-0.6,0.6
		c0.1-0.2,0.2-0.3,0.3-0.5c0.4-0.6,0.8-1.1,1.1-1.5c0.2-0.2,0.4-0.5,0.6-0.7c0.3,0,1.6,0,2.2-0.3c0.6-0.3,1.2-0.7,1.3-1.3
		c0.1-0.6-0.2-1.2-0.9-1.3c-0.9-0.1-2,1.1-2.3,1.9c0,0.1-0.4,1.1-0.3,1.1h0c-0.2,0.2-0.3,0.4-0.5,0.6c-0.3,0.4-0.7,0.9-1.1,1.5
		s-0.8,1.2-1.2,1.9c-0.4,0.7-0.7,1.4-1,2.3c0,0,0,0,0,0c0-0.3,0-1,0-1.1c-0.1-0.8-0.8-2.3-1.7-2.5c-0.6-0.1-1.2,0.4-1.2,1
		c0,0.6,0.4,1.3,0.9,1.7c0.5,0.5,1.9,0.9,2,0.9c-0.2,0.8-0.4,1.6-0.6,2.5c-0.1,0.5-0.2,1-0.2,1.5c0-0.2,0-0.4,0-0.5
		c-0.1-0.8-0.8-2.3-1.7-2.5c-0.6-0.1-1.2,0.4-1.2,1c0,0.6,0.4,1.3,0.9,1.7c0.5,0.4,1.6,0.8,2,0.9c0,0.2,0,0.4-0.1,0.6
		c-0.1,0.9-0.2,1.8-0.3,2.7c0,0.3-0.1,0.6-0.2,0.9c0-0.2,0-0.4,0-0.4c-0.1-0.8-0.8-2.3-1.7-2.5c-0.6-0.1-1.2,0.4-1.2,1
		c0,0.6,0.4,1.3,0.9,1.7c0.4,0.4,1.5,0.8,1.9,0.9c-0.1,0.3-0.1,0.6-0.2,0.9c-0.1,0.2-0.1,0.4-0.2,0.6c-0.1,0.2-0.1,0.4-0.2,0.6
		c-0.1,0.4-0.3,0.8-0.4,1.1c-0.1,0.2-0.2,0.5-0.3,0.7c0-0.3,0.1-0.9,0.1-1c0-0.5-0.2-1.4-0.6-2c0-0.1,0-0.2,0-0.2
		c-0.1-0.6-0.7-1.1-1.3-0.9c-0.9,0.2-1.4,1.8-1.5,2.6c0,0,0,0.6,0,0.9c0-0.2-0.1-0.4-0.1-0.6c-0.1-0.4-0.2-0.8-0.3-1.2
		c-0.1-0.2-0.1-0.4-0.2-0.6c-0.1-0.2-0.1-0.4-0.2-0.6c-0.2-0.5-0.4-0.9-0.6-1.4c0.3-0.1,1.5-0.4,2-0.8s1-1,1-1.6
		c0-0.6-0.5-1.2-1.2-1.1c-0.9,0.1-1.7,1.5-1.8,2.3c0,0-0.1,0.6-0.1,1c-0.1-0.3-0.2-0.6-0.4-0.8c-0.4-0.8-0.8-1.6-1.3-2.4
		c-0.1-0.2-0.3-0.5-0.4-0.7c0.1,0,1.5-0.4,2.1-0.8c0.5-0.4,1-1,1-1.6c0-0.6-0.5-1.2-1.2-1.1c-0.9,0.1-1.7,1.5-1.8,2.3
		c0,0.1-0.1,0.9-0.1,1.1c-0.3-0.5-0.6-1.1-0.8-1.6c-0.3-0.8-0.6-1.5-0.9-2.3c0.1,0,1.5-0.3,2.1-0.8c0.5-0.4,1-1,1-1.6
		c0-0.6-0.5-1.2-1.2-1.1c-0.9,0.1-1.7,1.5-1.8,2.3c0,0.1-0.1,1-0.1,1.1c0,0,0-0.1,0-0.1c-0.2-0.8-0.4-1.6-0.5-2.4
		c0-0.5-0.1-0.9-0.1-1.3c0.3,0,1.6-0.2,2.1-0.5c0.5-0.3,1.1-0.8,1.2-1.5c0.1-0.6-0.4-1.2-1-1.2c-0.9,0-1.8,1.3-2.1,2.1
		c0,0-0.1,0.5-0.2,0.8c0-0.2,0-0.4,0-0.6c0-0.7,0-1.3,0.1-1.9c0-0.3,0.1-0.6,0.1-0.9c0.3-0.2,1.3-0.9,1.6-1.4
		c0.3-0.5,0.6-1.3,0.3-1.8c-0.2-0.6-0.9-0.9-1.5-0.6c-0.8,0.4-1,2-0.9,2.8c0,0.1,0.3,1.1,0.3,1.1c0,0,0,0,0,0c0,0.2-0.1,0.5-0.1,0.8
		c-0.1,0.5-0.1,1.2-0.1,1.9s0,1.4,0,2.2c0.1,0.8,0.2,1.6,0.4,2.4c0,0,0,0,0,0c-0.1-0.2-0.6-0.8-0.6-0.9c-0.5-0.6-1.9-1.5-2.7-1.1
		c-0.6,0.2-0.8,1-0.5,1.5C47.7,647,48.4,647.3,49,647.4L49,647.4L49,647.4z"/>
	<path class="st2" d="M199.9,697.5c0.2-0.8-0.3-1.7-1.2-1.8c-1.2-0.2-2.8,1.5-3.2,2.5c0,0.1-0.5,1.5-0.5,1.5c0,0,2.2,0,3.1-0.3
		C198.8,699,199.7,698.3,199.9,697.5L199.9,697.5z"/>
	<path class="st2" d="M197.3,705.6c0.8-0.1,1.8-0.5,2.3-1.3c0.4-0.8,0.2-1.8-0.6-2.1c-1.1-0.5-3.1,0.7-3.8,1.5
		c-0.1,0.1-0.6,0.9-0.8,1.2c0,0,0,0,0,0c0.3-1.2,0.5-2.3,0.6-3.4c0.1-1.1,0.1-2.1,0.1-3.1s-0.1-1.8-0.2-2.6c0-0.4-0.1-0.8-0.1-1.2
		l0,0c0,0,0.4-1.4,0.5-1.5c0.2-1.1-0.1-3.3-1.2-3.9c-0.8-0.4-1.7,0-2,0.8c-0.3,0.8,0,1.8,0.5,2.5c0.4,0.7,1.9,1.7,2.2,2
		c0,0.4,0.1,0.8,0.1,1.2c0.1,0.8,0.1,1.6,0.1,2.6c0,0.2,0,0.5,0,0.8c-0.1-0.5-0.2-1-0.2-1.1c-0.3-1.1-1.6-2.9-2.9-2.9
		c-0.9,0-1.5,0.8-1.4,1.7c0.1,0.9,0.9,1.6,1.6,2c0.7,0.5,2.5,0.7,2.9,0.7c0,0.6-0.1,1.2-0.1,1.8c-0.1,1.1-0.3,2.2-0.6,3.3
		c0,0.1,0,0.1-0.1,0.2c0-0.2-0.1-1.5-0.1-1.5c-0.2-1.1-1.3-3.1-2.5-3.2c-0.9-0.1-1.6,0.7-1.6,1.5c0,0.9,0.7,1.7,1.4,2.2
		c0.8,0.6,2.8,1,2.9,1.1c-0.3,1-0.7,2.1-1.2,3.1c-0.3,0.8-0.7,1.5-1.1,2.3c0-0.3-0.1-1.4-0.1-1.5c-0.2-1.1-1.3-3.1-2.5-3.2
		c-0.9-0.1-1.6,0.7-1.6,1.5c0,0.9,0.7,1.7,1.4,2.2c0.8,0.6,2.7,1,2.9,1.1c-0.2,0.3-0.4,0.7-0.5,1c-0.6,1.1-1.2,2.2-1.7,3.3
		c-0.2,0.4-0.4,0.8-0.5,1.2c0-0.4-0.1-1.2-0.1-1.3c-0.2-1.1-1.3-3.1-2.5-3.2c-0.9-0.1-1.6,0.7-1.6,1.5c0,0.9,0.7,1.7,1.4,2.2
		s2.3,0.9,2.8,1c-0.3,0.7-0.6,1.3-0.8,2c-0.1,0.3-0.2,0.6-0.3,0.8c-0.1,0.3-0.2,0.5-0.2,0.8c-0.1,0.6-0.3,1.1-0.4,1.6
		c-0.1,0.3-0.1,0.5-0.2,0.8c0-0.5,0.1-1.2,0.1-1.2c-0.1-1.1-0.8-3.2-2-3.5c-0.9-0.2-1.7,0.4-1.8,1.2c0,0.1,0,0.2,0,0.3
		c-0.5,0.8-0.8,2-0.8,2.8c0,0.1,0.1,0.9,0.2,1.3c-0.1-0.3-0.3-0.7-0.4-1c-0.2-0.5-0.4-1-0.6-1.5c-0.1-0.3-0.2-0.5-0.3-0.8
		c-0.1-0.3-0.2-0.5-0.2-0.8c-0.1-0.4-0.2-0.8-0.3-1.3c0.5-0.2,2-0.7,2.6-1.2c0.6-0.5,1.2-1.4,1.2-2.3c-0.1-0.9-0.8-1.5-1.7-1.4
		c-1.2,0.2-2.1,2.3-2.3,3.4c0,0,0,0.3,0,0.5c-0.1-0.4-0.1-0.8-0.2-1.3c-0.2-1.2-0.3-2.5-0.5-3.7c0-0.3-0.1-0.5-0.1-0.8
		c0.4-0.1,2.1-0.7,2.7-1.2c0.6-0.5,1.2-1.4,1.2-2.3c-0.1-0.9-0.8-1.5-1.7-1.4c-1.2,0.2-2.1,2.3-2.3,3.4c0,0,0,0.3,0,0.6
		c-0.1-0.7-0.2-1.3-0.3-2c-0.2-1.2-0.5-2.3-0.8-3.4c0.2,0,2.1-0.7,2.8-1.3c0.6-0.5,1.2-1.4,1.2-2.3c-0.1-0.9-0.8-1.5-1.7-1.4
		c-1.2,0.2-2.1,2.3-2.3,3.4c0,0.1,0,1.1,0,1.5c0,0,0,0,0,0c-0.4-1.1-0.9-2.2-1.4-3.1c-0.5-1-1.1-1.8-1.6-2.6s-1.1-1.5-1.6-2
		c-0.3-0.3-0.5-0.6-0.8-0.9h0c0,0-0.4-1.4-0.5-1.5c-0.5-1-1.9-2.7-3.2-2.6c-0.9,0.1-1.4,1-1.2,1.8c0.2,0.9,1,1.5,1.8,1.9
		c0.8,0.4,2.5,0.4,3,0.4c0.2,0.3,0.5,0.6,0.8,0.9c0.5,0.6,1,1.3,1.5,2.1c0.1,0.2,0.3,0.4,0.4,0.7c-0.3-0.3-0.8-0.8-0.8-0.8
		c-0.9-0.7-3-1.5-4-0.8c-0.8,0.5-0.8,1.5-0.3,2.2c0.6,0.7,1.6,0.9,2.4,0.8c0.9,0,2.5-0.8,2.8-1c0.3,0.5,0.6,1,0.9,1.6
		c0.5,1,1,2,1.3,3.1c0,0.1,0,0.1,0.1,0.2c-0.1-0.2-0.9-1.2-1-1.2c-0.8-0.8-2.8-1.8-3.9-1.3c-0.8,0.4-1,1.4-0.5,2.1
		c0.5,0.7,1.5,1,2.4,1.1c1,0.1,2.9-0.7,3-0.7c0.3,1,0.5,2.2,0.7,3.3c0.1,0.8,0.2,1.7,0.3,2.5c-0.2-0.2-0.9-1.2-0.9-1.2
		c-0.8-0.8-2.8-1.8-3.9-1.3c-0.8,0.4-1,1.4-0.5,2.1c0.5,0.7,1.5,1,2.4,1.1c0.9,0.1,2.8-0.6,3-0.7c0,0.4,0.1,0.8,0.1,1.2
		c0.1,1.2,0.2,2.5,0.4,3.7c0.1,0.4,0.1,0.8,0.2,1.3c-0.3-0.3-0.8-1-0.8-1c-0.8-0.8-2.8-1.8-3.9-1.3c-0.8,0.4-1,1.4-0.5,2.1
		c0.5,0.7,1.5,1,2.4,1.1c0.8,0.1,2.4-0.5,2.9-0.7c0.1,0.7,0.2,1.4,0.4,2.1c0.1,0.3,0.1,0.6,0.2,0.9c0.1,0.3,0.2,0.5,0.2,0.8
		c0.2,0.5,0.4,1.1,0.6,1.6c0.1,0.3,0.2,0.5,0.3,0.8c-0.2-0.4-0.6-1-0.6-1.1c-0.7-0.9-2.5-2.2-3.6-1.8c-0.9,0.3-1.2,1.2-0.8,2
		c0.4,0.8,1.3,1.3,2.2,1.4c0.9,0.2,2.8-0.2,3-0.2c0.2,0.6,0.5,1.2,0.7,1.8c0,0.1,0,0.1,0.1,0.2h0.8c-0.1-0.1-0.1-0.3-0.2-0.4
		c-0.2-0.5-0.4-1-0.7-1.6c0.2-0.1,1.8-0.9,2.5-1.6c0.7,0.4,1.6,0.8,1.7,0.8c-0.1,0.6-0.3,1.3-0.4,1.9c-0.1,0.3-0.1,0.7-0.2,1h0.8
		c0-0.3,0.1-0.5,0.1-0.8c0.1-0.5,0.2-1.1,0.3-1.7c0.2,0,2.2,0.3,3.1,0c0.8-0.2,1.7-0.8,2-1.6c0.3-0.8-0.1-1.8-1-2
		c-1.2-0.3-2.9,1.2-3.5,2.1c0,0.1-0.4,0.8-0.6,1.2c0.1-0.3,0.1-0.7,0.2-1.1c0.1-0.5,0.2-1.1,0.4-1.6c0.1-0.3,0.2-0.5,0.2-0.8
		c0.1-0.3,0.2-0.5,0.3-0.8c0.1-0.4,0.3-0.8,0.5-1.2c0.5,0.1,2.1,0.5,2.9,0.4c0.8-0.1,1.8-0.5,2.3-1.3c0.4-0.8,0.2-1.7-0.6-2.1
		c-1.1-0.5-3.1,0.7-3.8,1.5c0,0-0.2,0.2-0.3,0.5c0.2-0.4,0.3-0.8,0.5-1.2c0.5-1.1,1.1-2.2,1.7-3.4c0.1-0.2,0.2-0.5,0.4-0.7
		c0.4,0.1,2.1,0.6,2.9,0.5s1.8-0.5,2.3-1.3c0.4-0.8,0.2-1.7-0.6-2.1c-1.1-0.5-3.1,0.7-3.8,1.5c0,0-0.2,0.3-0.4,0.5
		c0.3-0.6,0.6-1.2,0.9-1.9c0.5-1.1,0.9-2.2,1.2-3.3C194.4,705.2,196.3,705.8,197.3,705.6L197.3,705.6L197.3,705.6z"/>
	<path class="st2" d="M64.5,643.1c0,0,0.3-1,0.3-1.1c0.1-0.8-0.1-2.4-1-2.8c-0.6-0.3-1.2,0.1-1.5,0.6c-0.2,0.6,0.1,1.3,0.4,1.8
		C63.1,642.3,64.5,643.1,64.5,643.1L64.5,643.1L64.5,643.1z"/>
	<path class="st2" d="M284.2,293.1h-86.8c-0.1,0-0.2-0.1-0.3-0.1c-0.1-0.1-0.1-0.2-0.1-0.3c0.1-0.2,1.7-5.4,7-6.8
		c3-0.8,4.9-0.3,6.6,0.2c1.3,0.3,2.4,0.6,3.7,0.3c1.3-0.4,1.8-1,2.6-1.9c1-1.2,2.3-2.8,6.1-5c4-2.3,6.4-1.4,8.7-0.5
		c1.7,0.6,3.4,1.2,5.7,0.5c2.1-0.6,2.9-2,3.9-3.5c1.4-2.4,3.1-5,9.7-5.6c10.2-0.8,16.9,10.3,17.8,11.7c1.1,0.1,2.2,0.1,3.3,0.1
		c2,0,4.3-0.1,7.3,0.8c5,1.4,5,9.5,5,9.9C284.5,293,284.4,293.1,284.2,293.1L284.2,293.1L284.2,293.1z M197.9,292.4h85.9
		c-0.1-1.6-0.6-7.8-4.5-8.9c-2.9-0.8-5.1-0.8-7.1-0.7c-1.2,0-2.4,0-3.6-0.1c-0.1,0-0.2-0.1-0.3-0.2c-0.1-0.1-6.8-12.4-17.2-11.5
		c-6.3,0.5-7.8,2.9-9.2,5.2c-1,1.6-1.9,3.1-4.3,3.9c-2.5,0.8-4.4,0.1-6.1-0.5c-2.3-0.8-4.4-1.6-8.1,0.5c-3.6,2.1-4.9,3.7-5.9,4.8
		c-0.8,1-1.4,1.7-3,2.1c-1.5,0.4-2.8,0.1-4.1-0.2c-1.6-0.4-3.5-0.9-6.2-0.2C200.2,287.6,198.5,291.1,197.9,292.4L197.9,292.4z"/>
	<path class="st2" d="M91.5,224.2H43.4c-0.1,0-0.2-0.1-0.3-0.1c-0.1-0.1-0.1-0.2-0.1-0.3c0-0.1,1-3.1,4-3.9c1.7-0.4,2.8-0.1,3.7,0.1
		c0.7,0.2,1.3,0.3,2,0.1c0.7-0.2,0.9-0.5,1.4-1c0.5-0.7,1.3-1.6,3.4-2.8c2.3-1.3,3.7-0.8,5-0.3c0.9,0.3,1.8,0.7,3.1,0.3
		c1.1-0.3,1.6-1.1,2.1-1.9c0.8-1.3,1.8-2.9,5.5-3.2c5.7-0.5,9.3,5.4,10,6.5c0.6,0.1,1.1,0.1,1.7,0c1.1,0,2.4,0,4.1,0.4
		c2.9,0.8,2.9,5.4,2.9,5.6S91.7,224.2,91.5,224.2L91.5,224.2L91.5,224.2z M43.9,223.5h47.2c-0.1-1.1-0.4-4.1-2.4-4.6
		c-1.6-0.4-2.8-0.4-3.9-0.4c-0.7,0-1.3,0-2-0.1c-0.1,0-0.2-0.1-0.3-0.2c0-0.1-3.7-6.8-9.4-6.3c-3.4,0.3-4.2,1.6-5,2.8
		c-0.5,0.9-1.1,1.8-2.4,2.2c-1.5,0.5-2.5,0.1-3.5-0.3c-1.2-0.4-2.4-0.9-4.4,0.3c-2,1.1-2.7,2-3.2,2.6c-0.5,0.6-0.8,1-1.7,1.2
		c-0.9,0.2-1.6,0.1-2.4-0.1c-0.9-0.2-1.9-0.5-3.4-0.1C45.2,221.1,44.3,222.7,43.9,223.5L43.9,223.5L43.9,223.5z"/>
	<path class="st2" d="M367.5,426.9h-48.1c-0.1,0-0.2-0.1-0.3-0.1c-0.1-0.1-0.1-0.2-0.1-0.3c0-0.1,1-3.1,4-3.9
		c1.7-0.4,2.8-0.1,3.7,0.1c0.7,0.2,1.3,0.3,2,0.1c0.7-0.2,0.9-0.5,1.4-1c0.5-0.7,1.3-1.6,3.4-2.8c2.3-1.3,3.7-0.8,5-0.3
		c0.9,0.3,1.8,0.7,3.1,0.3c1.1-0.3,1.5-1.1,2.1-1.9c0.8-1.3,1.8-2.9,5.5-3.2c5.7-0.5,9.3,5.4,10,6.5c0.6,0.1,1.1,0.1,1.7,0
		c1.1,0,2.4,0,4.1,0.4c2.9,0.8,2.9,5.4,2.9,5.6S367.7,426.9,367.5,426.9L367.5,426.9L367.5,426.9z M319.9,426.2h47.2
		c-0.1-1-0.4-4.1-2.4-4.6c-1.6-0.4-2.8-0.4-3.9-0.4c-0.7,0-1.3,0-2-0.1c-0.1,0-0.2-0.1-0.3-0.2c0-0.1-3.7-6.8-9.4-6.3
		c-3.4,0.3-4.2,1.6-5,2.8c-0.5,0.9-1.1,1.8-2.5,2.2c-1.5,0.5-2.5,0.1-3.5-0.3c-1.2-0.5-2.4-0.9-4.4,0.3c-2,1.1-2.7,2-3.2,2.6
		c-0.5,0.5-0.8,1-1.7,1.2c-0.9,0.2-1.6,0.1-2.4-0.1c-0.9-0.2-1.9-0.5-3.4-0.1C321.2,423.8,320.3,425.4,319.9,426.2L319.9,426.2
		L319.9,426.2z"/>
	<path class="st2" d="M216.1,176h-20.2c0,0-0.1,0-0.1-0.1s0-0.1,0-0.1c0-0.1,0.4-1.3,1.7-1.6c0.7-0.2,1.2-0.1,1.6,0
		c0.3,0.1,0.6,0.1,0.8,0.1s0.4-0.2,0.6-0.4c0.2-0.3,0.6-0.7,1.4-1.2c0.9-0.6,1.6-0.3,2.1-0.1c0.4,0.1,0.8,0.3,1.3,0.1
		c0.5-0.1,0.6-0.4,0.9-0.8c0.4-0.6,0.7-1.2,2.3-1.3c2.4-0.2,3.9,2.3,4.2,2.7c0.2,0,0.5,0,0.7,0c0.5,0,1,0,1.7,0.2
		c1.2,0.3,1.2,2.3,1.2,2.4S216.2,176,216.1,176L216.1,176L216.1,176z M196.1,175.7h19.8c0-0.4-0.2-1.7-1-1.9
		c-0.7-0.2-1.2-0.2-1.6-0.2c-0.3,0-0.6,0-0.8,0c-0.1,0-0.1,0-0.1-0.1c0,0-1.6-2.8-3.9-2.6c-1.4,0.1-1.8,0.7-2.1,1.2
		c-0.2,0.4-0.5,0.7-1,0.9c-0.6,0.2-1.1,0-1.5-0.1c-0.5-0.2-1-0.4-1.8,0.1s-1.1,0.8-1.4,1.1c-0.2,0.2-0.3,0.4-0.7,0.5
		c-0.4,0.1-0.7,0-1-0.1c-0.4-0.1-0.8-0.2-1.4,0C196.7,174.7,196.3,175.4,196.1,175.7L196.1,175.7L196.1,175.7z"/>
	<circle class="st3" cx="325.9" cy="128.6" r="18.2"/>
	<path class="st3" d="M325.8,147.5c-10.5,0-19.1-8.6-19.1-19.1s8.6-19.1,19.1-19.1c8.7,0,16.3,5.8,18.5,14.2
		c0.1,0.2-0.1,0.5-0.3,0.5s-0.5-0.1-0.5-0.3c-2.1-8-9.4-13.6-17.7-13.6c-10.1,0-18.3,8.2-18.3,18.3s8.2,18.3,18.3,18.3
		s18.3-8.2,18.3-18.3c0-0.3,0-0.7,0-1.1c0-0.2,0.2-0.4,0.4-0.4c0.3,0,0.4,0.2,0.5,0.4c0,0.4,0,0.7,0,1.1
		C344.9,138.9,336.4,147.5,325.8,147.5L325.8,147.5z"/>
	<path class="st3" d="M360.4,128.8h-10.8c-0.2,0-0.4-0.2-0.4-0.4s0.2-0.4,0.4-0.4h10.8c0.2,0,0.4,0.2,0.4,0.4
		S360.6,128.8,360.4,128.8z"/>
	<path class="st3" d="M302,128.8h-10.8c-0.2,0-0.4-0.2-0.4-0.4s0.2-0.4,0.4-0.4H302c0.2,0,0.4,0.2,0.4,0.4S302.2,128.8,302,128.8z"
		/>
	<path class="st3" d="M342.6,111.9c-0.1,0-0.2,0-0.3-0.1c-0.2-0.2-0.2-0.4,0-0.6l7.6-7.6c0.2-0.2,0.4-0.2,0.6,0
		c0.2,0.2,0.2,0.4,0,0.6l-7.6,7.6C342.9,111.9,342.7,111.9,342.6,111.9L342.6,111.9L342.6,111.9z"/>
	<path class="st3" d="M301.4,153.2c-0.1,0-0.2,0-0.3-0.1c-0.2-0.2-0.2-0.4,0-0.6l7.6-7.6c0.2-0.2,0.4-0.2,0.6,0
		c0.2,0.2,0.2,0.4,0,0.6l-7.6,7.6C301.6,153.2,301.5,153.2,301.4,153.2L301.4,153.2L301.4,153.2z"/>
	<path class="st3" d="M309,111.9c-0.1,0-0.2,0-0.3-0.1l-1.7-1.7c-0.2-0.2-0.2-0.4,0-0.6s0.4-0.2,0.6,0l1.7,1.7
		c0.2,0.2,0.2,0.4,0,0.6C309.2,111.9,309.1,111.9,309,111.9L309,111.9L309,111.9z"/>
	<path class="st3" d="M305.6,108.6c-0.1,0-0.2,0-0.3-0.1l-4.3-4.3c-0.2-0.2-0.2-0.4,0-0.6s0.4-0.2,0.6,0l4.3,4.3
		c0.2,0.2,0.2,0.4,0,0.6C305.8,108.5,305.7,108.6,305.6,108.6L305.6,108.6L305.6,108.6z"/>
	<path class="st3" d="M350.3,153.2c-0.1,0-0.2,0-0.3-0.1l-7.6-7.6c-0.2-0.2-0.2-0.4,0-0.6s0.4-0.2,0.6,0l7.6,7.6
		c0.2,0.2,0.2,0.4,0,0.6C350.5,153.2,350.4,153.2,350.3,153.2L350.3,153.2L350.3,153.2z"/>
	<path class="st3" d="M325.8,105c-0.2,0-0.4-0.2-0.4-0.4V93.8c0-0.2,0.2-0.4,0.4-0.4s0.4,0.2,0.4,0.4v10.8
		C326.2,104.8,326,105,325.8,105z"/>
	<path class="st3" d="M325.8,163.4c-0.2,0-0.4-0.2-0.4-0.4v-10.8c0-0.2,0.2-0.4,0.4-0.4s0.4,0.2,0.4,0.4v10.8
		C326.2,163.2,326,163.4,325.8,163.4z"/>
	<rect x="109.3" y="561.7" class="st2" width="4.4" height="99.8"/>
	<path class="st2" d="M113.7,661.9h-4.4c-0.2,0-0.4-0.2-0.4-0.4v-99.8c0-0.2,0.2-0.4,0.4-0.4h4.4c0.2,0,0.4,0.2,0.4,0.4v99.8
		C114.1,661.8,113.9,661.9,113.7,661.9L113.7,661.9z M109.7,661.2h3.7v-99.1h-3.7V661.2L109.7,661.2z"/>
	<rect x="231.4" y="561.7" class="st2" width="4.4" height="99.8"/>
	<path class="st2" d="M235.8,661.9h-4.4c-0.2,0-0.4-0.2-0.4-0.4v-99.8c0-0.2,0.2-0.4,0.4-0.4h4.4c0.2,0,0.4,0.2,0.4,0.4v99.8
		C236.2,661.8,236,661.9,235.8,661.9L235.8,661.9z M231.8,661.2h3.7v-99.1h-3.7V661.2L231.8,661.2z"/>
	<rect x="196.3" y="607.6" class="st2" width="4.4" height="54"/>
	<path class="st2" d="M200.7,661.9h-4.4c-0.2,0-0.4-0.2-0.4-0.4v-54c0-0.2,0.2-0.4,0.4-0.4h4.4c0.2,0,0.4,0.2,0.4,0.4v54
		C201.1,661.8,200.9,661.9,200.7,661.9L200.7,661.9z M196.7,661.2h3.7v-53.3h-3.7V661.2L196.7,661.2z"/>
	<rect x="71.1" y="607.6" class="st2" width="4.4" height="54"/>
	<path class="st2" d="M75.5,661.9h-4.4c-0.2,0-0.4-0.2-0.4-0.4v-54c0-0.2,0.2-0.4,0.4-0.4h4.4c0.2,0,0.4,0.2,0.4,0.4v54
		C75.9,661.8,75.7,661.9,75.5,661.9L75.5,661.9z M71.5,661.2h3.7v-53.3h-3.7V661.2L71.5,661.2z"/>
	<rect x="98.6" y="554.8" class="st4" width="144.7" height="14.5"/>
	<path class="st2" d="M243.3,569.7H98.6c-0.2,0-0.4-0.2-0.4-0.4v-14.5c0-0.2,0.2-0.4,0.4-0.4h144.7c0.2,0,0.4,0.2,0.4,0.4v14.5
		C243.7,569.5,243.5,569.7,243.3,569.7L243.3,569.7z M99,568.9h144v-13.8H99C99,555.2,99,568.9,99,568.9z"/>
	<rect x="98.6" y="572.1" class="st4" width="144.7" height="14.5"/>
	<path class="st2" d="M243.3,586.9H98.6c-0.2,0-0.4-0.2-0.4-0.4V572c0-0.2,0.2-0.4,0.4-0.4h144.7c0.2,0,0.4,0.2,0.4,0.4v14.5
		C243.7,586.8,243.5,586.9,243.3,586.9L243.3,586.9z M99,586.2h144v-13.8H99C99,572.4,99,586.2,99,586.2z"/>
	<rect x="96.8" y="554.8" class="st4" width="144.7" height="14.5"/>
	<path class="st2" d="M241.5,569.7H96.8c-0.2,0-0.4-0.2-0.4-0.4v-14.5c0-0.2,0.2-0.4,0.4-0.4h144.7c0.2,0,0.4,0.2,0.4,0.4v14.5
		C241.9,569.5,241.7,569.7,241.5,569.7L241.5,569.7z M97.2,568.9h144v-13.8h-144V568.9z"/>
	<rect x="96.8" y="572.1" class="st4" width="144.7" height="14.5"/>
	<path class="st2" d="M241.5,586.9H96.8c-0.2,0-0.4-0.2-0.4-0.4V572c0-0.2,0.2-0.4,0.4-0.4h144.7c0.2,0,0.4,0.2,0.4,0.4v14.5
		C241.9,586.8,241.7,586.9,241.5,586.9L241.5,586.9z M97.2,586.2h144v-13.8h-144V586.2z"/>
	<rect x="62.4" y="605.9" class="st4" width="180.9" height="4.8"/>
	<path class="st2" d="M243.3,611.1h-181c-0.2,0-0.4-0.2-0.4-0.4v-4.8c0-0.2,0.2-0.4,0.4-0.4h180.9c0.2,0,0.4,0.2,0.4,0.4v4.8
		C243.7,610.9,243.5,611.1,243.3,611.1L243.3,611.1L243.3,611.1z M62.7,610.4H243v-4.1H62.7L62.7,610.4L62.7,610.4L62.7,610.4z"/>
	<rect x="208.9" y="605.9" class="st4" width="34.4" height="4.8"/>
	<path class="st2" d="M243.3,611.1h-34.4c-0.2,0-0.4-0.2-0.4-0.4v-4.8c0-0.2,0.2-0.4,0.4-0.4h34.4c0.2,0,0.4,0.2,0.4,0.4v4.8
		C243.7,610.9,243.5,611.1,243.3,611.1z M209.2,610.4H243v-4.1h-33.7V610.4z"/>
	<path class="st2" d="M226.6,610.9c-0.2,0-0.4-0.2-0.4-0.4v-4.6c0-0.2,0.2-0.4,0.4-0.4s0.4,0.2,0.4,0.4v4.6
		C227,610.8,226.8,610.9,226.6,610.9z"/>
	<path class="st2" d="M228,610.9c-0.2,0-0.4-0.2-0.4-0.4v-4.6c0-0.2,0.2-0.4,0.4-0.4s0.4,0.2,0.4,0.4v4.6
		C228.4,610.8,228.2,610.9,228,610.9z"/>
	<circle class="st4" cx="223" cy="447.6" r="9.4"/>
	<path class="st2" d="M222.7,461.1c-0.8,0-1.3-0.9-1.8-1.8c-0.3-0.6-0.7-1.3-1-1.4c-0.3-0.1-1.1,0.4-1.7,0.7c-0.9,0.5-1.8,1-2.4,0.7
		c-0.7-0.4-0.6-1.4-0.6-2.4c0-0.7,0-1.5-0.2-1.8c-0.2-0.2-1.1-0.2-1.8-0.2c-1.1,0-2.1,0-2.4-0.6c-0.4-0.6,0.1-1.5,0.7-2.4
		c0.4-0.6,0.8-1.3,0.7-1.7c-0.1-0.3-0.8-0.7-1.4-1c-0.9-0.5-1.8-1-1.8-1.8s0.9-1.3,1.8-1.8c0.6-0.3,1.3-0.7,1.4-1
		c0.1-0.3-0.4-1.1-0.7-1.7c-0.5-0.9-1.1-1.8-0.7-2.4c0.4-0.7,1.4-0.6,2.4-0.6c0.7,0,1.5,0,1.8-0.2s0.2-1.1,0.2-1.8
		c0-1.1,0-2.1,0.6-2.4c0.6-0.4,1.5,0.1,2.4,0.7c0.6,0.4,1.3,0.8,1.7,0.7c0.3-0.1,0.7-0.8,1-1.4c0.5-0.9,1-1.8,1.8-1.8
		s1.3,0.9,1.8,1.8c0.3,0.6,0.7,1.3,1,1.4c0.4,0.1,1.1-0.4,1.7-0.7c0.9-0.5,1.8-1,2.4-0.7c0.7,0.4,0.6,1.4,0.6,2.4
		c0,0.7,0,1.5,0.2,1.8c0.2,0.2,1.1,0.2,1.8,0.2c1.1,0,2.1,0,2.4,0.6c0.4,0.6-0.1,1.5-0.7,2.4c-0.4,0.6-0.8,1.3-0.7,1.7
		c0.1,0.3,0.8,0.7,1.4,1c0.9,0.5,1.8,1,1.8,1.8s-0.9,1.3-1.8,1.8c-0.6,0.3-1.3,0.7-1.4,1c-0.1,0.3,0.4,1.1,0.7,1.7
		c0.5,0.9,1.1,1.8,0.7,2.4c-0.4,0.7-1.4,0.6-2.4,0.6c-0.7,0-1.5,0-1.8,0.2c-0.2,0.2-0.2,1.1-0.2,1.8c0,1.1,0,2.1-0.6,2.4
		c-0.6,0.4-1.5-0.1-2.4-0.7c-0.6-0.4-1.3-0.8-1.7-0.7c-0.3,0.1-0.7,0.8-1,1.4C224,460.2,223.5,461.1,222.7,461.1L222.7,461.1
		L222.7,461.1z M219.8,457.2c0.1,0,0.2,0,0.3,0c0.6,0.2,1,0.9,1.5,1.7c0.3,0.6,0.8,1.5,1.2,1.5s0.8-0.8,1.2-1.5
		c0.4-0.8,0.9-1.6,1.5-1.7c0.6-0.2,1.4,0.3,2.2,0.8c0.6,0.4,1.4,0.8,1.7,0.7c0.3-0.2,0.3-1.1,0.3-1.8c0-0.9,0-1.8,0.4-2.3
		c0.5-0.5,1.3-0.4,2.3-0.4c0.7,0,1.6,0,1.8-0.3c0.2-0.3-0.3-1.1-0.7-1.7c-0.5-0.8-0.9-1.6-0.8-2.2c0.2-0.6,0.9-1,1.7-1.5
		c0.6-0.3,1.5-0.8,1.5-1.2s-0.8-0.8-1.5-1.2c-0.8-0.5-1.6-0.9-1.7-1.5c-0.2-0.6,0.3-1.4,0.8-2.2c0.4-0.6,0.8-1.4,0.7-1.7
		c-0.2-0.3-1.1-0.3-1.8-0.3c-0.9,0-1.8,0-2.3-0.4c-0.5-0.5-0.4-1.3-0.4-2.3c0-0.7,0-1.6-0.3-1.8c-0.3-0.2-1.1,0.3-1.7,0.7
		c-0.8,0.5-1.6,1-2.2,0.8c-0.6-0.2-1-0.9-1.5-1.7c-0.3-0.6-0.8-1.5-1.2-1.5s-0.8,0.8-1.2,1.5c-0.4,0.8-0.9,1.6-1.5,1.7
		c-0.6,0.2-1.4-0.3-2.2-0.8c-0.6-0.4-1.4-0.8-1.7-0.7c-0.3,0.2-0.3,1.1-0.3,1.8c0,0.9,0,1.8-0.4,2.3c-0.5,0.5-1.3,0.4-2.3,0.4
		c-0.7,0-1.6,0-1.8,0.3c-0.2,0.3,0.3,1.1,0.7,1.7c0.5,0.8,0.9,1.6,0.8,2.2c-0.2,0.6-0.9,1-1.7,1.5c-0.6,0.3-1.5,0.8-1.5,1.2
		s0.8,0.8,1.5,1.2c0.8,0.5,1.6,0.9,1.7,1.5c0.2,0.6-0.3,1.4-0.8,2.2c-0.4,0.6-0.8,1.4-0.7,1.7c0.2,0.3,1.1,0.3,1.8,0.3
		c0.9,0,1.8,0,2.3,0.4c0.5,0.5,0.4,1.3,0.4,2.3c0,0.7,0,1.6,0.3,1.8c0.3,0.2,1.1-0.3,1.7-0.7C218.6,457.6,219.2,457.2,219.8,457.2
		L219.8,457.2L219.8,457.2z"/>
	<path class="st2" d="M222.7,456.8c-5.2,0-9.4-4.2-9.4-9.4s4.2-9.4,9.4-9.4s9.4,4.2,9.4,9.4S227.9,456.8,222.7,456.8z M222.7,438.6
		c-4.8,0-8.7,3.9-8.7,8.7s3.9,8.7,8.7,8.7s8.7-3.9,8.7-8.7S227.5,438.6,222.7,438.6z"/>
	<path class="st2" d="M229.4,474.7c-0.1,0-0.2,0-0.2-0.1l-7-6.3l-8.4,6.2c-0.1,0.1-0.3,0.1-0.4,0c-0.1-0.1-0.2-0.2-0.1-0.4l4.1-13.8
		c0.1-0.2,0.3-0.3,0.4-0.2s0.3,0.3,0.2,0.4l-3.8,12.8l7.8-5.7c0.1-0.1,0.3-0.1,0.4,0l6.6,5.9l-1.4-13.5c0-0.2,0.1-0.4,0.3-0.4
		c0.2,0,0.4,0.1,0.4,0.3l1.5,14.5c0,0.1-0.1,0.3-0.2,0.4C229.5,474.7,229.4,474.7,229.4,474.7L229.4,474.7z"/>
	<path class="st2" d="M222.5,453.2L222.5,453.2c-0.2,0-0.4-0.2-0.3-0.4l1.5-9.2l-4.4,3.4c-0.2,0.1-0.4,0.1-0.5-0.1
		c-0.1-0.2-0.1-0.4,0.1-0.5l5.1-4c0.1-0.1,0.3-0.1,0.4,0s0.2,0.2,0.2,0.4l-1.6,10.1C222.8,453.1,222.7,453.2,222.5,453.2
		L222.5,453.2L222.5,453.2z"/>
	<path class="st2" d="M224.7,454.1L224.7,454.1l-4.8-0.7c-0.2,0-0.3-0.2-0.3-0.4c0-0.2,0.2-0.3,0.4-0.3l4.7,0.7
		c0.2,0,0.3,0.2,0.3,0.4C225,454,224.8,454.1,224.7,454.1L224.7,454.1z"/>
	<path class="st2" d="M77.2,529.4c-3.2,0-5.1-0.3-5.2-0.3c-0.2,0-0.3-0.2-0.3-0.4c0-0.2,0.2-0.3,0.4-0.3c0.2,0,20.9,3.2,39.3-11.8
		c0.2-0.1,0.4-0.1,0.5,0c0.1,0.2,0.1,0.4-0.1,0.5C98.9,527.8,84.7,529.4,77.2,529.4L77.2,529.4L77.2,529.4z"/>
	<path class="st2" d="M165.1,455.5c0,0-0.1,0-0.1,0c-0.1,0-0.2-0.1-0.2-0.2l-6.9-13.3c-0.1-0.2,0-0.4,0.1-0.5l20.9-10.8l-2-3.9
		c-0.1-0.1-0.1-0.2,0-0.4c0.1-0.1,0.2-0.2,0.3-0.2l24.4,1.1c0.1,0,0.2,0.1,0.3,0.2s0.1,0.2,0,0.4l-13.1,20.6
		c-0.1,0.1-0.2,0.2-0.3,0.2c-0.1,0-0.2-0.1-0.3-0.2l-2-3.9l-14.1,7.3c-0.2,0.1-0.4,0-0.5-0.1c-0.1-0.2,0-0.4,0.1-0.5l14.4-7.5
		c0.2-0.1,0.4,0,0.5,0.1l1.9,3.6l12.5-19.5l-23.2-1l1.9,3.6c0,0.1,0.1,0.2,0,0.3s-0.1,0.2-0.2,0.2L158.6,442l6.6,12.7l4.4-2.3
		c0.2-0.1,0.4,0,0.5,0.1c0.1,0.2,0,0.4-0.1,0.5l-4.7,2.5C165.2,455.4,165.1,455.5,165.1,455.5L165.1,455.5L165.1,455.5z"/>
	<path class="st2" d="M199.5,434.9c-0.1,0-0.1,0-0.2-0.1c-0.2-0.1-0.2-0.3-0.1-0.5l1.8-2.9c0.1-0.2,0.3-0.2,0.5-0.1
		c0.2,0.1,0.2,0.3,0.1,0.5l-1.8,2.9C199.7,434.9,199.6,434.9,199.5,434.9L199.5,434.9L199.5,434.9z"/>
	<path class="st2" d="M164.4,459.3c0,0-0.1,0-0.1,0c-0.1,0-0.2-0.1-0.2-0.2l-7.1-14.2c-0.1-0.2,0-0.4,0.2-0.5s0.4,0,0.5,0.2
		l6.9,13.9l20.5-10.8c0.1,0,0.2-0.1,0.3,0c0.1,0,0.2,0.1,0.2,0.2l2.2,4.7l9.6-15.3c0.1-0.2,0.3-0.2,0.5-0.1c0.2,0.1,0.2,0.3,0.1,0.5
		l-10,15.8c-0.1,0.1-0.2,0.2-0.3,0.2c-0.1,0-0.2-0.1-0.3-0.2l-2.4-5l-20.5,10.8C164.5,459.2,164.4,459.3,164.4,459.3L164.4,459.3
		L164.4,459.3z"/>
	<circle class="st4" cx="125.8" cy="496" r="9.4"/>
	<path class="st2" d="M125.8,506c-5.6,0-10.1-4.5-10.1-10.1s4.5-10.1,10.1-10.1c4.6,0,8.6,3.1,9.7,7.5c0.1,0.2-0.1,0.4-0.3,0.4
		s-0.4-0.1-0.4-0.3c-1.1-4.1-4.8-7-9.1-7c-5.2,0-9.4,4.2-9.4,9.4s4.2,9.4,9.4,9.4s9.4-4.2,9.4-9.4c0-0.2,0-0.4,0-0.5
		c0-0.2,0.1-0.4,0.3-0.4c0.2,0,0.4,0.1,0.4,0.3s0,0.4,0,0.6C135.9,501.4,131.4,506,125.8,506L125.8,506L125.8,506z"/>
	<path class="st2" d="M143.8,496.3h-5.6c-0.2,0-0.4-0.2-0.4-0.4s0.2-0.4,0.4-0.4h5.6c0.2,0,0.4,0.2,0.4,0.4S144,496.3,143.8,496.3z"
		/>
	<path class="st2" d="M113.4,496.3h-5.6c-0.2,0-0.4-0.2-0.4-0.4s0.2-0.4,0.4-0.4h5.6c0.2,0,0.4,0.2,0.4,0.4S113.6,496.3,113.4,496.3
		z"/>
	<path class="st2" d="M134.6,487.5c-0.1,0-0.2,0-0.2-0.1c-0.1-0.1-0.1-0.4,0-0.5l4-4c0.1-0.1,0.4-0.1,0.5,0s0.1,0.4,0,0.5l-4,4
		C134.7,487.5,134.6,487.5,134.6,487.5L134.6,487.5z"/>
	<path class="st2" d="M113.1,509c-0.1,0-0.2,0-0.2-0.1c-0.1-0.1-0.1-0.4,0-0.5l4-4c0.1-0.1,0.4-0.1,0.5,0s0.1,0.4,0,0.5l-4,4
		C113.3,508.9,113.2,509,113.1,509L113.1,509z"/>
	<path class="st2" d="M117.1,487.5c-0.1,0-0.2,0-0.2-0.1l-0.9-0.9c-0.1-0.1-0.1-0.4,0-0.5s0.4-0.1,0.5,0l0.9,0.9
		c0.1,0.1,0.1,0.4,0,0.5C117.2,487.5,117.2,487.5,117.1,487.5L117.1,487.5z"/>
	<path class="st2" d="M115.3,485.8c-0.1,0-0.2,0-0.2-0.1l-2.2-2.2c-0.1-0.1-0.1-0.4,0-0.5s0.4-0.1,0.5,0l2.2,2.2
		c0.1,0.1,0.1,0.4,0,0.5C115.5,485.7,115.4,485.8,115.3,485.8L115.3,485.8z"/>
	<path class="st2" d="M138.5,509c-0.1,0-0.2,0-0.2-0.1l-4-4c-0.1-0.1-0.1-0.4,0-0.5s0.4-0.1,0.5,0l4,4c0.1,0.1,0.1,0.4,0,0.5
		C138.7,508.9,138.6,509,138.5,509L138.5,509z"/>
	<path class="st2" d="M125.8,483.9c-0.2,0-0.4-0.2-0.4-0.4V478c0-0.2,0.2-0.4,0.4-0.4s0.4,0.2,0.4,0.4v5.6
		C126.2,483.8,126,483.9,125.8,483.9z"/>
	<path class="st2" d="M125.8,514.2c-0.2,0-0.4-0.2-0.4-0.4v-5.6c0-0.2,0.2-0.4,0.4-0.4s0.4,0.2,0.4,0.4v5.6
		C126.2,514.1,126,514.2,125.8,514.2z"/>
	<path class="st2" d="M100.8,374.2c-4.2,0-7.7-3.5-7.7-7.7s3.5-7.7,7.7-7.7c3.5,0,6.6,2.4,7.4,5.7c0.1,0.2-0.1,0.4-0.3,0.4
		s-0.4-0.1-0.4-0.3c-0.8-3.1-3.6-5.2-6.8-5.2c-3.8,0-7,3.1-7,7s3.1,7,7,7s7-3.1,7-7c0-0.1,0-0.3,0-0.4c0-0.2,0.1-0.4,0.3-0.4
		c0.2,0,0.4,0.1,0.4,0.3c0,0.1,0,0.3,0,0.4C108.5,370.8,105,374.2,100.8,374.2L100.8,374.2L100.8,374.2z"/>
	<path class="st2" d="M114.4,366.9h-4.2c-0.2,0-0.4-0.2-0.4-0.4s0.2-0.4,0.4-0.4h4.2c0.2,0,0.4,0.2,0.4,0.4S114.6,366.9,114.4,366.9
		z"/>
	<path class="st2" d="M91.4,366.9h-4.2c-0.2,0-0.4-0.2-0.4-0.4s0.2-0.4,0.4-0.4h4.2c0.2,0,0.4,0.2,0.4,0.4S91.6,366.9,91.4,366.9z"
		/>
	<path class="st2" d="M107.4,360.3c-0.1,0-0.2,0-0.2-0.1c-0.1-0.1-0.1-0.4,0-0.5l3-3c0.1-0.1,0.4-0.1,0.5,0s0.1,0.4,0,0.5l-3,3
		C107.6,360.3,107.5,360.3,107.4,360.3L107.4,360.3z"/>
	<path class="st2" d="M91.2,376.5c-0.1,0-0.2,0-0.2-0.1c-0.1-0.1-0.1-0.4,0-0.5l3-3c0.1-0.1,0.4-0.1,0.5,0s0.1,0.4,0,0.5l-3,3
		C91.4,376.5,91.3,376.5,91.2,376.5L91.2,376.5z"/>
	<path class="st2" d="M94.2,360.3c-0.1,0-0.2,0-0.2-0.1l-0.7-0.7c-0.1-0.1-0.1-0.4,0-0.5s0.4-0.1,0.5,0l0.7,0.7
		c0.1,0.1,0.1,0.4,0,0.5C94.4,360.3,94.3,360.3,94.2,360.3L94.2,360.3z"/>
	<path class="st2" d="M92.9,359c-0.1,0-0.2,0-0.2-0.1l-1.7-1.7c-0.1-0.1-0.1-0.4,0-0.5s0.4-0.1,0.5,0l1.7,1.7c0.1,0.1,0.1,0.4,0,0.5
		C93.1,358.9,93,359,92.9,359L92.9,359z"/>
	<path class="st2" d="M110.4,376.5c-0.1,0-0.2,0-0.2-0.1l-3-3c-0.1-0.1-0.1-0.4,0-0.5s0.4-0.1,0.5,0l3,3c0.1,0.1,0.1,0.4,0,0.5
		C110.6,376.5,110.5,376.5,110.4,376.5L110.4,376.5z"/>
	<path class="st2" d="M100.8,357.5c-0.2,0-0.4-0.2-0.4-0.4V353c0-0.2,0.2-0.4,0.4-0.4s0.4,0.2,0.4,0.4v4.2
		C101.2,357.4,101,357.5,100.8,357.5z"/>
	<path class="st2" d="M100.8,380.5c-0.2,0-0.4-0.2-0.4-0.4v-4.2c0-0.2,0.2-0.4,0.4-0.4s0.4,0.2,0.4,0.4v4.2
		C101.2,380.3,101,380.5,100.8,380.5z"/>
	<path class="st2" d="M166.1,480.5c-0.2,0-0.4-0.2-0.4-0.4v-1.8h-3.5c-2.5,0-4.6-2-4.6-4.6s2.1-4.6,4.6-4.6h3.5v-3.5
		c0-2.5,2.1-4.6,4.6-4.6c1.9,0,3.5,1.1,4.2,2.9c0.1,0.2,0,0.4-0.2,0.5c-0.2,0.1-0.4,0-0.5-0.2c-0.6-1.5-2-2.4-3.6-2.4
		c-2.1,0-3.9,1.7-3.9,3.9v3.9c0,0.2-0.2,0.4-0.4,0.4h-3.9c-2.1,0-3.9,1.7-3.9,3.9s1.7,3.9,3.9,3.9h3.9c0.2,0,0.4,0.2,0.4,0.4v2.1
		C166.5,480.3,166.3,480.4,166.1,480.5L166.1,480.5L166.1,480.5z"/>
	<path class="st2" d="M170.4,486.5c-2.5,0-4.6-2-4.6-4.6c0-0.2,0.2-0.4,0.4-0.4s0.4,0.2,0.4,0.4c0,2.1,1.7,3.9,3.9,3.9
		s3.9-1.7,3.9-3.9V478c0-0.2,0.2-0.4,0.4-0.4h3.9c2.1,0,3.9-1.7,3.9-3.9s-1.7-3.9-3.9-3.9h-3.9c-0.2,0-0.4-0.2-0.4-0.4v-3.9
		c0-0.2,0.2-0.4,0.4-0.4s0.4,0.2,0.4,0.4v3.5h3.5c2.5,0,4.6,2,4.6,4.6s-2.1,4.6-4.6,4.6h-3.5v3.5
		C174.9,484.4,172.9,486.5,170.4,486.5L170.4,486.5z"/>
	<path class="st2" d="M100.7,435.6c-1.6,0-2.9-1.3-2.9-2.9v-2h-1.1c-0.2,0-0.4-0.2-0.4-0.4s0.2-0.4,0.4-0.4h1.5
		c0.2,0,0.4,0.2,0.4,0.4v2.4c0,1.2,1,2.2,2.2,2.2s2.2-1,2.2-2.2v-2.4c0-0.2,0.2-0.4,0.4-0.4h2.4c1.2,0,2.2-1,2.2-2.2s-1-2.2-2.2-2.2
		h-2.4c-0.2,0-0.4-0.2-0.4-0.4v-2.4c0-1.2-1-2.2-2.2-2.2s-2.2,1-2.2,2.2v2.4c0,0.2-0.2,0.4-0.4,0.4h-2.4c-1.2,0-2.2,1-2.2,2.2
		c0,0.9,0.5,1.7,1.4,2.1c0.2,0.1,0.3,0.3,0.2,0.5c-0.1,0.2-0.3,0.3-0.5,0.2c-1.1-0.5-1.8-1.5-1.8-2.7c0-1.6,1.3-2.9,2.9-2.9h2v-2
		c0-1.6,1.3-2.9,2.9-2.9s2.9,1.3,2.9,2.9v2h2c1.6,0,2.9,1.3,2.9,2.9s-1.3,2.9-2.9,2.9h-2v2C103.6,434.2,102.3,435.6,100.7,435.6
		L100.7,435.6L100.7,435.6z"/>
	<path class="st0" d="M207.9,396h-2.4v-2.4c0-1.4-1.2-2.6-2.6-2.6s-2.6,1.2-2.6,2.6v2.4H198c-1.4,0-2.6,1.2-2.6,2.6l0,0
		c0,1.4,1.2,2.6,2.6,2.6h2.4v2.4c0,1.4,1.2,2.6,2.6,2.6s2.6-1.2,2.6-2.6v-2.4h2.4c1.4,0,2.6-1.2,2.6-2.6l0,0
		C210.5,397.1,209.3,396,207.9,396z"/>
	<path class="st2" d="M202.9,406.5c-1.6,0-2.9-1.3-2.9-2.9v-2h-2c-1.6,0-2.9-1.3-2.9-2.9s1.3-2.9,2.9-2.9h2v-2
		c0-1.6,1.3-2.9,2.9-2.9s2.9,1.3,2.9,2.9v2h2c1.6,0,2.9,1.3,2.9,2.9s-1.3,2.9-2.9,2.9h-2v2C205.9,405.1,204.6,406.5,202.9,406.5
		L202.9,406.5z M198,396.3c-1.2,0-2.2,1-2.2,2.2s1,2.2,2.2,2.2h2.4c0.2,0,0.4,0.2,0.4,0.4v2.4c0,1.2,1,2.2,2.2,2.2s2.2-1,2.2-2.2
		v-2.4c0-0.2,0.2-0.4,0.4-0.4h2.4c1.2,0,2.2-1,2.2-2.2s-1-2.2-2.2-2.2h-2.4c-0.2,0-0.4-0.2-0.4-0.4v-2.4c0-1.2-1-2.2-2.2-2.2
		s-2.2,1-2.2,2.2v2.4c0,0.2-0.2,0.4-0.4,0.4H198z"/>
	<path class="st0" d="M197,508.7h-2.4v-2.4c0-1.4-1.2-2.6-2.6-2.6s-2.6,1.2-2.6,2.6v2.4h-2.4c-1.4,0-2.6,1.2-2.6,2.6l0,0
		c0,1.4,1.2,2.6,2.6,2.6h2.4v2.4c0,1.4,1.2,2.6,2.6,2.6s2.6-1.2,2.6-2.6v-2.4h2.4c1.4,0,2.6-1.2,2.6-2.6l0,0
		C199.6,509.9,198.5,508.7,197,508.7L197,508.7z"/>
	<path class="st2" d="M192.1,519.2c-1.6,0-2.9-1.3-2.9-2.9v-2h-2c-1.6,0-2.9-1.3-2.9-2.9s1.3-2.9,2.9-2.9h2v-2
		c0-1.6,1.3-2.9,2.9-2.9s2.9,1.3,2.9,2.9v2h2c1.6,0,2.9,1.3,2.9,2.9s-1.3,2.9-2.9,2.9h-2v2C195,517.9,193.7,519.2,192.1,519.2z
		 M187.1,509.1c-1.2,0-2.2,1-2.2,2.2s1,2.2,2.2,2.2h2.4c0.2,0,0.4,0.2,0.4,0.4v2.4c0,1.2,1,2.2,2.2,2.2s2.2-1,2.2-2.2v-2.4
		c0-0.2,0.2-0.4,0.4-0.4h2.4c1.2,0,2.2-1,2.2-2.2s-1-2.2-2.2-2.2h-2.4c-0.2,0-0.4-0.2-0.4-0.4v-2.4c0-1.2-1-2.2-2.2-2.2
		s-2.2,1-2.2,2.2v2.4c0,0.2-0.2,0.4-0.4,0.4H187.1z"/>
	<path class="st0" d="M60,490.5h-2.4v-2.4c0-1.4-1.2-2.6-2.6-2.6s-2.6,1.2-2.6,2.6v2.4H50c-1.4,0-2.6,1.2-2.6,2.6l0,0
		c0,1.4,1.2,2.6,2.6,2.6h2.4v2.4c0,1.4,1.2,2.6,2.6,2.6s2.6-1.2,2.6-2.6v-2.4H60c1.4,0,2.6-1.2,2.6-2.6l0,0
		C62.5,491.6,61.4,490.5,60,490.5z"/>
	<path class="st2" d="M55,501c-1.6,0-2.9-1.3-2.9-2.9v-2h-2c-1.6,0-2.9-1.3-2.9-2.9s1.3-2.9,2.9-2.9h2v-2c0-1.6,1.3-2.9,2.9-2.9
		s2.9,1.3,2.9,2.9v2h2c1.6,0,2.9,1.3,2.9,2.9s-1.3,2.9-2.9,2.9h-2v2C57.9,499.7,56.6,501,55,501z M50,490.8c-1.2,0-2.2,1-2.2,2.2
		s1,2.2,2.2,2.2h2.4c0.2,0,0.4,0.2,0.4,0.4v2.4c0,1.2,1,2.2,2.2,2.2s2.2-1,2.2-2.2v-2.4c0-0.2,0.2-0.4,0.4-0.4H60
		c1.2,0,2.2-1,2.2-2.2s-1-2.2-2.2-2.2h-2.4c-0.2,0-0.4-0.2-0.4-0.4v-2.4c0-1.2-1-2.2-2.2-2.2s-2.2,1-2.2,2.2v2.4
		c0,0.2-0.2,0.4-0.4,0.4H50z"/>
	<path class="st2" d="M46,456.9c-1.4,0-2.9-1.8-3.1-5.8c0-0.1,0-0.2,0.1-0.3c0.6-0.6,1.3-1.4,1.9-2.3c0.1-0.1,0.2-0.2,0.3-0.1
		c0.4,0,0.7,0,1.1,0c0.1,0,0.2,0,0.3,0.1c0,0,0,0,0,0c0.7,0.9,1.4,1.6,2.1,2.2c0.1,0.1,0.1,0.2,0.1,0.3
		C48.8,455,47.4,456.8,46,456.9L46,456.9L46,456.9z M43.5,451.2c0.2,3.2,1.4,4.9,2.4,4.9h0c1,0,2.1-1.8,2.1-5.1
		c-0.6-0.5-1.2-1.2-1.9-2c-0.3,0-0.6,0-0.9,0C44.7,449.9,44.1,450.6,43.5,451.2L43.5,451.2L43.5,451.2z"/>
	<path class="st2" d="M39.3,447.8c-4,0-5.8-1.4-5.9-2.8c0-1.4,1.7-2.9,5.8-3.2c0.1,0,0.2,0,0.3,0.1c0.6,0.6,1.4,1.3,2.3,2
		c0.1,0.1,0.2,0.2,0.1,0.3c0,0.4,0,0.7,0,1.1c0,0.1,0,0.3-0.1,0.3c-0.8,0.7-1.6,1.4-2.2,2.1C39.5,447.8,39.4,447.8,39.3,447.8
		L39.3,447.8L39.3,447.8z M39.1,442.6c-3.3,0.2-5,1.4-4.9,2.4s1.8,2.1,5.1,2.1c0.5-0.6,1.2-1.2,2-1.9c0-0.3,0-0.6,0-0.9
		C40.4,443.8,39.7,443.1,39.1,442.6L39.1,442.6L39.1,442.6z"/>
	<path class="st2" d="M44.9,440.9c-0.1,0-0.2,0-0.3-0.1c-0.3-0.4-0.6-0.7-1-1.1c-0.1-0.1-0.1-0.4,0-0.5s0.4-0.1,0.5,0
		c0.3,0.3,0.6,0.6,0.8,1c0.3,0,0.6,0,0.9,0c0.6-0.8,1.2-1.5,1.8-2.1c-0.2-3.3-1.4-5-2.4-4.9c-1.1,0-2.1,1.8-2.1,5.2
		c0,0.2-0.2,0.4-0.4,0.4l0,0c-0.2,0-0.4-0.2-0.4-0.4c0-4,1.4-5.9,2.8-5.9c1.4,0,2.9,1.7,3.2,5.8c0,0.1,0,0.2-0.1,0.3
		c-0.6,0.6-1.3,1.4-1.9,2.3c-0.1,0.1-0.2,0.2-0.3,0.1C45.7,440.8,45.3,440.8,44.9,440.9L44.9,440.9L44.9,440.9z"/>
	<path class="st2" d="M52.1,447.5c-0.1,0-0.2,0-0.3-0.1c-0.6-0.6-1.4-1.3-2.3-2c-0.1-0.1-0.2-0.2-0.1-0.3c0-0.4,0-0.7,0-1.1
		c0-0.1,0-0.3,0.1-0.3c0.8-0.7,1.6-1.4,2.2-2.1c0.1-0.1,0.2-0.1,0.3-0.1c4,0,5.8,1.4,5.9,2.8C57.9,445.7,56.1,447.2,52.1,447.5
		L52.1,447.5L52.1,447.5L52.1,447.5z M50.1,445c0.8,0.6,1.5,1.2,2.1,1.8c3.3-0.2,5-1.4,4.9-2.4c0-1-1.8-2.1-5.1-2.1
		c-0.5,0.6-1.2,1.2-2,1.9C50.1,444.4,50.1,444.7,50.1,445L50.1,445L50.1,445z"/>
	<path class="st2" d="M38.7,454c-0.5,0-1-0.1-1.3-0.4c-0.8-0.6-1.2-2.1,0.2-4.4c0.1-0.2,0.3-0.2,0.5-0.1c0.2,0.1,0.2,0.3,0.1,0.5
		c-0.9,1.6-1.1,2.9-0.4,3.5c0.8,0.6,2.7,0.2,5.1-2.2c0.5-0.5,1.1-1.1,1.6-1.8c-0.5-0.1-1-0.4-1.5-0.7c-0.2-0.1-0.3-0.2-0.5-0.4
		s-0.3-0.3-0.4-0.5c-0.3-0.4-0.6-0.9-0.8-1.4c-0.5,0.5-1,0.9-1.4,1.4c-0.1,0.1-0.4,0.1-0.5,0c-0.1-0.1-0.2-0.4,0-0.5
		c0.5-0.6,1.2-1.2,1.9-1.8c0.1-0.1,0.2-0.1,0.3-0.1c0.1,0,0.2,0.1,0.2,0.3c0.1,0.6,0.4,1.2,0.8,1.7c0.1,0.1,0.2,0.3,0.4,0.4
		c0.1,0.1,0.3,0.2,0.4,0.3c0.5,0.4,1.1,0.6,1.8,0.7c0.1,0,0.2,0.1,0.3,0.2c0,0.1,0,0.2,0,0.4c-0.7,0.9-1.4,1.7-2,2.4
		C41.4,453.3,39.8,454,38.7,454L38.7,454L38.7,454z"/>
	<path class="st2" d="M41.5,444.5c-0.1,0-0.2,0-0.2-0.1c-0.9-0.7-1.7-1.4-2.4-2c-2.8-2.8-3.2-5.1-2.2-6.1c0.8-0.9,2.8-1.1,5.7,1.2
		c0.2,0.1,0.2,0.4,0.1,0.5c-0.1,0.2-0.3,0.2-0.5,0.1c-2.4-1.9-4.1-2-4.7-1.3c-0.7,0.8-0.2,2.8,2.2,5.2c0.5,0.5,1.1,1.1,1.8,1.6
		c0.1-0.5,0.4-1,0.7-1.5c0.1-0.2,0.2-0.3,0.4-0.5s0.3-0.3,0.5-0.4c0.4-0.3,0.9-0.6,1.4-0.8c-0.2-0.2-0.4-0.4-0.6-0.6
		c-0.1-0.1-0.1-0.4,0-0.5s0.4-0.1,0.5,0c0.3,0.3,0.7,0.7,1,1.1c0.1,0.1,0.1,0.2,0.1,0.4c0,0.1-0.2,0.2-0.3,0.2
		c-0.6,0.1-1.2,0.4-1.7,0.8c-0.1,0.1-0.3,0.2-0.4,0.4c-0.1,0.1-0.2,0.3-0.3,0.4c-0.4,0.5-0.6,1.1-0.7,1.8c0,0.1-0.1,0.2-0.2,0.3
		C41.6,444.5,41.6,444.5,41.5,444.5L41.5,444.5L41.5,444.5z"/>
	<path class="st2" d="M53,453.6c-0.9,0-2.1-0.4-3.3-1.2c-0.2-0.1-0.2-0.3-0.1-0.5c0.1-0.2,0.3-0.2,0.5-0.1c2,1.4,3.4,1.3,3.9,0.7
		c0.6-0.8,0.2-2.7-2.2-5.1c-0.5-0.5-1.1-1.1-1.8-1.6c-0.1,0.5-0.4,1-0.7,1.5c-0.1,0.2-0.2,0.3-0.4,0.5s-0.3,0.3-0.5,0.4
		c-0.4,0.3-0.9,0.6-1.4,0.8c0.4,0.5,0.9,0.9,1.3,1.3c0.1,0.1,0.2,0.4,0,0.5c-0.1,0.1-0.4,0.1-0.5,0c-0.5-0.5-1.1-1.1-1.7-1.8
		c-0.1-0.1-0.1-0.2-0.1-0.4c0-0.1,0.2-0.2,0.3-0.2c0.6-0.1,1.2-0.4,1.7-0.8c0.1-0.1,0.3-0.2,0.4-0.4c0.1-0.1,0.2-0.3,0.3-0.4
		c0.4-0.5,0.6-1.1,0.7-1.8c0-0.1,0.1-0.2,0.2-0.3c0.1,0,0.2,0,0.4,0c0.9,0.7,1.7,1.4,2.4,2c3,2.9,3.1,5.1,2.3,6.1
		C54.2,453.4,53.7,453.6,53,453.6L53,453.6L53,453.6z"/>
	<path class="st2" d="M49.7,444.3c0,0-0.1,0-0.1,0c-0.1,0-0.2-0.1-0.2-0.3c-0.1-0.6-0.4-1.2-0.8-1.7c-0.1-0.1-0.2-0.3-0.4-0.4
		c-0.1-0.1-0.3-0.2-0.4-0.3c-0.5-0.4-1.1-0.6-1.8-0.7c-0.1,0-0.2-0.1-0.3-0.2c0-0.1,0-0.2,0-0.4c0.7-0.9,1.4-1.7,2-2.4
		c2.8-2.9,5.2-3.2,6.2-2.2s0.9,3.3-1.8,6.3c-0.6,0.7-1.4,1.4-2.2,2.1C49.9,444.3,49.8,444.3,49.7,444.3L49.7,444.3L49.7,444.3z
		 M46.8,440.3c0.5,0.1,1,0.4,1.5,0.7c0.2,0.1,0.3,0.2,0.5,0.4s0.3,0.3,0.4,0.5c0.3,0.4,0.6,0.9,0.8,1.4c0.7-0.6,1.2-1.1,1.7-1.7l0,0
		c2.2-2.5,2.7-4.6,1.9-5.3c-0.8-0.7-2.8-0.2-5.2,2.2C47.8,439,47.3,439.6,46.8,440.3L46.8,440.3L46.8,440.3z"/>
	<path class="st0" d="M48.5,441.6c0.2,0.1,0.3,0.3,0.4,0.4c0.5,0.5,0.7,1.2,0.8,1.9c0.1,0.4,0.1,0.8,0,1.2l0,0
		c-0.1,0.7-0.3,1.3-0.7,1.9c-0.1,0.2-0.2,0.3-0.4,0.5s-0.3,0.3-0.4,0.4c-0.5,0.5-1.2,0.7-1.9,0.8l0,0c-0.4,0.1-0.8,0.1-1.2,0
		c-0.7-0.1-1.3-0.3-1.9-0.7c-0.2-0.1-0.3-0.2-0.5-0.4c-0.2-0.1-0.3-0.3-0.4-0.4c-0.5-0.5-0.7-1.2-0.8-1.9c-0.1-0.4-0.1-0.8,0-1.2
		c0.1-0.7,0.3-1.3,0.7-1.9c0.1-0.2,0.2-0.3,0.4-0.5s0.3-0.3,0.4-0.4c0.5-0.5,1.2-0.7,1.9-0.8c0.4-0.1,0.8-0.1,1.2,0
		c0.7,0.1,1.3,0.3,1.9,0.7C48.2,441.4,48.3,441.5,48.5,441.6L48.5,441.6L48.5,441.6z"/>
	<path class="st2" d="M45.6,449.1c-0.2,0-0.3,0-0.5,0c-0.8-0.1-1.5-0.4-2.1-0.8c-0.2-0.1-0.3-0.2-0.5-0.4s-0.3-0.3-0.4-0.5
		c-0.5-0.6-0.8-1.3-0.9-2c-0.1-0.4-0.1-0.9,0-1.3c0.1-0.8,0.4-1.5,0.8-2.1c0.1-0.2,0.2-0.3,0.4-0.5s0.3-0.3,0.5-0.4
		c0.6-0.5,1.3-0.8,2-0.9c0.4-0.1,0.9-0.1,1.3,0c0.8,0.1,1.5,0.4,2.1,0.8c0.2,0.1,0.3,0.2,0.5,0.4s0.3,0.3,0.4,0.5
		c0.5,0.6,0.8,1.3,0.9,2c0.1,0.4,0.1,0.8,0,1.2v0c-0.1,0.8-0.4,1.5-0.8,2.1c-0.1,0.2-0.2,0.3-0.4,0.5s-0.3,0.3-0.5,0.4
		c-0.6,0.5-1.3,0.8-2,0.9h0C46.1,449.1,45.9,449.1,45.6,449.1L45.6,449.1L45.6,449.1z M45.6,440.9c-0.2,0-0.4,0-0.6,0.1
		c-0.6,0.1-1.2,0.4-1.7,0.8c-0.1,0.1-0.3,0.2-0.4,0.4c-0.1,0.1-0.2,0.3-0.3,0.4c-0.4,0.5-0.6,1.1-0.7,1.8c0,0.4,0,0.7,0,1.1
		c0.1,0.6,0.4,1.2,0.8,1.7c0.1,0.1,0.2,0.3,0.4,0.4s0.3,0.2,0.4,0.3c0.5,0.4,1.1,0.6,1.8,0.7c0.4,0,0.7,0,1.1,0h0.1
		c0.6-0.1,1.2-0.4,1.7-0.8c0.1-0.1,0.3-0.2,0.4-0.4c0.1-0.1,0.2-0.3,0.3-0.4c0.4-0.5,0.6-1.1,0.7-1.7v-0.1c0-0.4,0-0.7,0-1.1
		c-0.1-0.6-0.4-1.2-0.8-1.7c-0.1-0.1-0.2-0.3-0.4-0.4c-0.1-0.1-0.3-0.2-0.4-0.3c-0.5-0.4-1.1-0.6-1.8-0.7
		C45.9,440.9,45.8,440.8,45.6,440.9L45.6,440.9L45.6,440.9z"/>
	<path class="st2" d="M132.6,463.7c-1,0-2.1-1.3-2.3-4.1c0-0.1,0-0.2,0.1-0.3c0.4-0.4,0.9-1,1.4-1.6c0.1-0.1,0.2-0.2,0.3-0.1
		c0.2,0,0.5,0,0.7,0c0.1,0,0.2,0,0.3,0.1l0,0c0.5,0.6,1,1.1,1.4,1.5c0.1,0.1,0.1,0.2,0.1,0.3C134.7,462.3,133.7,463.7,132.6,463.7
		L132.6,463.7L132.6,463.7L132.6,463.7z M131,459.7c0.2,2.2,0.9,3.3,1.6,3.3c0.7,0,1.4-1.2,1.4-3.4c-0.4-0.4-0.8-0.8-1.3-1.3
		c-0.2,0-0.3,0-0.5,0C131.8,458.8,131.4,459.3,131,459.7L131,459.7L131,459.7z"/>
	<path class="st2" d="M127.9,457.4c-2.9,0-4.2-1-4.2-2.1c0-1,1.2-2.2,4.1-2.3c0.1,0,0.2,0,0.3,0.1c0.4,0.4,1,0.9,1.6,1.4
		c0.1,0.1,0.2,0.2,0.1,0.3c0,0.2,0,0.5,0,0.7c0,0.1,0,0.3-0.1,0.3c-0.6,0.5-1.1,1-1.5,1.4C128.2,457.4,128.1,457.4,127.9,457.4
		C127.9,457.4,127.9,457.4,127.9,457.4z M127.7,453.7c-2.2,0.2-3.3,0.9-3.3,1.6c0,0.7,1.2,1.4,3.4,1.4c0.4-0.4,0.8-0.8,1.3-1.3
		c0-0.2,0-0.4,0-0.5C128.6,454.5,128.1,454.1,127.7,453.7L127.7,453.7L127.7,453.7z"/>
	<path class="st2" d="M131.9,452.5c-0.1,0-0.2,0-0.3-0.1c-0.2-0.3-0.4-0.5-0.7-0.8c-0.1-0.1-0.1-0.4,0-0.5s0.4-0.1,0.5,0
		c0.2,0.2,0.4,0.4,0.6,0.6c0.2,0,0.3,0,0.5,0c0.4-0.5,0.8-1,1.2-1.4c-0.2-2.2-0.9-3.3-1.6-3.3c-0.7,0-1.4,1.3-1.4,3.5
		c0,0.2-0.2,0.4-0.4,0.4l0,0c-0.2,0-0.4-0.2-0.4-0.4c0-2.9,1-4.2,2.1-4.3c1.1,0,2.2,1.2,2.3,4.1c0,0.1,0,0.2-0.1,0.3
		c-0.4,0.4-0.9,1-1.4,1.6c-0.1,0.1-0.2,0.2-0.3,0.1C132.4,452.5,132.1,452.5,131.9,452.5L131.9,452.5L131.9,452.5z"/>
	<path class="st2" d="M136.9,457.1c-0.1,0-0.2,0-0.3-0.1c-0.4-0.4-1-0.9-1.6-1.4c-0.1-0.1-0.2-0.2-0.1-0.3c0-0.2,0-0.5,0-0.7
		c0-0.1,0-0.3,0.1-0.3c0.6-0.5,1.1-1,1.5-1.4c0.1-0.1,0.2-0.1,0.3-0.1c2.9,0,4.2,1,4.2,2.1C141,455.8,139.8,457,136.9,457.1
		L136.9,457.1L136.9,457.1L136.9,457.1z M135.6,455.2c0.5,0.4,1,0.8,1.4,1.2c2.2-0.2,3.3-0.9,3.3-1.6c0-0.7-1.2-1.4-3.4-1.4
		c-0.4,0.4-0.8,0.8-1.3,1.3C135.6,454.9,135.6,455,135.6,455.2L135.6,455.2L135.6,455.2z"/>
	<path class="st2" d="M127.5,461.7c-0.4,0-0.7-0.1-0.9-0.3c-0.6-0.5-0.9-1.5,0.1-3.2c0.1-0.2,0.3-0.2,0.5-0.1
		c0.2,0.1,0.2,0.3,0.1,0.5c-0.7,1.2-0.7,2-0.3,2.3c0.5,0.4,1.9,0,3.4-1.6c0.3-0.3,0.7-0.7,1-1.1c-0.3-0.1-0.6-0.3-0.9-0.5
		c-0.1-0.1-0.2-0.2-0.4-0.3c-0.1-0.1-0.2-0.2-0.3-0.3c-0.2-0.3-0.4-0.6-0.5-0.9c-0.3,0.3-0.6,0.6-0.9,0.9c-0.1,0.1-0.4,0.1-0.5,0
		c-0.1-0.1-0.2-0.4,0-0.5c0.4-0.4,0.8-0.9,1.4-1.3c0.1-0.1,0.2-0.1,0.4-0.1c0.1,0,0.2,0.1,0.2,0.3c0.1,0.4,0.2,0.8,0.5,1.1
		c0.1,0.1,0.2,0.2,0.2,0.3c0.1,0.1,0.2,0.2,0.3,0.2c0.4,0.2,0.8,0.4,1.2,0.5c0.1,0,0.2,0.1,0.3,0.2c0.1,0.1,0,0.2,0,0.4
		c-0.5,0.6-1,1.2-1.4,1.7C129.5,461.2,128.3,461.7,127.5,461.7L127.5,461.7L127.5,461.7z"/>
	<path class="st2" d="M129.5,455.1c-0.1,0-0.1,0-0.2-0.1c-0.6-0.5-1.2-1-1.7-1.4c-2-2-2.2-3.7-1.6-4.5c0.6-0.6,2-0.8,4.1,0.9
		c0.2,0.1,0.2,0.4,0.1,0.5c-0.1,0.2-0.4,0.2-0.5,0.1c-1.5-1.2-2.8-1.4-3.2-1c-0.5,0.5-0.1,1.9,1.5,3.5c0.3,0.3,0.7,0.7,1.1,1
		c0.1-0.3,0.3-0.6,0.5-0.9c0.1-0.1,0.2-0.2,0.3-0.4c0.1-0.1,0.2-0.2,0.3-0.3c0.3-0.2,0.6-0.4,0.9-0.5c-0.1-0.1-0.2-0.2-0.3-0.3
		c-0.1-0.1-0.1-0.4,0-0.5s0.4-0.1,0.5,0c0.2,0.2,0.5,0.5,0.7,0.8c0.1,0.1,0.1,0.2,0.1,0.4c0,0.1-0.1,0.2-0.3,0.2
		c-0.4,0.1-0.8,0.2-1.1,0.5c-0.1,0.1-0.2,0.2-0.3,0.2c-0.1,0.1-0.2,0.2-0.2,0.3c-0.2,0.4-0.4,0.8-0.4,1.2c0,0.1-0.1,0.2-0.2,0.3
		C129.6,455.1,129.5,455.1,129.5,455.1L129.5,455.1L129.5,455.1z"/>
	<path class="st2" d="M137.5,461.4c-0.6,0-1.4-0.2-2.4-0.9c-0.2-0.1-0.2-0.3-0.1-0.5c0.1-0.2,0.3-0.2,0.5-0.1
		c1.3,0.9,2.3,0.9,2.6,0.5c0.4-0.5,0-1.9-1.6-3.5c-0.3-0.3-0.7-0.7-1.1-1c-0.1,0.3-0.3,0.6-0.5,0.9c-0.1,0.1-0.2,0.2-0.3,0.4
		c-0.1,0.1-0.2,0.2-0.3,0.3c-0.3,0.2-0.6,0.4-0.9,0.5c0.3,0.3,0.5,0.6,0.8,0.8c0.1,0.1,0.1,0.4,0,0.5s-0.4,0.1-0.5,0
		c-0.4-0.4-0.8-0.8-1.2-1.3c-0.1-0.1-0.1-0.2-0.1-0.4c0-0.1,0.1-0.2,0.3-0.2c0.4-0.1,0.8-0.2,1.1-0.5c0.1-0.1,0.2-0.2,0.3-0.2
		c0.1-0.1,0.2-0.2,0.2-0.3c0.2-0.4,0.4-0.8,0.4-1.2c0-0.1,0.1-0.2,0.2-0.3c0.1,0,0.2,0,0.4,0c0.6,0.5,1.2,1,1.7,1.4
		c2.1,2.1,2.2,3.7,1.6,4.4C138.5,461.2,138.1,461.4,137.5,461.4L137.5,461.4L137.5,461.4z"/>
	<path class="st2" d="M135.2,454.9c0,0-0.1,0-0.1,0c-0.1,0-0.2-0.1-0.2-0.3c-0.1-0.4-0.2-0.8-0.5-1.1c-0.1-0.1-0.2-0.2-0.2-0.3
		s-0.2-0.2-0.3-0.2c-0.4-0.2-0.8-0.4-1.2-0.5c-0.1,0-0.2-0.1-0.3-0.2c-0.1-0.1,0-0.2,0-0.4c0.5-0.6,1-1.2,1.4-1.7
		c2-2.1,3.7-2.2,4.5-1.5s0.6,2.4-1.3,4.6c-0.4,0.5-1,1-1.6,1.5C135.4,454.9,135.3,454.9,135.2,454.9L135.2,454.9z M133.3,451.9
		c0.3,0.1,0.6,0.3,0.9,0.5c0.1,0.1,0.2,0.2,0.4,0.3c0.1,0.1,0.2,0.2,0.3,0.3c0.2,0.3,0.4,0.6,0.5,0.9c0.4-0.4,0.8-0.7,1.1-1.1l0,0
		c1.5-1.7,1.8-3.1,1.3-3.6c-0.5-0.5-1.9-0.1-3.5,1.5C134,451.1,133.6,451.5,133.3,451.9L133.3,451.9L133.3,451.9z"/>
	<path class="st0" d="M134.4,452.9c0.1,0.1,0.2,0.2,0.3,0.3c0.3,0.4,0.5,0.8,0.6,1.3c0.1,0.3,0.1,0.5,0,0.8l0,0
		c-0.1,0.5-0.2,0.9-0.5,1.3c-0.1,0.1-0.2,0.2-0.3,0.3c-0.1,0.1-0.2,0.2-0.3,0.3c-0.4,0.3-0.8,0.5-1.3,0.6l0,0c-0.3,0-0.6,0.1-0.8,0
		c-0.5,0-0.9-0.2-1.3-0.5c-0.1-0.1-0.2-0.2-0.3-0.3s-0.2-0.2-0.3-0.3c-0.3-0.4-0.5-0.8-0.6-1.3c-0.1-0.3-0.1-0.5,0-0.8
		c0.1-0.5,0.2-0.9,0.5-1.3c0.1-0.1,0.2-0.2,0.3-0.3c0.1-0.1,0.2-0.2,0.3-0.3c0.4-0.3,0.8-0.5,1.3-0.6c0.3,0,0.6-0.1,0.8,0
		c0.5,0,0.9,0.2,1.3,0.5C134.1,452.7,134.2,452.8,134.4,452.9L134.4,452.9z"/>
	<path class="st2" d="M132.4,458.3c-0.1,0-0.2,0-0.4,0c-0.5-0.1-1.1-0.3-1.5-0.6c-0.1-0.1-0.2-0.2-0.4-0.3c-0.1-0.1-0.2-0.2-0.3-0.3
		c-0.3-0.4-0.6-0.9-0.7-1.5c-0.1-0.3-0.1-0.6,0-0.9c0.1-0.5,0.3-1.1,0.6-1.5c0.1-0.1,0.2-0.2,0.3-0.4c0.1-0.1,0.2-0.2,0.3-0.3
		c0.4-0.3,0.9-0.6,1.5-0.7c0.3-0.1,0.6-0.1,0.9,0c0.5,0.1,1.1,0.3,1.5,0.6c0.1,0.1,0.2,0.2,0.4,0.3l0,0c0.1,0.1,0.2,0.2,0.3,0.3
		c0.3,0.4,0.6,0.9,0.7,1.5c0.1,0.3,0.1,0.6,0,0.9v0c-0.1,0.5-0.3,1.1-0.6,1.5c-0.1,0.1-0.2,0.2-0.3,0.4c-0.1,0.1-0.2,0.2-0.3,0.3
		c-0.4,0.3-0.9,0.6-1.5,0.7h0C132.7,458.3,132.5,458.3,132.4,458.3L132.4,458.3L132.4,458.3z M132.4,452.5c-0.1,0-0.3,0-0.4,0
		c-0.4,0.1-0.8,0.2-1.1,0.5c-0.1,0.1-0.2,0.2-0.3,0.2c-0.1,0.1-0.2,0.2-0.2,0.3c-0.2,0.4-0.4,0.8-0.4,1.2c0,0.2,0,0.5,0,0.7
		c0.1,0.4,0.2,0.8,0.5,1.1c0.1,0.1,0.2,0.2,0.2,0.3c0.1,0.1,0.2,0.2,0.3,0.2c0.4,0.2,0.8,0.4,1.2,0.5c0.2,0,0.5,0,0.7,0h0.1
		c0.4-0.1,0.8-0.2,1.1-0.5c0.1-0.1,0.2-0.2,0.3-0.2c0.1-0.1,0.2-0.2,0.2-0.3c0.2-0.3,0.4-0.7,0.4-1.1v0c0-0.2,0-0.5,0-0.7
		c-0.1-0.4-0.2-0.8-0.5-1.1c-0.1-0.1-0.2-0.2-0.2-0.3s-0.2-0.2-0.3-0.2c-0.4-0.2-0.8-0.4-1.2-0.5
		C132.6,452.5,132.5,452.5,132.4,452.5L132.4,452.5L132.4,452.5z"/>
	<path class="st2" d="M169,511.3c-1,0-2.1-1.3-2.3-4.1c0-0.1,0-0.2,0.1-0.3c0.4-0.4,0.9-1,1.4-1.6c0.1-0.1,0.2-0.2,0.3-0.1
		c0.2,0,0.5,0,0.7,0c0.1,0,0.2,0,0.3,0.1c0,0,0,0,0,0c0.5,0.6,1,1.1,1.4,1.5c0.1,0.1,0.1,0.2,0.1,0.3
		C171.1,510,170.1,511.3,169,511.3L169,511.3L169,511.3L169,511.3z M167.4,507.3c0.2,2.2,0.9,3.3,1.6,3.3c0.7,0,1.4-1.2,1.4-3.4
		c-0.4-0.4-0.8-0.8-1.3-1.3c-0.2,0-0.4,0-0.5,0C168.2,506.4,167.8,506.9,167.4,507.3L167.4,507.3L167.4,507.3z"/>
	<path class="st2" d="M164.3,505c-2.9,0-4.2-1-4.2-2.1c0-1,1.2-2.2,4.1-2.3c0.1,0,0.2,0,0.3,0.1c0.4,0.4,1,0.9,1.6,1.4
		c0.1,0.1,0.2,0.2,0.1,0.3c0,0.2,0,0.5,0,0.7c0,0.1,0,0.3-0.1,0.3c-0.6,0.5-1.1,1-1.5,1.4C164.6,505,164.5,505,164.3,505L164.3,505
		L164.3,505z M164.1,501.3c-2.2,0.2-3.3,0.9-3.3,1.6c0,0.7,1.2,1.4,3.4,1.4c0.4-0.4,0.8-0.8,1.3-1.3c0-0.2,0-0.4,0-0.5
		C165,502.1,164.5,501.7,164.1,501.3L164.1,501.3z"/>
	<path class="st2" d="M168.3,500.1c-0.1,0-0.2,0-0.3-0.1c-0.2-0.3-0.4-0.5-0.7-0.8c-0.1-0.1-0.1-0.4,0-0.5s0.4-0.1,0.5,0
		c0.2,0.2,0.4,0.4,0.6,0.6c0.2,0,0.4,0,0.5,0c0.4-0.5,0.8-1,1.2-1.4c-0.2-2.2-0.9-3.3-1.6-3.3c-0.7,0-1.4,1.3-1.4,3.5
		c0,0.2-0.2,0.4-0.4,0.4l0,0c-0.2,0-0.4-0.2-0.4-0.4c0-2.9,1-4.2,2.1-4.3c1.1,0,2.2,1.2,2.3,4.1c0,0.1,0,0.2-0.1,0.3
		c-0.4,0.4-0.9,1-1.4,1.6c-0.1,0.1-0.2,0.2-0.3,0.1C168.8,500.1,168.6,500.1,168.3,500.1L168.3,500.1L168.3,500.1z"/>
	<path class="st2" d="M173.3,504.7c-0.1,0-0.2,0-0.3-0.1c-0.4-0.4-1-0.9-1.6-1.4c-0.1-0.1-0.2-0.2-0.1-0.3c0-0.2,0-0.5,0-0.7
		c0-0.1,0-0.3,0.1-0.3c0.6-0.5,1.1-1,1.5-1.4c0.1-0.1,0.2-0.1,0.3-0.1c2.9,0,4.2,1,4.2,2.1S176.2,504.6,173.3,504.7L173.3,504.7
		L173.3,504.7L173.3,504.7z M172,502.8c0.5,0.4,1,0.8,1.4,1.2c2.2-0.2,3.3-0.9,3.3-1.6c0-0.7-1.2-1.4-3.4-1.4
		c-0.4,0.4-0.8,0.8-1.3,1.3C172,502.5,172,502.6,172,502.8L172,502.8z"/>
	<path class="st2" d="M163.9,509.3c-0.4,0-0.7-0.1-0.9-0.3c-0.6-0.5-0.9-1.5,0.1-3.2c0.1-0.2,0.3-0.2,0.5-0.1
		c0.2,0.1,0.2,0.3,0.1,0.5c-0.7,1.2-0.7,2-0.3,2.3c0.5,0.4,1.9,0,3.4-1.6c0.3-0.3,0.7-0.7,1-1.1c-0.3-0.1-0.6-0.3-0.9-0.5
		c-0.1-0.1-0.2-0.2-0.4-0.3c-0.1-0.1-0.2-0.2-0.3-0.3c-0.2-0.3-0.4-0.6-0.5-0.9c-0.3,0.3-0.6,0.6-0.9,0.9c-0.1,0.1-0.4,0.1-0.5,0
		c-0.1-0.1-0.1-0.4,0-0.5c0.4-0.4,0.9-0.9,1.4-1.3c0.1-0.1,0.2-0.1,0.4-0.1c0.1,0,0.2,0.1,0.2,0.3c0.1,0.4,0.2,0.8,0.5,1.1
		c0.1,0.1,0.2,0.2,0.2,0.3c0.1,0.1,0.2,0.2,0.3,0.2c0.3,0.2,0.8,0.4,1.2,0.5c0.1,0,0.2,0.1,0.3,0.2c0.1,0.1,0,0.2,0,0.4
		c-0.5,0.6-1,1.2-1.4,1.7C165.9,508.9,164.7,509.3,163.9,509.3L163.9,509.3L163.9,509.3z"/>
	<path class="st2" d="M165.9,502.7c-0.1,0-0.1,0-0.2-0.1c-0.6-0.5-1.2-1-1.7-1.4c-2-2-2.2-3.7-1.6-4.5c0.6-0.6,2-0.8,4.1,0.9
		c0.2,0.1,0.2,0.4,0.1,0.5c-0.1,0.2-0.4,0.2-0.5,0.1c-1.5-1.2-2.8-1.4-3.2-1c-0.5,0.5-0.1,1.9,1.5,3.5c0.3,0.3,0.7,0.7,1.1,1
		c0.1-0.3,0.3-0.6,0.5-0.9c0.1-0.1,0.2-0.2,0.3-0.4c0.1-0.1,0.2-0.2,0.3-0.3c0.3-0.2,0.6-0.4,0.9-0.5c-0.1-0.1-0.2-0.2-0.3-0.3
		c-0.1-0.1-0.1-0.4,0-0.5s0.4-0.1,0.5,0c0.2,0.2,0.5,0.5,0.7,0.8c0.1,0.1,0.1,0.2,0.1,0.4c0,0.1-0.1,0.2-0.3,0.2
		c-0.4,0.1-0.8,0.2-1.1,0.5c-0.1,0.1-0.2,0.2-0.3,0.2c-0.1,0.1-0.2,0.2-0.2,0.3c-0.2,0.4-0.4,0.8-0.4,1.2c0,0.1-0.1,0.2-0.2,0.3
		C166,502.7,165.9,502.7,165.9,502.7L165.9,502.7L165.9,502.7z"/>
	<path class="st2" d="M173.9,509c-0.6,0-1.4-0.2-2.4-0.9c-0.2-0.1-0.2-0.3-0.1-0.5c0.1-0.2,0.3-0.2,0.5-0.1c1.3,0.9,2.3,0.9,2.6,0.5
		c0.4-0.5,0-1.9-1.6-3.5c-0.3-0.3-0.7-0.7-1.1-1c-0.1,0.3-0.3,0.6-0.5,0.9c-0.1,0.1-0.2,0.2-0.3,0.4c-0.1,0.1-0.2,0.2-0.3,0.3
		c-0.3,0.2-0.6,0.4-0.9,0.5c0.3,0.3,0.5,0.6,0.8,0.8c0.1,0.1,0.1,0.4,0,0.5s-0.4,0.1-0.5,0c-0.4-0.4-0.8-0.8-1.2-1.3
		c-0.1-0.1-0.1-0.2-0.1-0.4c0-0.1,0.1-0.2,0.3-0.2c0.4-0.1,0.8-0.2,1.1-0.5c0.1-0.1,0.2-0.2,0.3-0.2c0.1-0.1,0.2-0.2,0.2-0.3
		c0.2-0.4,0.4-0.8,0.4-1.2c0-0.1,0.1-0.2,0.2-0.3c0.1,0,0.2,0,0.4,0c0.6,0.5,1.2,1,1.7,1.4c2.1,2.1,2.2,3.7,1.6,4.4
		C174.9,508.8,174.5,509,173.9,509L173.9,509L173.9,509z"/>
	<path class="st2" d="M171.6,502.5c0,0-0.1,0-0.1,0c-0.1,0-0.2-0.1-0.2-0.3c-0.1-0.4-0.2-0.8-0.5-1.1c-0.1-0.1-0.2-0.2-0.2-0.3
		s-0.2-0.2-0.3-0.2c-0.4-0.2-0.8-0.4-1.2-0.5c-0.1,0-0.2-0.1-0.3-0.2c-0.1-0.1,0-0.2,0-0.4c0.5-0.6,1-1.2,1.4-1.7
		c2-2.1,3.7-2.2,4.5-1.5s0.6,2.4-1.3,4.6c-0.4,0.5-1,1-1.6,1.5C171.8,502.5,171.7,502.5,171.6,502.5L171.6,502.5L171.6,502.5z
		 M169.7,499.5c0.3,0.1,0.6,0.3,0.9,0.5c0.1,0.1,0.2,0.2,0.4,0.3s0.2,0.2,0.3,0.3c0.2,0.3,0.4,0.6,0.5,0.9c0.4-0.4,0.8-0.7,1.1-1.1
		l0,0c1.5-1.7,1.8-3.1,1.3-3.6c-0.5-0.5-1.9-0.1-3.5,1.5C170.4,498.7,170,499.1,169.7,499.5L169.7,499.5L169.7,499.5z"/>
	<path class="st0" d="M170.8,500.5c0.1,0.1,0.2,0.2,0.3,0.3c0.3,0.4,0.5,0.8,0.6,1.3c0.1,0.3,0.1,0.5,0,0.8l0,0
		c-0.1,0.5-0.2,0.9-0.5,1.3c-0.1,0.1-0.2,0.2-0.3,0.3c-0.1,0.1-0.2,0.2-0.3,0.3c-0.4,0.3-0.8,0.5-1.3,0.6l0,0c-0.3,0-0.6,0.1-0.8,0
		c-0.5,0-0.9-0.2-1.3-0.5c-0.1-0.1-0.2-0.2-0.3-0.3s-0.2-0.2-0.3-0.3c-0.3-0.4-0.5-0.8-0.6-1.3c-0.1-0.3-0.1-0.5,0-0.8
		c0.1-0.5,0.2-0.9,0.5-1.3c0.1-0.1,0.2-0.2,0.3-0.3c0.1-0.1,0.2-0.2,0.3-0.3c0.4-0.3,0.8-0.5,1.3-0.6c0.3,0,0.6-0.1,0.8,0
		c0.5,0,0.9,0.2,1.3,0.5C170.5,500.3,170.7,500.4,170.8,500.5L170.8,500.5z"/>
	<path class="st2" d="M168.8,505.9c-0.1,0-0.2,0-0.4,0c-0.5-0.1-1.1-0.3-1.5-0.6c-0.1-0.1-0.2-0.2-0.4-0.3c-0.1-0.1-0.2-0.2-0.3-0.3
		c-0.3-0.4-0.6-0.9-0.7-1.5c-0.1-0.3-0.1-0.6,0-0.9c0.1-0.5,0.3-1.1,0.6-1.5c0.1-0.1,0.2-0.2,0.3-0.4c0.1-0.1,0.2-0.2,0.3-0.3
		c0.4-0.3,0.9-0.6,1.5-0.7c0.3-0.1,0.6-0.1,0.9,0c0.5,0.1,1.1,0.3,1.5,0.6c0.1,0.1,0.2,0.2,0.4,0.3l0,0c0.1,0.1,0.2,0.2,0.3,0.3
		c0.3,0.4,0.6,0.9,0.7,1.5c0.1,0.3,0.1,0.6,0,0.9v0c-0.1,0.5-0.3,1.1-0.6,1.5c-0.1,0.1-0.2,0.2-0.3,0.4c-0.1,0.1-0.2,0.2-0.3,0.3
		c-0.4,0.3-0.9,0.6-1.5,0.7h0C169.1,505.9,169,505.9,168.8,505.9L168.8,505.9L168.8,505.9z M168.8,500.1c-0.1,0-0.3,0-0.4,0
		c-0.4,0.1-0.8,0.2-1.1,0.5c-0.1,0.1-0.2,0.2-0.3,0.2c-0.1,0.1-0.2,0.2-0.2,0.3c-0.2,0.4-0.4,0.8-0.4,1.2c0,0.2,0,0.5,0,0.7
		c0.1,0.4,0.2,0.8,0.5,1.1c0.1,0.1,0.2,0.2,0.2,0.3c0.1,0.1,0.2,0.2,0.3,0.2c0.3,0.2,0.8,0.4,1.2,0.5c0.2,0,0.5,0,0.7,0h0.1
		c0.4-0.1,0.8-0.2,1.1-0.5c0.1-0.1,0.2-0.2,0.3-0.2c0.1-0.1,0.2-0.2,0.2-0.3c0.2-0.3,0.4-0.7,0.4-1.1v0c0-0.2,0-0.5,0-0.7
		c-0.1-0.4-0.2-0.8-0.5-1.1c-0.1-0.1-0.2-0.2-0.2-0.3c-0.1-0.1-0.2-0.2-0.3-0.2c-0.4-0.2-0.8-0.4-1.2-0.5
		C169,500.1,168.9,500.1,168.8,500.1L168.8,500.1L168.8,500.1z"/>
	<path class="st2" d="M199.6,471.9c-1,0-2.1-1.3-2.3-4.1c0-0.1,0-0.2,0.1-0.3c0.4-0.4,0.9-1,1.4-1.6c0.1-0.1,0.2-0.2,0.3-0.1
		c0.2,0,0.5,0,0.7,0c0.1,0,0.2,0,0.3,0.1c0,0,0,0,0.1,0.1c0.5,0.6,1,1.1,1.4,1.5c0.1,0.1,0.1,0.2,0.1,0.3
		C201.7,470.6,200.7,471.9,199.6,471.9L199.6,471.9L199.6,471.9L199.6,471.9z M198,467.9c0.2,2.2,0.9,3.3,1.6,3.3
		c0.7,0,1.4-1.2,1.4-3.4c-0.4-0.4-0.8-0.8-1.3-1.3c-0.2,0-0.3,0-0.5,0C198.8,467.1,198.4,467.5,198,467.9L198,467.9L198,467.9z"/>
	<path class="st2" d="M195,465.6c-2.9,0-4.2-1-4.2-2.1c0-1,1.2-2.2,4.1-2.3c0.1,0,0.2,0,0.3,0.1c0.4,0.4,1,0.9,1.6,1.4
		c0.1,0.1,0.2,0.2,0.1,0.3c0,0.2,0,0.5,0,0.7c0,0.1,0,0.3-0.1,0.3c-0.6,0.5-1.1,1-1.5,1.4C195.2,465.6,195.1,465.6,195,465.6
		L195,465.6L195,465.6z M194.7,461.9c-2.2,0.2-3.3,0.9-3.3,1.6c0,0.7,1.2,1.4,3.4,1.4c0.4-0.4,0.8-0.8,1.3-1.3c0-0.2,0-0.4,0-0.5
		C195.6,462.7,195.1,462.3,194.7,461.9L194.7,461.9L194.7,461.9z"/>
	<path class="st2" d="M198.9,460.8c-0.1,0-0.2,0-0.3-0.1c-0.2-0.3-0.4-0.5-0.7-0.8c-0.1-0.1-0.1-0.4,0-0.5s0.4-0.1,0.5,0
		c0.2,0.2,0.4,0.4,0.6,0.6c0.2,0,0.4,0,0.5,0c0.4-0.5,0.8-1,1.2-1.4c-0.2-2.2-0.9-3.3-1.6-3.3c-0.7,0-1.4,1.3-1.4,3.5
		c0,0.2-0.2,0.4-0.4,0.4l0,0c-0.2,0-0.4-0.2-0.4-0.4c0-2.9,1-4.2,2.1-4.3c1.1,0,2.2,1.2,2.3,4.1c0,0.1,0,0.2-0.1,0.3
		c-0.4,0.4-0.9,1-1.4,1.6c-0.1,0.1-0.2,0.2-0.3,0.1C199.4,460.7,199.2,460.7,198.9,460.8L198.9,460.8L198.9,460.8z"/>
	<path class="st2" d="M203.9,465.4c-0.1,0-0.2,0-0.3-0.1c-0.4-0.4-1-0.9-1.6-1.4c-0.1-0.1-0.2-0.2-0.1-0.3c0-0.2,0-0.5,0-0.7
		c0-0.1,0-0.3,0.1-0.3c0.6-0.5,1.1-1,1.5-1.4c0.1-0.1,0.2-0.1,0.3-0.1c2.9,0,4.2,1,4.2,2.1C208.1,464.1,206.8,465.2,203.9,465.4
		L203.9,465.4L203.9,465.4L203.9,465.4z M202.7,463.4c0.5,0.4,1,0.8,1.4,1.2c2.2-0.2,3.3-0.9,3.3-1.6c0-0.7-1.2-1.4-3.4-1.4
		c-0.4,0.4-0.8,0.8-1.3,1.3C202.7,463.1,202.7,463.3,202.7,463.4L202.7,463.4L202.7,463.4z"/>
	<path class="st2" d="M194.5,470c-0.4,0-0.7-0.1-0.9-0.3c-0.6-0.5-0.9-1.5,0.1-3.2c0.1-0.2,0.3-0.2,0.5-0.1s0.2,0.3,0.1,0.5
		c-0.7,1.2-0.7,2-0.3,2.3c0.5,0.4,1.9,0,3.4-1.6c0.3-0.3,0.7-0.7,1-1.1c-0.3-0.1-0.6-0.3-0.9-0.5c-0.1-0.1-0.2-0.2-0.4-0.3
		c-0.1-0.1-0.2-0.2-0.3-0.3c-0.2-0.3-0.4-0.6-0.5-0.9c-0.3,0.3-0.6,0.6-0.9,0.9c-0.1,0.1-0.4,0.1-0.5,0c-0.1-0.1-0.1-0.4,0-0.5
		c0.4-0.4,0.9-0.9,1.4-1.3c0.1-0.1,0.2-0.1,0.4-0.1c0.1,0,0.2,0.1,0.2,0.3c0.1,0.4,0.2,0.8,0.5,1.1c0.1,0.1,0.2,0.2,0.2,0.3
		c0.1,0.1,0.2,0.2,0.3,0.2c0.4,0.2,0.8,0.4,1.2,0.5c0.1,0,0.2,0.1,0.3,0.2c0.1,0.1,0,0.2,0,0.4c-0.5,0.6-1,1.2-1.4,1.7
		C196.5,469.5,195.3,470,194.5,470L194.5,470L194.5,470z"/>
	<path class="st2" d="M196.5,463.3c-0.1,0-0.1,0-0.2-0.1c-0.6-0.5-1.2-1-1.7-1.4c-2-2-2.2-3.7-1.6-4.5c0.6-0.6,2-0.8,4.1,0.9
		c0.2,0.1,0.2,0.4,0.1,0.5s-0.4,0.2-0.5,0.1c-1.5-1.2-2.8-1.4-3.2-1c-0.5,0.5-0.1,1.9,1.5,3.5c0.3,0.3,0.7,0.7,1.1,1
		c0.1-0.3,0.3-0.6,0.5-0.9c0.1-0.1,0.2-0.2,0.3-0.4c0.1-0.1,0.2-0.2,0.3-0.3c0.3-0.2,0.6-0.4,0.9-0.5c-0.1-0.1-0.2-0.2-0.3-0.3
		c-0.1-0.1-0.1-0.4,0-0.5s0.4-0.1,0.5,0c0.2,0.2,0.5,0.5,0.7,0.8c0.1,0.1,0.1,0.2,0.1,0.4c0,0.1-0.1,0.2-0.3,0.2
		c-0.4,0.1-0.8,0.2-1.1,0.5c-0.1,0.1-0.2,0.2-0.3,0.2c-0.1,0.1-0.2,0.2-0.2,0.3c-0.2,0.4-0.4,0.8-0.4,1.2c0,0.1-0.1,0.2-0.2,0.3
		C196.6,463.3,196.6,463.3,196.5,463.3L196.5,463.3L196.5,463.3z"/>
	<path class="st2" d="M204.6,469.7c-0.6,0-1.4-0.2-2.4-0.9c-0.2-0.1-0.2-0.3-0.1-0.5c0.1-0.2,0.3-0.2,0.5-0.1
		c1.3,0.9,2.3,0.9,2.6,0.5c0.4-0.5,0-1.9-1.6-3.5c-0.3-0.3-0.7-0.7-1.1-1c-0.1,0.3-0.3,0.6-0.5,0.9c-0.1,0.1-0.2,0.2-0.3,0.4
		c-0.1,0.1-0.2,0.2-0.3,0.3c-0.3,0.2-0.6,0.4-0.9,0.5c0.3,0.3,0.5,0.6,0.8,0.8c0.1,0.1,0.1,0.4,0,0.5s-0.4,0.1-0.5,0
		c-0.4-0.4-0.8-0.8-1.2-1.3c-0.1-0.1-0.1-0.2-0.1-0.4c0-0.1,0.1-0.2,0.3-0.2c0.4-0.1,0.8-0.2,1.1-0.5c0.1-0.1,0.2-0.2,0.3-0.2
		c0.1-0.1,0.2-0.2,0.2-0.3c0.2-0.4,0.4-0.8,0.4-1.2c0-0.1,0.1-0.2,0.2-0.3c0.1,0,0.2,0,0.4,0c0.6,0.5,1.2,1,1.7,1.4
		c2.1,2.1,2.2,3.7,1.6,4.4C205.5,469.5,205.1,469.7,204.6,469.7L204.6,469.7L204.6,469.7z"/>
	<path class="st2" d="M202.2,463.1c0,0-0.1,0-0.1,0c-0.1,0-0.2-0.1-0.2-0.3c-0.1-0.4-0.2-0.8-0.5-1.1c-0.1-0.1-0.2-0.2-0.2-0.3
		c-0.1-0.1-0.2-0.2-0.3-0.2c-0.4-0.2-0.8-0.4-1.2-0.5c-0.1,0-0.2-0.1-0.3-0.2c-0.1-0.1,0-0.2,0-0.4c0.5-0.6,1-1.2,1.4-1.7
		c2-2.1,3.7-2.2,4.5-1.5s0.6,2.4-1.3,4.6c-0.4,0.5-1,1-1.6,1.5C202.4,463.1,202.3,463.1,202.2,463.1L202.2,463.1L202.2,463.1z
		 M200.3,460.2c0.3,0.1,0.6,0.3,0.9,0.5c0.1,0.1,0.2,0.2,0.4,0.3c0.1,0.1,0.2,0.2,0.3,0.3c0.2,0.3,0.4,0.6,0.5,0.9
		c0.4-0.4,0.8-0.7,1.1-1.1l0,0c1.5-1.7,1.8-3.1,1.3-3.6c-0.5-0.5-1.9-0.1-3.5,1.5C201,459.4,200.7,459.7,200.3,460.2L200.3,460.2
		L200.3,460.2z"/>
	<path class="st0" d="M201.4,461.2c0.1,0.1,0.2,0.2,0.3,0.3c0.3,0.4,0.5,0.8,0.6,1.3c0.1,0.3,0.1,0.5,0,0.8l0,0
		c-0.1,0.5-0.2,0.9-0.5,1.3c-0.1,0.1-0.2,0.2-0.3,0.3c-0.1,0.1-0.2,0.2-0.3,0.3c-0.4,0.3-0.8,0.5-1.3,0.6l0,0c-0.3,0-0.6,0.1-0.8,0
		c-0.5,0-0.9-0.2-1.3-0.5c-0.1-0.1-0.2-0.2-0.3-0.3s-0.2-0.2-0.3-0.3c-0.3-0.4-0.5-0.8-0.6-1.3c-0.1-0.3-0.1-0.5,0-0.8
		c0.1-0.5,0.2-0.9,0.5-1.3c0.1-0.1,0.2-0.2,0.3-0.3c0.1-0.1,0.2-0.2,0.3-0.3c0.4-0.3,0.8-0.5,1.3-0.6c0.3,0,0.6-0.1,0.8,0
		c0.5,0,0.9,0.2,1.3,0.5C201.2,461,201.3,461.1,201.4,461.2L201.4,461.2z"/>
	<path class="st2" d="M199.4,466.5c-0.1,0-0.2,0-0.4,0c-0.5-0.1-1.1-0.3-1.5-0.6c-0.1-0.1-0.2-0.2-0.4-0.3c-0.1-0.1-0.2-0.2-0.3-0.3
		c-0.3-0.4-0.6-0.9-0.7-1.5c-0.1-0.3-0.1-0.6,0-0.9c0.1-0.5,0.3-1.1,0.6-1.5c0.1-0.1,0.2-0.2,0.3-0.4c0.1-0.1,0.2-0.2,0.3-0.3
		c0.4-0.3,0.9-0.6,1.5-0.7c0.3-0.1,0.6-0.1,0.9,0c0.5,0.1,1.1,0.3,1.5,0.6c0.1,0.1,0.2,0.2,0.4,0.3l0,0c0.1,0.1,0.2,0.2,0.3,0.3
		c0.3,0.4,0.6,0.9,0.7,1.5c0.1,0.3,0.1,0.6,0,0.9v0c-0.1,0.5-0.3,1.1-0.6,1.5c-0.1,0.1-0.2,0.2-0.3,0.4c-0.1,0.1-0.2,0.2-0.3,0.3
		c-0.4,0.3-0.9,0.6-1.5,0.7h0C199.7,466.5,199.6,466.5,199.4,466.5L199.4,466.5L199.4,466.5z M199.4,460.7c-0.1,0-0.3,0-0.4,0
		c-0.4,0.1-0.8,0.2-1.1,0.5c-0.1,0.1-0.2,0.2-0.3,0.2c-0.1,0.1-0.2,0.2-0.2,0.3c-0.2,0.4-0.4,0.8-0.4,1.2c0,0.2,0,0.5,0,0.7
		c0.1,0.4,0.2,0.8,0.5,1.1c0.1,0.1,0.2,0.2,0.2,0.3c0.1,0.1,0.2,0.2,0.3,0.2c0.4,0.2,0.8,0.4,1.2,0.5c0.2,0,0.5,0,0.7,0h0.1
		c0.4-0.1,0.8-0.2,1.1-0.5c0.1-0.1,0.2-0.2,0.3-0.2c0.1-0.1,0.2-0.2,0.2-0.3c0.2-0.3,0.4-0.7,0.4-1.1v0c0-0.2,0-0.5,0-0.7
		c-0.1-0.4-0.2-0.8-0.5-1.1c-0.1-0.1-0.2-0.2-0.2-0.3l0,0c-0.1-0.1-0.2-0.2-0.3-0.2c-0.4-0.2-0.8-0.4-1.2-0.5
		C199.6,460.8,199.5,460.8,199.4,460.7L199.4,460.7L199.4,460.7z"/>
	<path class="st2" d="M219.1,492.7c-2.8-1.9-4.9,2.2-4.9,2.2s-2.4-4-5.1-2.2s-0.8,5.4,0.8,6.8c1.5,1.4,4.7,3.7,4.7,3.7
		s2.3-2.4,3.8-3.7S221.9,494.5,219.1,492.7L219.1,492.7L219.1,492.7z"/>
	<path class="st2" d="M214.5,503.5c-0.1,0-0.1,0-0.2-0.1c-0.1-0.1-3.2-2.4-4.8-3.7c-1-0.9-2.4-2.8-2.2-4.8c0.1-1.1,0.6-1.9,1.5-2.5
		c0.7-0.5,1.5-0.7,2.3-0.5c1.4,0.3,2.5,1.6,3,2.3c0.5-0.7,1.5-2,2.8-2.3c0.8-0.2,1.6,0,2.3,0.5c0.9,0.6,1.4,1.5,1.5,2.5
		c0.1,1.9-1.3,3.9-2.2,4.8c-1.5,1.3-3.8,3.7-3.8,3.7C214.7,503.5,214.6,503.5,214.5,503.5L214.5,503.5L214.5,503.5z M210.5,492.5
		c-0.4,0-0.9,0.1-1.3,0.4c-0.8,0.5-1.1,1.2-1.2,2c-0.1,1.5,1,3.3,2,4.2c1.2,1.1,3.7,2.9,4.5,3.5c0.6-0.6,2.4-2.4,3.6-3.5
		c1.1-0.9,2.1-2.7,2-4.2c-0.1-0.8-0.5-1.5-1.2-2c-0.6-0.4-1.2-0.5-1.8-0.4c-1.5,0.4-2.6,2.4-2.7,2.4c-0.1,0.1-0.2,0.2-0.3,0.2
		s-0.2-0.1-0.3-0.2c0,0-1.3-2.1-2.9-2.4C210.8,492.5,210.7,492.5,210.5,492.5L210.5,492.5L210.5,492.5z"/>
	<path class="st2" d="M88.2,399.6c-1.9-1.3-3.4,1.5-3.4,1.5s-1.7-2.8-3.6-1.5c-1.9,1.3-0.5,3.8,0.5,4.7c1.1,0.9,3.3,2.6,3.3,2.6
		s1.6-1.6,2.7-2.6C88.8,403.4,90.2,400.9,88.2,399.6L88.2,399.6z"/>
	<path class="st2" d="M85.1,407.2c-0.1,0-0.2,0-0.2-0.1c-0.1-0.1-2.2-1.7-3.3-2.6c-0.7-0.6-1.7-2-1.6-3.4c0.1-0.8,0.4-1.4,1.1-1.9
		c0.5-0.4,1.1-0.5,1.7-0.4c0.9,0.2,1.7,1,2.1,1.5c0.4-0.5,1.1-1.3,1.9-1.5c0.6-0.1,1.2,0,1.7,0.3c0.7,0.5,1.1,1.1,1.1,1.9
		c0.1,1.4-0.9,2.8-1.6,3.4c-1,0.9-2.6,2.5-2.6,2.6C85.3,407.2,85.2,407.2,85.1,407.2L85.1,407.2L85.1,407.2z M82.3,399.6
		c-0.3,0-0.6,0.1-0.8,0.3c-0.5,0.3-0.8,0.8-0.8,1.3c-0.1,1,0.7,2.2,1.4,2.8c0.8,0.7,2.4,1.9,3,2.4c0.5-0.5,1.6-1.6,2.4-2.4
		c0.7-0.6,1.4-1.8,1.4-2.8c0-0.5-0.3-1-0.8-1.3l0,0c-0.4-0.3-0.8-0.3-1.1-0.2c-1,0.2-1.8,1.6-1.8,1.6c-0.1,0.1-0.2,0.2-0.3,0.2
		c-0.1,0-0.2-0.1-0.3-0.2c0,0-0.8-1.4-1.9-1.6C82.5,399.6,82.4,399.6,82.3,399.6L82.3,399.6L82.3,399.6z"/>
	<path class="st0" d="M172.3,409.3c-2.8-1.9-4.9,2.2-4.9,2.2s-2.4-4-5.1-2.2s-0.8,5.4,0.8,6.8c1.5,1.4,4.7,3.7,4.7,3.7
		s2.3-2.4,3.8-3.7S175.1,411.2,172.3,409.3L172.3,409.3L172.3,409.3z"/>
	<path class="st2" d="M167.7,420.1c-0.1,0-0.1,0-0.2-0.1c-0.1-0.1-3.2-2.4-4.8-3.7c-1-0.9-2.4-2.8-2.2-4.8c0.1-1.1,0.6-1.9,1.5-2.5
		c0.7-0.5,1.5-0.7,2.3-0.5c1.4,0.3,2.5,1.6,3,2.3c0.5-0.7,1.5-2,2.8-2.3c0.8-0.2,1.6,0,2.3,0.5c0.9,0.6,1.4,1.5,1.5,2.5
		c0.1,1.9-1.3,3.9-2.2,4.8c-1.5,1.3-3.8,3.7-3.8,3.7C167.9,420.1,167.8,420.1,167.7,420.1L167.7,420.1L167.7,420.1z M163.7,409.2
		c-0.4,0-0.9,0.1-1.3,0.4c-0.8,0.5-1.1,1.2-1.2,2c-0.1,1.5,1,3.3,2,4.2c1.2,1.1,3.7,2.9,4.5,3.5c0.6-0.6,2.4-2.4,3.6-3.5
		c1.1-0.9,2.1-2.7,2-4.2c-0.1-0.8-0.5-1.5-1.2-2l0,0c-0.6-0.4-1.2-0.5-1.8-0.4c-1.5,0.4-2.6,2.4-2.7,2.4c-0.1,0.1-0.2,0.2-0.3,0.2
		c-0.1,0-0.2-0.1-0.3-0.2c0,0-1.3-2.1-2.9-2.4C164,409.2,163.9,409.1,163.7,409.2L163.7,409.2L163.7,409.2z"/>
	<path class="st2" d="M96.2,505.4c-2.1-1.4-3.8,1.7-3.8,1.7s-1.8-3.1-3.9-1.7s-0.6,4.1,0.6,5.2s3.6,2.8,3.6,2.8s1.8-1.8,2.9-2.8
		C96.8,509.5,98.3,506.8,96.2,505.4L96.2,505.4L96.2,505.4z"/>
	<path class="st2" d="M92.7,513.8c-0.1,0-0.2,0-0.2-0.1c-0.1-0.1-2.5-1.8-3.7-2.9c-0.8-0.7-1.8-2.2-1.8-3.7c0.1-0.8,0.5-1.5,1.2-2
		c0.6-0.4,1.2-0.5,1.8-0.4c1,0.2,1.9,1.1,2.3,1.7c0.4-0.6,1.2-1.4,2.1-1.7c0.6-0.1,1.2,0,1.8,0.4l0,0c0.7,0.5,1.2,1.2,1.2,2
		c0.1,1.5-1,3-1.8,3.7c-1.2,1-2.9,2.8-2.9,2.8C92.9,513.7,92.8,513.8,92.7,513.8L92.7,513.8L92.7,513.8z M89.6,505.4
		c-0.3,0-0.6,0.1-0.9,0.3c-0.6,0.4-0.8,0.9-0.9,1.5c-0.1,1.1,0.7,2.4,1.5,3.1c0.9,0.8,2.7,2.2,3.3,2.6c0.5-0.5,1.8-1.8,2.7-2.6
		c0.8-0.7,1.6-2,1.5-3.1c0-0.6-0.3-1.1-0.9-1.5c-0.4-0.3-0.8-0.4-1.3-0.3c-1.1,0.3-2,1.8-2,1.8c-0.1,0.1-0.2,0.2-0.3,0.2
		c-0.1,0-0.2-0.1-0.3-0.2c0,0-0.9-1.6-2.2-1.8C89.8,505.4,89.7,505.4,89.6,505.4L89.6,505.4L89.6,505.4z"/>
	<path class="st0" d="M63.7,323.4c-2.8-1.9-4.9,2.2-4.9,2.2s-2.4-4-5.2-2.2s-0.8,5.4,0.8,6.8c1.5,1.4,4.7,3.7,4.7,3.7
		s2.3-2.4,3.8-3.7S66.4,325.3,63.7,323.4z"/>
	<path class="st2" d="M41.3,417.8c-0.1,0-0.2,0-0.2-0.1c-0.1-0.1-3.2-2.4-4.8-3.7c-1-0.9-2.4-2.8-2.2-4.8c0.1-1.1,0.6-1.9,1.5-2.5
		c0.7-0.5,1.5-0.7,2.3-0.5c1.4,0.3,2.5,1.6,3,2.3c0.5-0.7,1.5-2,2.8-2.3c0.8-0.2,1.6,0,2.3,0.5c0.9,0.6,1.5,1.5,1.5,2.5
		c0.1,1.9-1.3,3.9-2.2,4.8c-1.5,1.3-3.8,3.7-3.8,3.7C41.5,417.8,41.5,417.8,41.3,417.8L41.3,417.8L41.3,417.8z M37.3,406.9
		c-0.4,0-0.9,0.1-1.3,0.4c-0.8,0.5-1.2,1.2-1.2,2c-0.1,1.5,1,3.3,2,4.2c1.2,1.1,3.7,2.9,4.5,3.5c0.6-0.6,2.4-2.4,3.6-3.5
		c1-0.9,2.1-2.7,2-4.2c-0.1-0.8-0.5-1.5-1.2-2l0,0c-0.6-0.4-1.2-0.5-1.8-0.4c-1.5,0.4-2.7,2.4-2.7,2.4c-0.1,0.1-0.2,0.2-0.3,0.2
		c-0.2,0-0.2-0.1-0.3-0.2c0,0-1.3-2.1-2.9-2.4C37.7,406.9,37.5,406.8,37.3,406.9L37.3,406.9L37.3,406.9z"/>
	<path class="st0" d="M90.8,538.2c-2.8-1.9-4.9,2.2-4.9,2.2s-2.4-4-5.2-2.2c-2.8,1.9-0.8,5.4,0.8,6.8s4.7,3.7,4.7,3.7
		s2.3-2.4,3.8-3.7S93.5,540,90.8,538.2z"/>
	<path class="st2" d="M86.2,549c-0.1,0-0.2,0-0.2-0.1c-0.1-0.1-3.2-2.4-4.8-3.7c-1-0.9-2.4-2.8-2.2-4.8c0.1-1.1,0.6-1.9,1.5-2.5
		c0.7-0.5,1.5-0.7,2.3-0.5c1.4,0.3,2.5,1.6,3,2.3c0.5-0.7,1.5-2,2.8-2.3c0.8-0.2,1.6,0,2.3,0.5c0.9,0.6,1.4,1.5,1.5,2.5
		c0.1,1.9-1.3,3.9-2.2,4.8c-1.5,1.3-3.8,3.7-3.8,3.7C86.4,549,86.3,549,86.2,549L86.2,549L86.2,549z M82.2,538
		c-0.4,0-0.9,0.1-1.3,0.4c-0.8,0.5-1.2,1.2-1.2,2c-0.1,1.5,1,3.3,2,4.2c1.2,1.1,3.7,2.9,4.5,3.5c0.6-0.6,2.4-2.4,3.6-3.5
		c1.1-0.9,2.1-2.7,2-4.2c-0.1-0.8-0.5-1.5-1.2-2c-0.6-0.4-1.2-0.5-1.8-0.4c-1.5,0.4-2.7,2.4-2.7,2.4c-0.1,0.1-0.2,0.2-0.3,0.2
		s-0.2-0.1-0.3-0.2c0,0-1.3-2.1-2.9-2.4C82.5,538,82.3,538,82.2,538L82.2,538L82.2,538z"/>
	<polygon class="st0" points="34.5,519.9 32.5,522.9 33.8,526.3 30.3,525.3 27.5,527.6 27.4,524 24.3,522 27.7,520.8 28.6,517.2 
		30.9,520.1 	"/>
	<path class="st2" d="M27.5,528c0,0-0.1,0-0.1,0c-0.1-0.1-0.2-0.2-0.2-0.3l-0.1-3.5l-2.9-1.9c-0.1-0.1-0.2-0.2-0.2-0.3
		s0.1-0.2,0.2-0.3l3.2-1.2l0.9-3.3c0-0.1,0.1-0.2,0.3-0.3c0.1,0,0.3,0,0.4,0.1l2.1,2.7l3.4-0.2c0.1,0,0.3,0.1,0.3,0.2s0.1,0.3,0,0.4
		l-1.9,2.9l1.3,3.2c0,0.1,0,0.3-0.1,0.4s-0.2,0.1-0.4,0.1l-3.3-1l-2.7,2.2C27.7,527.9,27.6,527.9,27.5,528L27.5,528L27.5,528z
		 M25.1,522.1l2.5,1.6c0.1,0.1,0.2,0.2,0.2,0.3l0.1,2.9L30,525c0.1-0.1,0.2-0.1,0.3-0.1l2.8,0.8l-1.1-2.7c0-0.1,0-0.2,0-0.3l1.6-2.4
		l-2.9,0.2c-0.1,0-0.2,0-0.3-0.1l-1.8-2.3l-0.7,2.8c0,0.1-0.1,0.2-0.2,0.2L25.1,522.1L25.1,522.1L25.1,522.1z"/>
	<polygon class="st2" points="155.9,369.6 153.9,372.6 155.2,376 151.7,375 148.9,377.3 148.8,373.6 145.7,371.7 149.1,370.4 
		150.1,366.9 152.3,369.8 	"/>
	<path class="st2" d="M148.9,377.6c0,0-0.1,0-0.1,0c-0.1-0.1-0.2-0.2-0.2-0.3l-0.1-3.5l-2.9-1.9c-0.1-0.1-0.2-0.2-0.2-0.3
		s0.1-0.2,0.2-0.3l3.2-1.2l0.9-3.3c0-0.1,0.1-0.2,0.3-0.3c0.1,0,0.3,0,0.4,0.1l2.1,2.7l3.4-0.2c0.1,0,0.3,0.1,0.3,0.2
		c0.1,0.1,0.1,0.3,0,0.4l-1.9,2.9l1.3,3.2c0.1,0.1,0,0.3-0.1,0.4s-0.2,0.1-0.4,0.1l-3.3-1l-2.7,2.2
		C149.1,377.6,149,377.6,148.9,377.6L148.9,377.6L148.9,377.6z M146.5,371.8l2.5,1.6c0.1,0.1,0.2,0.2,0.2,0.3l0.1,2.9l2.2-1.9
		c0.1-0.1,0.2-0.1,0.3-0.1l2.8,0.8l-1.1-2.7c0-0.1,0-0.2,0-0.3l1.6-2.4l-2.9,0.2c-0.1,0-0.2,0-0.3-0.1l-1.8-2.3l-0.7,2.8
		c0,0.1-0.1,0.2-0.2,0.2L146.5,371.8L146.5,371.8L146.5,371.8z"/>
	<polygon class="st2" points="156.7,511.3 153.5,513 153.1,516.6 150.5,514.1 146.9,514.8 148.5,511.5 146.7,508.4 150.3,508.9 
		152.7,506.2 153.4,509.8 	"/>
	<path class="st2" d="M153.1,517c-0.1,0-0.2,0-0.2-0.1l-2.5-2.4l-3.4,0.7c-0.1,0-0.3,0-0.4-0.1s-0.1-0.2,0-0.4l1.5-3.1l-1.7-3
		c-0.1-0.1-0.1-0.3,0-0.4s0.2-0.2,0.3-0.2l3.4,0.5l2.3-2.5c0.1-0.1,0.2-0.1,0.4-0.1s0.2,0.1,0.2,0.3l0.6,3.4l3.1,1.4
		c0.1,0.1,0.2,0.2,0.2,0.3s-0.1,0.3-0.2,0.3l-3,1.6l-0.4,3.4C153.4,516.8,153.3,516.9,153.1,517C153.1,517,153.1,517,153.1,517
		L153.1,517L153.1,517z M150.5,513.7c0.1,0,0.2,0,0.2,0.1l2.1,2l0.3-2.9c0-0.1,0.1-0.2,0.2-0.3l2.6-1.4l-2.7-1.2
		c-0.1,0-0.2-0.1-0.2-0.3l-0.5-2.9l-2,2.2c-0.1,0.1-0.2,0.1-0.3,0.1l-2.9-0.4l1.4,2.5c0.1,0.1,0.1,0.2,0,0.3l-1.3,2.6L150.5,513.7
		C150.4,513.7,150.4,513.7,150.5,513.7L150.5,513.7L150.5,513.7z"/>
	<path class="st2" d="M103.5,322.9c-0.1,0-0.2,0-0.2-0.1l-2.5-2.4l-3.4,0.7c-0.1,0-0.3,0-0.4-0.1s-0.1-0.2,0-0.4l1.5-3.1l-1.7-3
		c-0.1-0.1-0.1-0.3,0-0.4s0.2-0.2,0.3-0.2l3.4,0.5l2.3-2.5c0.1-0.1,0.2-0.1,0.4-0.1s0.2,0.1,0.2,0.3l0.6,3.4l3.1,1.4
		c0.1,0.1,0.2,0.2,0.2,0.3s-0.1,0.3-0.2,0.3l-3,1.6l-0.4,3.4C103.8,322.7,103.7,322.8,103.5,322.9
		C103.5,322.9,103.5,322.9,103.5,322.9L103.5,322.9L103.5,322.9z M100.9,319.7c0.1,0,0.2,0,0.2,0.1l2.1,2l0.3-2.9
		c0-0.1,0.1-0.2,0.2-0.3l2.6-1.4l-2.7-1.2c-0.1,0-0.2-0.1-0.2-0.3l-0.5-2.9l-2,2.2c-0.1,0.1-0.2,0.1-0.3,0.1l-2.9-0.4l1.4,2.5
		c0.1,0.1,0.1,0.2,0,0.3l-1.3,2.6L100.9,319.7C100.8,319.7,100.8,319.7,100.9,319.7L100.9,319.7L100.9,319.7z"/>
	<polygon class="st0" points="126.5,431.5 123.3,433.2 122.9,436.8 120.2,434.3 116.7,435 118.3,431.8 116.5,428.6 120.1,429.1 
		122.5,426.4 123.2,430 	"/>
	<path class="st2" d="M122.9,437.1c-0.1,0-0.2,0-0.2-0.1l-2.5-2.4l-3.4,0.7c-0.1,0-0.3,0-0.4-0.1s-0.1-0.2,0-0.4l1.5-3.1l-1.7-3
		c-0.1-0.1-0.1-0.3,0-0.4c0.1-0.1,0.2-0.2,0.3-0.2l3.4,0.5l2.3-2.5c0.1-0.1,0.2-0.1,0.4-0.1s0.2,0.1,0.2,0.3l0.6,3.4l3.1,1.4
		c0.1,0.1,0.2,0.2,0.2,0.3s-0.1,0.3-0.2,0.3l-3,1.6l-0.4,3.4C123.2,437,123.1,437.1,122.9,437.1
		C122.9,437.1,122.9,437.2,122.9,437.1L122.9,437.1L122.9,437.1z M120.2,433.9c0.1,0,0.2,0,0.2,0.1l2.1,2l0.3-2.9
		c0-0.1,0.1-0.2,0.2-0.3l2.6-1.4l-2.7-1.2c-0.1,0-0.2-0.1-0.2-0.3l-0.5-2.9l-2,2.2c-0.1,0.1-0.2,0.1-0.3,0.1l-2.9-0.4l1.4,2.5
		c0.1,0.1,0.1,0.2,0,0.3l-1.3,2.6L120.2,433.9C120.2,433.9,120.2,433.9,120.2,433.9L120.2,433.9L120.2,433.9z"/>
	<circle class="st4" cx="143.9" cy="424.8" r="10.2"/>
	<path class="st2" d="M143.7,436c-2.3,0-4.5-0.7-6.4-2c-0.2-0.1-0.2-0.3-0.1-0.5c0.1-0.2,0.3-0.2,0.5-0.1c1.8,1.2,3.8,1.8,6,1.8
		c5.9,0,10.6-4.8,10.6-10.6s-4.8-10.6-10.6-10.6s-10.6,4.8-10.6,10.6c0,2.6,0.9,5.1,2.7,7c0.1,0.1,0.1,0.4,0,0.5
		c-0.1,0.1-0.4,0.1-0.5,0c-1.8-2.1-2.9-4.7-2.9-7.5c0-6.2,5.1-11.3,11.3-11.3s11.3,5.1,11.3,11.3S149.9,436,143.7,436L143.7,436
		L143.7,436z"/>
	<path class="st2" d="M143.7,431.4c-2.7,0-5.2-1.6-6.3-4.1c-0.1-0.2,0-0.4,0.2-0.5c0.2-0.1,0.4,0,0.5,0.2c0.9,2.2,3.1,3.7,5.6,3.7
		s4.4-1.3,5.5-3.4c0.1-0.2,0.3-0.2,0.5-0.2s0.2,0.3,0.2,0.5C148.6,430,146.3,431.4,143.7,431.4L143.7,431.4L143.7,431.4z"/>
	<path class="st2" d="M137.2,424c-0.1,0-0.2,0-0.3-0.1c-0.1-0.1-0.1-0.4,0.1-0.5c0,0,2.5-2,5.1-0.5c0.2,0.1,0.2,0.3,0.1,0.5
		c-0.1,0.2-0.3,0.2-0.5,0.1c-2.2-1.3-4.3,0.4-4.3,0.4C137.3,424,137.3,424,137.2,424L137.2,424L137.2,424z"/>
	<path class="st2" d="M145.6,424c-0.1,0-0.2,0-0.3-0.1c-0.1-0.1-0.1-0.4,0.1-0.5c0,0,2.5-2,5.1-0.5c0.2,0.1,0.2,0.3,0.1,0.5
		c-0.1,0.2-0.3,0.2-0.5,0.1c-2.2-1.3-4.3,0.4-4.3,0.4C145.8,424,145.7,424,145.6,424L145.6,424L145.6,424z"/>
	<path class="st2" d="M136.7,421.3c0,0-0.1,0-0.1,0c-0.2-0.1-0.3-0.3-0.2-0.5c0,0,1.3-2.8,5.2-2.4c0.2,0,0.3,0.2,0.3,0.4
		s-0.2,0.3-0.4,0.3c-3.4-0.4-4.5,1.9-4.5,1.9C137,421.2,136.9,421.3,136.7,421.3L136.7,421.3L136.7,421.3z"/>
	<path class="st2" d="M151.2,420.7c-0.1,0-0.2,0-0.3-0.1c-2-2.2-4.2-1.4-4.2-1.3c-0.2,0.1-0.4,0-0.5-0.2s0-0.4,0.2-0.5
		c0,0,2.7-1.1,5,1.5c0.1,0.1,0.1,0.4,0,0.5C151.4,420.7,151.3,420.7,151.2,420.7L151.2,420.7L151.2,420.7z"/>
	<circle class="st4" cx="95.9" cy="465.1" r="10.2"/>
	<path class="st2" d="M95.9,476.4c-6.2,0-11.3-5.1-11.3-11.3s5.1-11.3,11.3-11.3c2.5,0,4.9,0.8,6.9,2.4c0.2,0.1,0.2,0.3,0.1,0.5
		s-0.3,0.2-0.5,0.1c-1.9-1.5-4.1-2.2-6.5-2.2c-5.8,0-10.6,4.8-10.6,10.6s4.8,10.6,10.6,10.6s10.6-4.8,10.6-10.6
		c0-2.5-0.8-4.8-2.4-6.7c-0.1-0.1-0.1-0.4,0.1-0.5c0.2-0.1,0.4-0.1,0.5,0c1.7,2,2.6,4.6,2.6,7.2C107.2,471.3,102.2,476.4,95.9,476.4
		L95.9,476.4L95.9,476.4z"/>
	<path class="st2" d="M95.9,471.9c-2.7,0-5.2-1.6-6.3-4.1c-0.1-0.2,0-0.4,0.2-0.5c0.2-0.1,0.4,0,0.5,0.2c0.9,2.2,3.2,3.7,5.6,3.7
		s4.4-1.3,5.5-3.4c0.1-0.2,0.3-0.2,0.5-0.2s0.2,0.3,0.2,0.5C100.9,470.4,98.5,471.9,95.9,471.9C95.9,471.9,95.9,471.9,95.9,471.9z"
		/>
	<path class="st2" d="M92,465.8c-0.7,0-1.3-0.9-1.3-2.1s0.6-2.1,1.3-2.1s1.3,0.9,1.3,2.1S92.8,465.8,92,465.8z M92,462.2
		c-0.2,0-0.6,0.6-0.6,1.4s0.3,1.4,0.6,1.4s0.6-0.6,0.6-1.4S92.3,462.2,92,462.2z"/>
	<path class="st2" d="M99.5,465.8c-0.7,0-1.3-0.9-1.3-2.1s0.6-2.1,1.3-2.1s1.3,0.9,1.3,2.1S100.2,465.8,99.5,465.8z M99.5,462.2
		c-0.2,0-0.6,0.6-0.6,1.4s0.3,1.4,0.6,1.4s0.6-0.6,0.6-1.4S99.7,462.2,99.5,462.2z"/>
	<path class="st2" d="M111.2,278.8c3.6,3.1,6.4,7,8.8,11.1s4.4,8.4,6.3,12.7c3.9,8.6,7.6,17.3,11.9,25.7c4.2,8.5,8.7,16.7,14,24.5
		c2.6,3.9,5.5,7.6,8.7,11c3.2,3.4,6.7,6.5,10.6,8.9c3.9,2.4,8.2,4.1,12.7,4.8c2.2,0.3,4.5,0.4,6.8,0.2c2.3-0.2,4.5-0.6,6.9-1
		c2.3-0.4,4.7-0.8,7.2-0.9c1.2,0,2.5,0,3.8,0.2c0.6,0.1,1.3,0.2,1.9,0.3l1.8,0.5c2.4,0.9,4.6,2.4,6.4,4.1c1.8,1.8,3.3,3.7,4.6,5.7
		c2.6,4,4.9,8.1,8.1,11.3c3.3,3.3,6.7,6.5,10.6,9.1c1.9,1.3,4,2.4,6.1,3.4c2.1,1,4.3,1.9,6.5,2.6c2.2,0.8,4.4,1.5,6.7,2.1
		c1.1,0.3,2.3,0.6,3.4,0.8c1.1,0.2,2.3,0.4,3.5,0.3l0,0c0.1,0,0.1,0.1,0.1,0.1s0,0.1-0.1,0.1c-2.4,0.3-4.8-0.1-7.1-0.6
		c-2.3-0.5-4.6-1-6.9-1.7c-2.3-0.7-4.6-1.5-6.8-2.4c-2.2-0.9-4.4-1.9-6.5-3.2c-4.2-2.4-7.8-5.7-11.3-9c-3.6-3.4-6.1-7.7-8.7-11.5
		c-1.3-1.9-2.7-3.7-4.3-5.2c-1.6-1.5-3.4-2.7-5.4-3.4c-0.5-0.1-1-0.3-1.6-0.5s-1.1-0.2-1.6-0.3c-1.1-0.2-2.2-0.2-3.3-0.2
		c-2.2,0-4.5,0.4-6.8,0.8c-2.3,0.4-4.7,0.8-7.2,0.9c-2.4,0.1-4.9,0-7.4-0.4c-4.9-0.8-9.5-2.7-13.6-5.4c-4.1-2.6-7.7-5.9-10.9-9.4
		c-3.2-3.5-6.1-7.4-8.7-11.4c-5.2-8-9.7-16.4-13.8-24.9c-4-8.6-7.7-17.3-11.3-26c-1.8-4.4-3.7-8.7-6.1-12.8c-2.3-4.1-5.1-8-8.6-11.2
		c-0.1,0-0.1-0.1,0-0.2C111,278.7,111.1,278.7,111.2,278.8L111.2,278.8L111.2,278.8z"/>
	<path class="st2" d="M214.6,514.6c-7.4,2.4-14.4,6.2-20.3,11.2c-3,2.5-5.6,5.3-8.4,8.1c-2.8,2.8-5.7,5.5-9.1,7.6
		c-1.7,1-3.5,1.9-5.4,2.6c-1.9,0.6-3.9,1.1-5.8,1.4c-3.9,0.6-7.9,0.7-11.9,0.5c-7.9-0.3-15.6-1.6-23.3-1.2c-3.8,0.2-7.6,0.8-11.2,2
		c-3.7,1.1-7.2,2.5-10.7,4.3c-3.4,1.7-6.7,3.7-9.9,5.9s-6.2,4.6-9.1,7.1c-2.9,2.5-5.8,5.2-8.9,7.7c-3.1,2.5-6.3,4.8-10,6.6
		c-3.6,1.8-7.5,2.9-11.4,3.5c-3.9,0.6-7.8,0.9-11.7,1c-0.1,0-0.2-0.1-0.2-0.1c0-0.1,0-0.1,0.1-0.2c3.9-0.5,7.8-1.1,11.5-2
		c3.8-0.9,7.4-2.2,10.7-4c3.3-1.9,6.4-4.2,9.3-6.8c2.9-2.5,5.7-5.2,8.6-7.9c2.9-2.6,6-5.1,9.3-7.4c3.3-2.3,6.7-4.3,10.3-6
		c3.6-1.7,7.3-3.2,11.2-4.2c3.8-1.1,7.9-1.7,11.8-1.8c8-0.3,15.8,1.2,23.5,1.6c3.9,0.2,7.7,0.2,11.5-0.3c1.9-0.2,3.8-0.6,5.6-1.2
		c1.8-0.6,3.5-1.4,5.2-2.4c3.3-1.9,6.2-4.5,9.1-7.2c2.8-2.7,5.6-5.5,8.7-7.9c6.1-5,13.2-8.6,20.7-10.9c0.1,0,0.1,0,0.2,0.1
		C214.7,514.5,214.6,514.6,214.6,514.6L214.6,514.6L214.6,514.6z"/>
	<path class="st2" d="M150.3,388.7c4.9-0.2,9.8,0.3,14.6,1.4c2.4,0.6,4.7,1.3,7,2.4c2.2,1.1,4.4,2.5,6.2,4.2
		c1.8,1.7,3.4,3.6,4.9,5.6s2.9,3.9,4.4,5.8c1.5,1.9,3,3.7,4.8,5.2c1.8,1.5,3.7,2.9,5.8,3.9c0.5,0.3,1.1,0.5,1.6,0.7l0.8,0.4l0.8,0.3
		l1.6,0.6l1.7,0.5c2.3,0.7,4.6,1.3,7,1.9c4.7,1.2,9.5,2.2,14.1,4c2.3,0.9,4.6,2,6.7,3.4c2.1,1.3,4.1,2.9,6,4.5
		c3.6,3.2,7.2,6.5,10.7,9.9c0.1,0,0.1,0.1,0,0.2c-0.1,0-0.1,0.1-0.2,0c-4-2.8-7.9-5.6-11.8-8.6c-1.9-1.4-3.9-2.8-6-3.9
		c-2.1-1.1-4.2-2.1-6.4-2.9c-2.2-0.8-4.5-1.4-6.8-2.1l-7-1.9c-2.4-0.7-4.7-1.4-7-2.2l-1.7-0.6l-1.7-0.7l-0.9-0.4l-0.8-0.4
		c-0.6-0.3-1.1-0.5-1.7-0.9c-2.2-1.2-4.3-2.7-6.1-4.4c-1.9-1.7-3.4-3.6-4.9-5.6c-1.4-2-2.8-4-4.2-6c-1.4-2-2.9-3.8-4.6-5.5
		c-1.6-1.7-3.6-3-5.7-4.2c-2.1-1.1-4.4-1.9-6.7-2.6c-4.6-1.3-9.5-1.9-14.3-1.9l0,0c-0.1,0-0.1-0.1-0.1-0.1
		C150.1,388.8,150.2,388.7,150.3,388.7L150.3,388.7L150.3,388.7z"/>
	<path class="st2" d="M144.2,478.4c1.3,1.5,2.9,2.7,4.5,3.8c0.8,0.6,1.7,1.1,2.5,1.6c0.9,0.5,1.7,1,2.6,1.3c3.6,1.6,7.4,2.7,11.3,3
		c3.9,0.4,7.8,0.1,11.7-0.5c3.9-0.6,7.7-1.6,11.4-2.9c3.7-1.3,7.5-2.8,11.6-3.6c2-0.4,4.1-0.6,6.2-0.6c0.5,0,1.1,0,1.6,0l1.6,0.1
		c1.1,0.1,2,0.2,3,0.4l5.9,0.9c2,0.3,3.9,0.6,5.8,0.7c1.9,0.1,3.8,0,5.7-0.4c1.9-0.4,3.8-0.9,5.8-1.5c0.1,0,0.2,0,0.2,0.1
		c0,0.1,0,0.1-0.1,0.2c-1.8,0.9-3.6,1.8-5.6,2.5c-1,0.3-2,0.6-3,0.8c-1,0.2-2.1,0.3-3.1,0.3c-4.1,0.1-8.1-0.5-12.1-0.8
		c-1-0.1-2-0.2-2.9-0.3l-1.4-0.1c-0.5,0-0.9,0-1.4,0c-1.9-0.1-3.8,0.1-5.7,0.4c-1.9,0.3-3.8,0.8-5.7,1.3l-5.7,1.8
		c-3.9,1.2-7.8,2.1-11.9,2.6c-4,0.4-8.1,0.6-12.2,0c-4-0.6-7.9-1.8-11.6-3.7c-0.9-0.4-1.8-1-2.6-1.5c-0.8-0.6-1.7-1.1-2.5-1.7
		c-1.6-1.2-3.1-2.6-4.4-4.1c-0.1-0.1,0-0.1,0-0.2C144.1,478.4,144.1,478.4,144.2,478.4L144.2,478.4L144.2,478.4z"/>
	<path class="st2" d="M37.8,467.3c1.8-0.2,3.6-0.6,5.4-1.1c1.8-0.5,3.5-1,5.3-1.6c3.5-1.2,6.8-2.7,10-4.5c3.2-1.7,6.3-3.7,9.1-6
		c2.9-2.3,6.2-4.4,9.6-5.9c3.4-1.6,7-2.8,10.7-3.6c3.7-0.9,7.5-1.2,11.2-1.2c0.9,0,1.9,0,2.8,0.1l2.8,0.2c1.9,0.3,3.7,0.5,5.6,0.9
		c3.7,0.8,7.2,1.9,10.6,3.5c0.1,0,0.1,0.1,0.1,0.2c0,0.1-0.1,0.1-0.2,0.1c-3.6-0.8-7.2-1.4-10.8-1.8s-7.2-0.5-10.8-0.3
		c-7.2,0.3-14.4,1.3-21.1,4c-3.3,1.4-6.4,3.2-9.4,5.3c-3,2.2-6.2,4.1-9.6,5.8c-3.3,1.6-6.8,3-10.4,4c-3.6,1-7.2,1.8-10.9,2.1
		c-0.1,0-0.2,0-0.2-0.1C37.6,467.3,37.7,467.3,37.8,467.3L37.8,467.3L37.8,467.3z"/>
	<path class="st2" d="M293.5,433.8c0,0,4.5-4.4,6.5-0.7s-2.2,6.4-1.9,7.2s1,1.7,0,2.8s-6.4-3.7-6.8-4.3S293.5,433.8,293.5,433.8
		L293.5,433.8z"/>
	<path class="st2" d="M297.7,443.6h-0.1c-1.9-0.2-6.1-4-6.5-4.6c-0.3-0.5,0.4-2.3,2.1-5.4c0,0,0-0.1,0.1-0.1
		c0.1-0.1,2.7-2.6,4.9-2.2c0.9,0.1,1.6,0.7,2.1,1.6c1.5,2.8-0.2,5-1.3,6.4c-0.3,0.4-0.6,0.8-0.6,0.9c0,0.1,0.1,0.2,0.1,0.3
		c0.4,0.7,0.8,1.7-0.2,2.9C298.2,443.5,298,443.6,297.7,443.6L297.7,443.6L297.7,443.6z M293.8,434c-1.1,2-2.2,4.3-2.1,4.7
		c0.3,0.4,4.4,4.1,5.9,4.2c0.1,0,0.2,0,0.2,0c0.7-0.8,0.4-1.4,0.1-2.1c-0.1-0.1-0.1-0.2-0.2-0.3c-0.2-0.4,0.2-0.9,0.7-1.6
		c1-1.3,2.5-3.2,1.2-5.6c-0.4-0.8-1-1.2-1.6-1.3C296.3,431.7,294.1,433.7,293.8,434L293.8,434L293.8,434z"/>
	<path class="st4" d="M308.8,503l6.2,14.7c0,0,11.5,4.1,15.9,4.5c4.4,0.5,12,0.5,12,0.5s7.5-1.7,8.6-1.7s5.3,2.4,6.9,3.2
		s2.6,1.2,1.5,1.7c-1.1,0.5-2.6,0.5-3.8,0.2c-1.2-0.3-3-0.3-3-0.3s2.1,1.1,1.1,1.4c-1.1,0.3-2.7-0.3-3.6-0.3s-3.9,0.5-5.4,0.5
		s-3.9-0.9-3.9-0.9s-17.7,2.8-22.8,3.7c-5.1,0.9-8.9-0.9-10.7-2.3s-4.7-9-4.7-9l6-16.9"/>
	<path class="st2" d="M315.6,530.7c-4.2,0-7-1.7-8.2-2.6c-1.9-1.4-4.7-8.8-4.8-9.1c0-0.1,0-0.2,0-0.2l6-16.9
		c0.1-0.2,0.3-0.3,0.5-0.2c0.2,0.1,0.3,0.3,0.2,0.5l-0.2,0.7c0,0,0.1,0.1,0.1,0.1l6.1,14.6c1.4,0.5,11.6,4,15.6,4.5
		c4.1,0.4,11.3,0.5,11.9,0.5c0.7-0.1,7.6-1.7,8.6-1.7c0.8,0,2.6,0.9,5.1,2.2c0.8,0.4,1.5,0.8,2,1c1.4,0.7,2.2,1,2.2,1.6
		c0,0.5-0.5,0.7-0.7,0.7c-1,0.5-2.6,0.5-4,0.2c-0.5-0.1-1.1-0.2-1.6-0.2c0.3,0.2,0.4,0.5,0.4,0.7c0,0.2-0.1,0.4-0.5,0.5
		c-0.8,0.2-1.7,0-2.5-0.1c-0.5-0.1-0.9-0.2-1.2-0.2c-0.4,0-1.2,0.1-2.1,0.2c-1.2,0.1-2.5,0.3-3.4,0.3c-1.4,0-3.5-0.7-4-0.9
		c-1.4,0.2-17.9,2.8-22.7,3.7C317.4,530.6,316.5,530.7,315.6,530.7L315.6,530.7L315.6,530.7z M303.3,518.9c0.8,2.2,3.1,7.7,4.5,8.7
		c1,0.8,4.8,3.2,10.4,2.2c5.1-0.9,22.7-3.7,22.8-3.7c0.1,0,0.1,0,0.2,0c0,0,2.4,0.9,3.8,0.9c0.8,0,2.1-0.1,3.3-0.3
		c0.9-0.1,1.7-0.2,2.1-0.2c0.4,0,0.8,0.1,1.3,0.2c0.8,0.1,1.6,0.3,2.2,0.2c-0.2-0.2-0.6-0.5-1.1-0.7c-0.1-0.1-0.2-0.2-0.2-0.4
		c0-0.2,0.2-0.3,0.4-0.3c0.1,0,1.9,0,3.1,0.3s2.6,0.3,3.5-0.1c0.1,0,0.2-0.1,0.2-0.1c-0.2-0.2-1.1-0.7-1.7-0.9
		c-0.5-0.2-1.2-0.6-2.1-1c-1.6-0.8-4.1-2.1-4.7-2.1c-0.8,0-6.4,1.2-8.5,1.7c0,0-0.1,0-0.1,0c-0.1,0-7.6-0.1-12-0.5
		c-4.4-0.5-15.5-4.4-15.9-4.5c-0.1,0-0.2-0.1-0.2-0.2l-6-14.2L303.3,518.9L303.3,518.9L303.3,518.9z"/>
	<path class="st0" d="M318.6,518.9c-2.1-0.7-3.5-1.2-3.5-1.2l-6.2-14.7l0.1-1.1l-6,16.9c0,0,2.9,7.6,4.7,9c1.5,1.1,4.2,2.5,7.8,2.5
		L318.6,518.9L318.6,518.9z"/>
	<path class="st2" d="M315.5,530.7L315.5,530.7c-4.2,0-7-1.8-8-2.6c-1.9-1.4-4.7-8.8-4.8-9.1c0-0.1,0-0.2,0-0.2l6-16.9
		c0.1-0.2,0.2-0.3,0.4-0.2s0.3,0.2,0.3,0.4l-0.1,1l6.1,14.5c0.4,0.2,1.7,0.6,3.4,1.2c0.2,0.1,0.3,0.2,0.2,0.4l-3.1,11.4
		C315.8,530.6,315.6,530.7,315.5,530.7L315.5,530.7L315.5,530.7z M303.3,518.9c0.8,2.2,3.1,7.7,4.5,8.7c0.9,0.7,3.5,2.3,7.3,2.4
		l2.9-10.8c-1.9-0.6-3.2-1.1-3.2-1.1c-0.1,0-0.2-0.1-0.2-0.2l-6-14.2L303.3,518.9L303.3,518.9L303.3,518.9z"/>
	<path class="st2" d="M353.1,526.2C353.1,526.2,353.1,526.2,353.1,526.2l-5.4-1.4c-0.2,0-0.3-0.2-0.3-0.4s0.2-0.3,0.4-0.3l5.3,1.4
		c0.2,0,0.3,0.2,0.3,0.4C353.4,526.1,353.3,526.2,353.1,526.2L353.1,526.2z"/>
	<path class="st4" d="M251.6,633.9c0,0-6.3,16.8-6.9,18.8s-2,4.6,0.2,5.6c2.2,1,5.1,0.3,6.3,0.3s3.4,1.4,5.1,2.4
		c1.7,1,7.5,1.2,8.1,1.2s1.9-1.5,1.4-2.4c-0.5-0.8-4.1-2.5-5.8-3.7c-1.7-1.2-5.1-7-4.9-8.3s4.7-10.7,4.7-10.7L251.6,633.9
		L251.6,633.9L251.6,633.9z"/>
	<path class="st2" d="M264.3,662.5c-0.1,0-6.4-0.1-8.3-1.2l-0.2-0.1c-1.5-0.9-3.6-2.2-4.7-2.2c-0.3,0-0.6,0-1.1,0.1
		c-1.4,0.1-3.6,0.4-5.4-0.5c-2.2-1-1.3-3.3-0.7-5.2c0.1-0.3,0.2-0.6,0.3-0.9c0.7-2,6.7-18.1,7-18.8c0-0.1,0.1-0.2,0.2-0.2
		c0.1,0,0.2,0,0.3,0l8.1,3.2c0.1,0,0.2,0.1,0.2,0.2s0,0.2,0,0.3c-1.8,3.7-4.6,9.6-4.7,10.6c-0.1,1.1,3.1,6.8,4.8,8
		c0.6,0.5,1.6,1,2.5,1.5c1.9,1.1,3.1,1.8,3.4,2.3c0.3,0.5,0.2,1.1-0.1,1.7C265.5,661.9,264.9,662.5,264.3,662.5L264.3,662.5
		L264.3,662.5z M251.1,658.3c1.2,0,3.3,1.2,5,2.3l0.2,0.1c1.5,0.9,7,1.1,8,1.1c0.2,0,0.6-0.3,0.9-0.8c0.2-0.4,0.3-0.8,0.1-1
		c-0.3-0.4-1.9-1.4-3.1-2.1c-0.9-0.5-1.9-1.1-2.5-1.5c-1.8-1.3-5.2-7.2-5.1-8.6c0.2-1.3,3.7-8.6,4.6-10.5l-7.4-2.9
		c-0.9,2.4-6.2,16.6-6.8,18.5c-0.1,0.3-0.2,0.6-0.3,0.9c-0.8,2.1-1.2,3.6,0.3,4.3c1.6,0.7,3.6,0.5,5,0.4
		C250.4,658.4,250.8,658.3,251.1,658.3L251.1,658.3L251.1,658.3z"/>
	<path class="st2" d="M265.7,659.8c-0.5-0.8-4.1-2.5-5.8-3.7c-1.1-0.8-3.1-3.7-4.1-5.9c-0.3,0-1.2,0.2-1.8,1c-0.7,1-1,1.9-1,1.9
		s-4.3-1.2-7.5-2.6c-0.4,1.1-0.7,1.9-0.8,2.2c-0.7,2-2,4.6,0.2,5.6c2.2,1,5.1,0.3,6.3,0.3s3.4,1.4,5.1,2.4s7.5,1.2,8.1,1.2
		S266.2,660.7,265.7,659.8L265.7,659.8L265.7,659.8z"/>
	<path class="st2" d="M264.3,662.5c-0.1,0-6.4-0.1-8.3-1.2l-0.2-0.1c-1.5-0.9-3.6-2.2-4.7-2.2c-0.3,0-0.6,0-1.1,0.1
		c-1.4,0.1-3.6,0.4-5.4-0.5c-2.2-1-1.3-3.3-0.7-5.2c0.1-0.3,0.2-0.6,0.3-0.9c0.1-0.4,0.4-1.2,0.8-2.3c0-0.1,0.1-0.2,0.2-0.2
		c0.1,0,0.2,0,0.3,0c2.6,1.2,6.1,2.2,7.2,2.5c0.2-0.3,0.5-1,0.9-1.6c0.7-1,1.7-1.2,2.1-1.2c0.1,0,0.3,0.1,0.3,0.2c1,2.1,2.9,5,4,5.8
		c0.6,0.5,1.6,1,2.5,1.5c1.9,1.1,3.1,1.8,3.4,2.3l0,0c0.3,0.5,0.2,1.1-0.1,1.7C265.5,661.9,264.9,662.5,264.3,662.5L264.3,662.5
		L264.3,662.5z M251.1,658.3c1.2,0,3.3,1.2,5,2.3l0.2,0.1c1.5,0.9,7,1.1,8,1.1c0.2,0,0.6-0.3,0.9-0.8c0.2-0.4,0.3-0.8,0.1-1l0,0
		c-0.3-0.4-1.9-1.4-3.1-2.1c-0.9-0.5-1.9-1.1-2.5-1.5c-1.2-0.8-3-3.6-4.1-5.8c-0.3,0.1-0.9,0.3-1.3,0.8c-0.6,1-1,1.8-1,1.8
		c-0.1,0.2-0.2,0.3-0.4,0.2c0,0-4.1-1.1-7.2-2.5c-0.3,0.9-0.6,1.6-0.7,1.9c-0.1,0.3-0.2,0.6-0.3,0.9c-0.8,2.1-1.2,3.6,0.3,4.3
		c1.6,0.7,3.6,0.5,5,0.4C250.4,658.4,250.8,658.3,251.1,658.3L251.1,658.3L251.1,658.3z"/>
	<path class="st5" d="M271.8,566.9c0,0,1,22.4,0.3,24.8s-7.3,8.3-8.8,13.2s-13.4,31.9-13.4,31.9l13.1,6.1c0,0,17.6-28.1,20.5-36.6
		c2.9-8.5,10.7-26.6,10.7-26.6L271.8,566.9L271.8,566.9L271.8,566.9z"/>
	<path class="st2" d="M262.9,643.2c0,0-0.1,0-0.1,0l-13.1-6.1c-0.2-0.1-0.3-0.3-0.2-0.5c0.1-0.3,11.9-27,13.4-31.8
		c0.9-2.9,3.6-6.2,5.8-8.9c1.5-1.8,2.8-3.4,3.1-4.3c0.5-1.8,0-16.9-0.4-24.6c0-0.1,0.1-0.2,0.2-0.3c0.1-0.1,0.2-0.1,0.4,0l22.4,12.7
		c0.2,0.1,0.2,0.3,0.1,0.5c-0.1,0.2-7.8,18.2-10.7,26.6c-2.9,8.4-19.8,35.5-20.5,36.7C263.2,643.2,263.1,643.2,262.9,643.2
		L262.9,643.2L262.9,643.2z M250.4,636.6l12.5,5.8c1.8-2.9,17.6-28.4,20.3-36.3c2.6-7.8,9.5-24,10.6-26.3l-21.5-12.2
		c0.2,3.8,0.9,22,0.3,24.2c-0.3,1.1-1.6,2.6-3.2,4.6c-2.1,2.6-4.8,5.8-5.6,8.6C262.2,609.6,251.8,633.4,250.4,636.6L250.4,636.6
		L250.4,636.6z"/>
	<path class="st4" d="M331,637.4l9.3,11.4c0,0,7.5,0.3,10.3-0.5c2.9-0.8,6.1-4.2,6.4-2.5s-1,5.9-3.2,8.3s-11.5,6.8-13.9,7.6
		s-3.7-1.7-4.2-2.9c-0.5-1.2-1-3.9-1.5-4.9s-12.4-12.5-12.4-12.5L331,637.4L331,637.4L331,637.4z"/>
	<path class="st2" d="M339,662.2c-1.4,0-2.7-1.1-3.6-3.3c-0.2-0.6-0.5-1.5-0.7-2.4c-0.3-1-0.5-2-0.8-2.5c-0.4-0.7-7.7-8-12.3-12.5
		c-0.1-0.1-0.1-0.2-0.1-0.3s0.1-0.2,0.2-0.3l9.1-3.9c0.1-0.1,0.3,0,0.4,0.1l9.2,11.2c1.1,0,7.5,0.3,10.1-0.5
		c1.1-0.3,2.4-1.1,3.5-1.8c1.3-0.8,2.3-1.4,2.9-1.2c0.2,0.1,0.4,0.3,0.5,0.7c0.4,1.9-1.1,6.2-3.3,8.6c-2.4,2.5-11.9,7-14,7.7
		C339.7,662.1,339.3,662.1,339,662.2L339,662.2L339,662.2z M322.4,641.4c2.3,2.2,11.6,11.3,12.1,12.3c0.3,0.6,0.5,1.6,0.8,2.6
		c0.2,0.9,0.5,1.8,0.7,2.3c0.6,1.3,1.8,3.4,3.8,2.7c2.5-0.9,11.6-5.2,13.8-7.5c2.2-2.4,3.4-6.5,3.1-8c0,0,0-0.2-0.1-0.2
		c-0.3-0.1-1.4,0.6-2.3,1.1c-1.1,0.7-2.4,1.5-3.6,1.9c-2.9,0.8-10.1,0.5-10.5,0.5c-0.1,0-0.2,0-0.3-0.1l-9.1-11.2L322.4,641.4
		L322.4,641.4L322.4,641.4z"/>
	<path class="st2" d="M350.6,648.2c-1.2,0.3-3.1,0.5-5,0.5l0.4,3.9c0,0-6.9,2.8-11.1,3.6c0.3,1,0.5,2,0.8,2.5
		c0.5,1.2,1.9,3.7,4.2,2.9s11.7-5.3,13.9-7.6c2.2-2.4,3.6-6.6,3.2-8.3S353.5,647.4,350.6,648.2L350.6,648.2L350.6,648.2z"/>
	<path class="st2" d="M339,662.2c-1.4,0-2.7-1.1-3.6-3.3c-0.2-0.6-0.5-1.5-0.7-2.4l0-0.2c0-0.1,0-0.2,0-0.3c0.1-0.1,0.1-0.1,0.2-0.2
		c3.7-0.7,9.5-2.9,10.8-3.4l-0.4-3.6c0-0.1,0-0.2,0.1-0.3s0.2-0.1,0.3-0.1c2.3-0.1,3.9-0.2,4.9-0.5l0,0c1.1-0.3,2.4-1.1,3.5-1.8
		c1.3-0.8,2.3-1.4,2.9-1.2c0.2,0.1,0.4,0.3,0.5,0.7c0.4,1.9-1.1,6.2-3.3,8.6c-2.4,2.5-11.9,7-14,7.7
		C339.7,662.1,339.3,662.1,339,662.2L339,662.2L339,662.2z M335.4,656.5c0.2,0.8,0.4,1.6,0.6,2.1c0.6,1.3,1.8,3.4,3.8,2.7
		c2.5-0.9,11.6-5.2,13.8-7.5c2.2-2.4,3.4-6.5,3.1-8c0,0,0-0.2-0.1-0.2c-0.3-0.1-1.4,0.6-2.3,1.1c-1.1,0.7-2.4,1.5-3.6,1.9l0,0
		c-1,0.3-2.5,0.5-4.7,0.5l0.4,3.5c0,0.2-0.1,0.3-0.2,0.4C345.9,653.1,339.6,655.7,335.4,656.5L335.4,656.5L335.4,656.5z"/>
	<path class="st5" d="M278.1,524.3l-1.4,4.4c0,0-12.6,13.4-13.2,22.4c-0.6,9,3.1,15.9,6.9,18.5c3.8,2.6,27.6,30,29,32.3
		c1.4,2.3,4.5,17.5,8.4,24c3.9,6.5,13.6,22.4,13.6,22.4l13.2-9.1c0,0-15.4-29.4-18.6-38.7s-5-16.3-6.8-19.9s-6.2-17.4-6.2-17.4
		s3.3-11.3,3.8-20.2c0.5-8.9-0.1-20.2-0.1-20.2L278.1,524.3L278.1,524.3L278.1,524.3z"/>
	<path class="st2" d="M321.3,648.7C321.3,648.7,321.3,648.7,321.3,648.7c-0.2,0-0.2-0.1-0.3-0.2c0,0-9.7-15.9-13.6-22.4
		c-2.5-4.1-4.7-11.8-6.3-17.4c-0.9-3.1-1.7-5.9-2.1-6.7c-1.4-2.4-25.1-29.6-28.9-32.2c-3.8-2.6-7.7-9.6-7.1-18.8
		c0.6-8.9,12.2-21.5,13.3-22.6l1.3-4.3c0-0.1,0.2-0.2,0.3-0.2l28.5-1.5c0.2,0,0.4,0.1,0.4,0.3c0,0.1,0.6,11.4,0.1,20.3
		c-0.4,8.4-3.4,19-3.8,20.2c0.4,1.3,4.4,13.8,6.1,17.2c1.2,2.3,2.4,6.1,3.8,10.8c0.9,2.7,1.8,5.8,3,9.2c3.1,9.2,18.4,38.4,18.5,38.7
		c0.1,0.2,0,0.4-0.1,0.5l-13.2,9.1C321.5,648.7,321.4,648.7,321.3,648.7L321.3,648.7L321.3,648.7z M278.3,524.6l-1.3,4.1
		c0,0,0,0.1-0.1,0.1c-0.1,0.1-12.5,13.4-13.1,22.2c-0.6,8.9,3.1,15.7,6.7,18.2c3.8,2.6,27.7,30,29.1,32.4c0.5,0.9,1.3,3.5,2.2,6.8
		c1.6,5.5,3.8,13.2,6.2,17.2c3.6,6,12,19.8,13.4,22.1l12.6-8.7c-1.6-3-15.5-29.7-18.5-38.5c-1.1-3.4-2.1-6.5-3-9.2
		c-1.5-4.7-2.6-8.4-3.8-10.7c-1.8-3.6-6-16.8-6.2-17.4c0-0.1,0-0.1,0-0.2c0-0.1,3.3-11.4,3.8-20.1c0.4-7.9,0-17.8-0.1-19.8
		L278.3,524.6L278.3,524.6L278.3,524.6z"/>
	<path class="st2" d="M286.2,545.3C286.2,545.3,286.1,545.3,286.2,545.3c-0.3-0.1-0.4-0.2-0.4-0.4l4.2-16c0-0.2,0.2-0.3,0.4-0.3
		s0.3,0.2,0.3,0.4l-4.2,16C286.5,545.2,286.4,545.3,286.2,545.3L286.2,545.3L286.2,545.3z"/>
	<path class="st2" d="M290.4,546.2L290.4,546.2c-0.2,0-0.4-0.2-0.4-0.4l0.2-2.8c0-0.2,0.2-0.3,0.4-0.3c0.2,0,0.3,0.2,0.3,0.4
		l-0.2,2.8C290.8,546.1,290.6,546.2,290.4,546.2L290.4,546.2L290.4,546.2z"/>
	<path class="st2" d="M290.8,541.3L290.8,541.3c-0.2,0-0.4-0.2-0.4-0.4l0.9-11.9c0-0.2,0.2-0.3,0.4-0.3c0.2,0,0.3,0.2,0.3,0.4
		l-0.9,11.9C291.1,541.1,291,541.3,290.8,541.3L290.8,541.3L290.8,541.3z"/>
	<path class="st2" d="M303.4,544.3c-0.2,0-0.3-0.1-0.4-0.3l-0.3-2.8c0-0.2,0.1-0.4,0.3-0.4c0.2,0,0.4,0.1,0.4,0.3l0.3,2.8
		C303.8,544.1,303.6,544.2,303.4,544.3L303.4,544.3L303.4,544.3z"/>
	<path class="st2" d="M303,540c-0.2,0-0.3-0.1-0.4-0.3l-1.1-11.1c0-0.2,0.1-0.4,0.3-0.4c0.2,0,0.4,0.1,0.4,0.3l1.1,11.1
		C303.4,539.8,303.2,540,303,540L303,540L303,540z"/>
	<path class="st2" d="M303,563.6c-0.1,0-0.3-0.1-0.3-0.2c0-0.1-3.2-7.8-6.7-11.8c-0.1-0.2-0.1-0.4,0-0.5c0.1-0.1,0.4-0.1,0.5,0
		c3.6,4.1,6.7,11.7,6.9,12c0.1,0.2,0,0.4-0.2,0.5C303,563.6,303,563.6,303,563.6L303,563.6L303,563.6z"/>
	<path class="st4" d="M277,527.9l29.8-0.6c-0.1-2.7-0.2-4.5-0.2-4.5l-28.5,1.5L277,527.9L277,527.9L277,527.9z"/>
	<path class="st2" d="M277,528.2c-0.1,0-0.2,0-0.3-0.1s-0.1-0.2-0.1-0.3l1.1-3.6c0-0.1,0.2-0.2,0.3-0.2l28.5-1.5
		c0.2,0,0.4,0.1,0.4,0.3c0,0,0.1,1.8,0.2,4.5c0,0.1,0,0.2-0.1,0.3c-0.1,0.1-0.2,0.1-0.2,0.1L277,528.2L277,528.2L277,528.2z
		 M278.3,524.6l-0.9,2.9l29-0.6c-0.1-1.8-0.1-3.1-0.1-3.8L278.3,524.6L278.3,524.6L278.3,524.6z"/>
	<path class="st4" d="M265.8,491.2l-14.6,31.7c0,0-2.4-0.6-8.5,7.4c-6,8-11.4,12.5-12.2,12.9c-0.8,0.5-9.1,3-10.6,4.5
		c-1.5,1.5-3.3,6.2-4.8,8s-3,3.5-1.4,3.2s6-3,7.4-3.5s6.3-3.3,6.3-3.3s-2.9,4.1-2.9,5.4s1.7,1.7,2,0.9c0.3-0.8,1.2-2.6,2-3.8
		s2.4-3.3,3.2-5.1l0.8-1.8c0,0,21.1-13.4,23.1-15.3s3.8-5.6,4.4-6.2c0.6-0.6,10.9-15.4,10.9-15.4l4.8,16c0,0,24,0.2,34-3
		c0,0,0.9-24.1-0.6-30.2c-1.5-6-4.7-12-6.8-13.7c-2.1-1.7-11.8-3.9-22.9-0.9C268.1,482,265.8,491.2,265.8,491.2L265.8,491.2
		L265.8,491.2z"/>
	<path class="st2" d="M213.4,559.3c-0.2,0-0.5-0.1-0.7-0.3c-0.3-0.6,0.3-1.4,1.7-3.1l0.3-0.4c0.7-0.8,1.5-2.3,2.2-3.8
		c0.9-1.7,1.8-3.4,2.6-4.3c1.1-1.1,5.5-2.7,8.3-3.7c1.1-0.4,2.1-0.8,2.3-0.9c0.6-0.3,6-4.7,12.1-12.8c5-6.7,7.6-7.5,8.5-7.5
		l14.5-31.5c0.2-0.6,2.8-9.5,13.7-12.5c11.7-3.2,21.2-0.6,23.2,1c2.1,1.7,5.4,7.7,6.9,13.9c1.5,6,0.6,29.3,0.6,30.3
		c0,0.2-0.1,0.3-0.2,0.3c-9.9,3.2-33.8,3-34.1,3c-0.2,0-0.3-0.1-0.3-0.3l-4.6-15.3c-2.1,3-9.9,14.3-10.5,14.8
		c-0.2,0.2-0.6,0.8-1,1.5c-0.9,1.4-2.1,3.4-3.4,4.7c-1.9,1.9-21.3,14.2-23,15.3l-0.7,1.7c-0.6,1.3-1.6,2.8-2.4,4
		c-0.3,0.5-0.6,0.9-0.8,1.2c-0.8,1.2-1.6,3-1.9,3.7c-0.2,0.5-0.7,0.7-1.3,0.6c-0.6-0.1-1.3-0.7-1.3-1.6s1.2-3,2.1-4.4
		c-1.6,0.9-4.1,2.3-5.1,2.6c-0.5,0.2-1.6,0.7-2.7,1.3c-1.7,0.9-3.7,2-4.7,2.2C213.7,559.3,213.6,559.3,213.4,559.3L213.4,559.3
		L213.4,559.3z M213.4,558.6c0.1,0,0.1,0,0.3,0c0.9-0.2,2.9-1.2,4.5-2.1c1.2-0.6,2.2-1.2,2.8-1.4c1.3-0.4,6.2-3.3,6.3-3.3
		c0.1-0.1,0.3-0.1,0.4,0.1c0.1,0.1,0.1,0.3,0,0.4c-1.1,1.6-2.8,4.3-2.8,5.2c0,0.6,0.4,0.9,0.7,0.9c0.2,0,0.5,0,0.5-0.2
		c0.3-0.8,1.2-2.6,2-3.8c0.2-0.3,0.5-0.8,0.8-1.2c0.8-1.2,1.8-2.6,2.3-3.8l0.8-1.8c0-0.1,0.1-0.1,0.1-0.2c0.2-0.1,21.1-13.4,23-15.3
		c1.2-1.2,2.4-3.1,3.3-4.5c0.5-0.8,0.9-1.4,1.1-1.7c0.4-0.4,6.7-9.4,10.8-15.4c0.1-0.1,0.2-0.2,0.4-0.1s0.2,0.1,0.3,0.2l4.8,15.8
		c2.6,0,24-0.1,33.4-2.9c0.1-2.6,0.8-24.2-0.6-29.8c-1.5-6.1-4.7-11.9-6.7-13.5c-1.9-1.5-11.3-3.9-22.6-0.9
		c-10.8,2.9-13.2,11.9-13.2,12c0,0,0,0,0,0.1l-14.6,31.7c-0.1,0.2-0.2,0.2-0.4,0.2c0,0-2.4-0.3-8.1,7.3c-6.3,8.3-11.7,12.6-12.3,13
		c-0.2,0.2-1,0.4-2.4,0.9c-2.6,1-7.1,2.5-8.1,3.5c-0.8,0.8-1.6,2.5-2.5,4.1c-0.8,1.5-1.6,3-2.3,3.9l-0.4,0.4
		C214.4,557.2,213.5,558.2,213.4,558.6L213.4,558.6L213.4,558.6z"/>
	<path class="st0" d="M302.2,479.9c-2.1-1.7-11.8-3.9-22.9-0.9c-11.2,3-13.4,12.2-13.4,12.2l-14.6,31.7c0,0-1.1-0.3-3.7,2.1l7.6,7.9
		c0.2-0.2,0.4-0.3,0.5-0.5c2-2,3.8-5.6,4.4-6.2s10.9-15.4,10.9-15.4l4.8,16c0,0,24,0.2,34-3c0,0,0.9-24.1-0.6-30.2
		C307.5,487.6,304.3,481.6,302.2,479.9L302.2,479.9L302.2,479.9z"/>
	<path class="st2" d="M255,533.2c-0.1,0-0.2,0-0.3-0.1l-7.6-7.9c-0.1-0.1-0.1-0.2-0.1-0.3s0.1-0.2,0.1-0.2c2-1.8,3.2-2.1,3.8-2.2
		l14.5-31.5c0,0,2.4-9.4,13.7-12.4c11.7-3.2,21.2-0.6,23.2,1l0,0c2.1,1.7,5.4,7.7,6.9,13.9c1.5,6,0.6,29.3,0.6,30.3
		c0,0.2-0.1,0.3-0.2,0.3c-9.9,3.2-33.8,3-34.1,3c-0.2,0-0.3-0.1-0.3-0.3l-4.6-15.3c-2.1,3-9.9,14.3-10.5,14.8
		c-0.2,0.2-0.6,0.8-1,1.5c-0.9,1.4-2.1,3.4-3.4,4.7c-0.1,0.1-0.3,0.3-0.6,0.5C255.2,533.2,255.1,533.3,255,533.2L255,533.2
		L255,533.2z M248,525l7.1,7.4c0.1-0.1,0.2-0.2,0.2-0.2c1.2-1.2,2.4-3.1,3.3-4.5c0.5-0.8,0.9-1.4,1.1-1.7c0.4-0.4,6.7-9.4,10.8-15.4
		c0.1-0.1,0.2-0.2,0.4-0.1s0.2,0.1,0.3,0.2l4.8,15.8c2.6,0,24-0.1,33.4-2.9c0.1-2.6,0.8-24.2-0.6-29.8c-1.5-6.1-4.7-11.9-6.7-13.5
		c-1.9-1.5-11.3-3.9-22.6-0.9c-10.8,2.9-13.2,11.9-13.2,12l-14.7,31.8c-0.1,0.2-0.2,0.2-0.4,0.2l0,0
		C251.1,523.3,250.1,523.2,248,525L248,525L248,525z"/>
	<path class="st2" d="M270.8,511.2c-0.1,0-0.2,0-0.3-0.1c-0.1-0.1-0.1-0.3,0-0.5l5.4-6.8c0.1-0.2,0.4-0.2,0.5-0.1
		c0.2,0.1,0.2,0.4,0.1,0.5l-4,5l5-3.3c0.2-0.1,0.4-0.1,0.5,0.1s0.1,0.4-0.1,0.5l-6.9,4.6C271,511.2,270.9,511.2,270.8,511.2
		L270.8,511.2L270.8,511.2z"/>
	<path class="st2" d="M213.5,558.2c-0.1,0-0.2,0-0.3-0.1c-0.1-0.2-0.1-0.4,0.1-0.5l7.4-6c0.1-0.1,0.4-0.1,0.5,0
		c0.1,0.2,0.1,0.4-0.1,0.5l-7.4,6C213.6,558.2,213.5,558.2,213.5,558.2L213.5,558.2L213.5,558.2z"/>
	<path class="st4" d="M291.2,436.4c0,0,4.8,3,5.9,4.6s3.2,4.6,5.2,5.6c2,1,4.6,0.5,4.7,1.9c0.1,1.5-0.9,3.7-0.9,3.7s1.1,3.6,1.4,6
		c0.2,2.4,0.7,5.2-0.1,5.8c-0.8,0.6-8.9,1.8-8.9,1.8s-2.8,6.6-2.8,9s5.5,7.3,5.5,7.3s-0.5,4.2-3.6,6.1c-3.2,1.9-10.1-1.5-11.5-2.7
		s2-3-0.9-12.2s-6.9-10.6-6-18.5S291.2,436.4,291.2,436.4L291.2,436.4L291.2,436.4z"/>
	<path class="st2" d="M295.1,489.1c-3.6,0-8.2-2.4-9.3-3.4c-0.6-0.6-0.5-1.3-0.2-2.2c0.4-1.6,1.1-4.4-0.8-10.1
		c-1.1-3.5-2.4-5.8-3.5-7.8c-1.8-3.4-3.1-5.8-2.5-10.8c0.9-7.9,11.7-18.3,12.2-18.7c0.1-0.1,0.3-0.1,0.4,0c0.2,0.1,4.9,3.1,6,4.7
		c0.9,1.3,3,4.5,5,5.5c0.8,0.4,1.7,0.5,2.5,0.7c1.2,0.2,2.4,0.4,2.5,1.5c0.1,1.4-0.7,3.3-0.9,3.8c0.2,0.7,1.1,3.8,1.3,5.9
		c0,0.4,0.1,0.7,0.1,1.1c0.3,2.7,0.4,4.4-0.4,5s-7.1,1.6-8.9,1.8c-0.5,1.1-2.7,6.6-2.7,8.7c0,1.8,3.9,5.7,5.4,7.1
		c0.1,0.1,0.1,0.2,0.1,0.3c0,0.2-0.5,4.4-3.8,6.4C297,489,296.1,489.1,295.1,489.1L295.1,489.1L295.1,489.1z M291.3,436.8
		c-1.5,1.5-10.9,11-11.8,18.1c-0.5,4.8,0.7,7.1,2.5,10.4c1.1,2.1,2.4,4.4,3.5,7.9c1.9,5.9,1.2,8.9,0.8,10.5c-0.2,0.9-0.3,1.2,0,1.5
		c1.2,1.1,8.1,4.5,11.1,2.7c2.6-1.6,3.3-4.9,3.4-5.6c-1-0.9-5.5-5.1-5.5-7.5s2.7-8.9,2.8-9.1c0-0.1,0.1-0.2,0.3-0.2
		c3.3-0.5,8.2-1.4,8.8-1.7c0.5-0.4,0.3-2.6,0.1-4.3c0-0.4-0.1-0.7-0.1-1.1c-0.2-2.3-1.3-5.9-1.3-5.9c0-0.1,0-0.2,0-0.2
		c0,0,1-2.2,0.9-3.5c0-0.5-0.6-0.7-1.9-0.9c-0.8-0.1-1.8-0.3-2.6-0.7c-2.1-1-4.2-4-5.3-5.8C296,439.9,292.2,437.4,291.3,436.8
		L291.3,436.8L291.3,436.8z"/>
	<polygon class="st2" points="298.5,465.8 294.9,465.2 296.6,469.5 	"/>
	<path class="st2" d="M296.6,469.9L296.6,469.9c-0.2,0-0.3-0.1-0.3-0.2l-1.7-4.4c0-0.1,0-0.3,0.1-0.4c0.1-0.1,0.2-0.1,0.3-0.1
		l3.6,0.6c0.1,0,0.2,0.1,0.3,0.2c0,0.1,0,0.2,0,0.3l-1.9,3.8C296.9,469.8,296.7,469.9,296.6,469.9L296.6,469.9L296.6,469.9z
		 M295.4,465.6l1.2,3l1.3-2.6L295.4,465.6L295.4,465.6z"/>
	<path class="st2" d="M297.1,449c-0.5,0-0.8-0.1-0.8-0.1c-0.2,0-0.3-0.2-0.3-0.4s0.2-0.3,0.4-0.3c0.1,0,2.6,0.5,3-1.5
		c0-0.2,0.2-0.3,0.4-0.3s0.3,0.2,0.3,0.4c-0.1,0.7-0.5,1.3-1,1.6C298.5,449,297.7,449.1,297.1,449L297.1,449L297.1,449z"/>
	<path class="st2" d="M294.2,446.5c-0.2,0-0.3-0.1-0.4-0.3c-0.2-1.3,0.2-3.8,2.7-4.2c0.2,0,0.4,0.1,0.4,0.3s-0.1,0.4-0.3,0.4
		c-2.4,0.4-2.1,3.3-2.1,3.4C294.5,446.3,294.4,446.5,294.2,446.5L294.2,446.5L294.2,446.5L294.2,446.5z"/>
	<path class="st2" d="M301.4,455.6c-1.9,0-3.1-0.9-3.1-1c-0.2-0.1-0.2-0.3-0.1-0.5s0.3-0.2,0.5-0.1c0.1,0.1,2.4,1.8,5.5,0.1
		c0.2-0.1,0.4,0,0.5,0.1c0.1,0.2,0,0.4-0.1,0.5C303.3,455.4,302.3,455.6,301.4,455.6L301.4,455.6L301.4,455.6z"/>
	<path class="st2" d="M272.5,438.6c0,0,3.4-5.8,9-8c5.6-2.2,9.7-0.9,11.7,1.2c2,2.1,1.8,4.7-1.1,9.5c-2.9,4.7-5,7.2-4.7,8.2
		s2.1,4.8,1.7,6c0,0-3.4-2.8-5.4-0.3s-0.5,6.9,1.6,7.4c2,0.6,4-0.1,4-0.1s-2.2,2.5-2.2,4.8S292,473,292,479s-3.5,10.1-6.3,10
		s-6.3-4.4-8.7-3.7s-1,5.2-3.6,6.4s-3.2-1.1-5,0.3c-1.8,1.5-0.5,3.3-2.2,4s-6.1-1.4-6.6-0.9s0.2,0.7,1,2.9s-0.5,4-3.5,4
		c-3-0.1-7-2.2-6.3-6.6c0.7-4.4,4.1-3.2,4.2-4.7c0.1-1.6-4.1,0.8-4.6-8s3.4-6.9,6-6.9c2.6,0,4.7-3.7,2.1-6.5s-5.6-2.6-3-8.5
		c2.6-5.9,8.1-3.8,9.7-5.3s-2-5.5,1.5-10.9S272.6,438.6,272.5,438.6L272.5,438.6L272.5,438.6z"/>
	<path class="st2" d="M257.4,502.4h-0.3c-1.7-0.1-4-0.8-5.5-2.5c-1-1.2-1.4-2.8-1.2-4.5c0.5-2.9,2.1-3.6,3.2-4
		c0.7-0.3,0.9-0.4,1-0.7c0-0.2,0-0.2-0.6-0.4c-1.3-0.4-3.6-1.2-4-7.5c-0.2-3.4,0.2-5.5,1.3-6.6c1.1-1,2.5-0.9,3.8-0.8
		c0.4,0,0.8,0.1,1.2,0.1c1.1,0,2.2-0.8,2.7-1.9c0.6-1.3,0.3-2.8-0.8-4c-0.6-0.7-1.3-1.2-1.9-1.6c-1.9-1.4-3.3-2.5-1.2-7.2
		c1.8-4.1,5.1-4.5,7.4-4.8c1-0.1,1.9-0.2,2.4-0.6c0.5-0.4,0.3-1.2,0.1-2.5c-0.4-2.1-0.9-4.9,1.3-8.4c3.1-4.8,5.4-5.9,6-6.1
		c0.5-0.9,3.8-5.9,9.1-8c7.3-2.9,11.1,0.3,12.1,1.3c2.2,2.3,1.9,5.1-1.1,9.9c-0.9,1.5-1.7,2.7-2.4,3.8c-1.4,2.1-2.4,3.6-2.3,4.2
		c0.1,0.3,0.3,0.9,0.5,1.5c0.8,2.1,1.5,3.8,1.1,4.7c0,0.1-0.1,0.2-0.2,0.2c-0.1,0-0.2,0-0.3-0.1c0,0-1.7-1.4-3.3-1.3
		c-0.6,0.1-1.1,0.4-1.6,0.9c-0.9,1.1-1.1,2.7-0.6,4.4c0.4,1.3,1.2,2.3,2,2.5c1.9,0.5,3.7-0.1,3.7-0.1c0.2-0.1,0.3,0,0.4,0.1
		c0.1,0.1,0.1,0.3,0,0.4c0,0-2.2,2.4-2.2,4.6c0,0.8,0.8,1.8,1.6,3c1.5,2,3.5,4.8,3.5,8.6c0,3.6-1.2,6.9-3.3,8.9
		c-1.1,1-2.3,1.6-3.4,1.5c-1.4-0.1-2.9-1.1-4.4-2c-1.5-1-3.1-2-4.2-1.7c-1,0.3-1.2,1.4-1.5,2.7c-0.3,1.4-0.6,3-2.1,3.7
		c-1.4,0.7-2.3,0.4-3.1,0.1c-0.6-0.2-1.1-0.4-1.8,0.2c-0.8,0.6-0.9,1.3-1,2c-0.1,0.8-0.2,1.6-1.3,2.1c-1.2,0.5-3.2-0.1-4.8-0.5
		c-0.7-0.2-1.6-0.5-1.8-0.4c0,0,0,0,0,0c0,0,0.1,0.2,0.2,0.4c0.2,0.4,0.6,1,1,2.1c0.4,1.2,0.3,2.3-0.3,3.1
		C260,501.9,258.8,502.3,257.4,502.4L257.4,502.4L257.4,502.4z M253.7,476c-0.7,0-1.4,0.1-2,0.6c-0.9,0.9-1.3,2.9-1.1,6
		c0.4,5.9,2.4,6.5,3.5,6.9c0.5,0.2,1.1,0.4,1.1,1.1c-0.1,0.8-0.8,1.1-1.4,1.3c-1.1,0.4-2.4,0.9-2.7,3.4c-0.2,1.5,0.1,2.9,1,4
		c1.1,1.3,3,2.2,5,2.3c1.4,0.1,2.4-0.3,3-1c0.5-0.6,0.5-1.5,0.2-2.4c-0.3-1-0.7-1.5-0.9-1.9c-0.3-0.5-0.5-1,0-1.4
		c0.4-0.3,1-0.1,2.4,0.3c1.4,0.4,3.3,1,4.3,0.5c0.7-0.3,0.8-0.8,0.9-1.5c0.1-0.7,0.3-1.7,1.2-2.5c1-0.9,1.8-0.6,2.5-0.3
		c0.7,0.2,1.3,0.5,2.5-0.1c1.1-0.5,1.4-1.9,1.7-3.2c0.3-1.4,0.6-2.8,2-3.2c1.4-0.4,3,0.7,4.7,1.8c1.4,0.9,2.8,1.9,4,1.9
		c0.9,0,1.9-0.4,2.9-1.3c1.9-1.9,3.1-5,3.1-8.3c0-3.5-1.8-6.1-3.3-8.1c-1-1.4-1.8-2.4-1.8-3.5c0-1.6,1-3.3,1.7-4.3
		c-0.8,0.1-1.9,0.2-3.1-0.1c-1-0.3-2-1.4-2.5-3c-0.6-1.9-0.3-3.8,0.7-5c0.5-0.7,1.2-1.1,2.1-1.1c1.3-0.1,2.6,0.6,3.3,1
		c-0.1-0.9-0.7-2.6-1.2-3.6c-0.3-0.7-0.5-1.3-0.6-1.6c-0.2-0.9,0.7-2.1,2.4-4.7c0.7-1.1,1.5-2.3,2.4-3.8c2.8-4.5,3.1-7,1.2-9
		c-0.9-1-4.5-3.9-11.3-1.1c-5.5,2.2-8.8,7.8-8.8,7.9c0,0.1-0.1,0.1-0.2,0.2c0,0-2.4,0.7-5.8,5.8c-2,3.2-1.6,5.9-1.2,7.8
		c0.2,1.4,0.4,2.5-0.3,3.2c-0.6,0.5-1.6,0.7-2.8,0.8c-2.3,0.3-5.2,0.6-6.9,4.4c-1.8,4.2-0.8,5,1,6.4c0.6,0.5,1.3,1,2,1.7
		c1.3,1.4,1.6,3.2,0.9,4.8c-0.6,1.4-1.9,2.4-3.3,2.4c-0.4,0-0.8,0-1.2-0.1C254.6,476,254.2,475.9,253.7,476L253.7,476L253.7,476z"/>
	<path class="st2" d="M368,662.2H37.1c-0.2,0-0.4-0.2-0.4-0.4s0.2-0.4,0.4-0.4H368c0.2,0,0.4,0.2,0.4,0.4S368.2,662.2,368,662.2z"/>
	<path class="st2" d="M121.5,731.4c19.6-2.6,39.3-4,59.1-4.3c9.9-0.1,19.8,0,29.7,0.5c9.6,0.4,19.3,1.1,28.9,1.3
		c10.7,0.2,21.5-0.4,32-2.8c0.5-0.1,0.3-0.8-0.2-0.7c-19,4.3-38.6,2.6-57.9,1.6c-19.5-1-39.1-0.9-58.6,0.4c-11,0.7-22.1,1.8-33,3.3
		C121,730.7,121,731.5,121.5,731.4L121.5,731.4L121.5,731.4z"/>
	<path class="st2" d="M143.7,227.9c1.7,0.5,3.6,0.9,4.9,2.2c-0.1-0.1-0.2,0.1-0.1-0.1c0.5-2.4,1.8-5.1,4.5-5.5
		c-1,0.4-1.9,1.1-2.5,1.9c-0.8,1.1-1.1,2.5-1.5,3.8c-0.1,0.1-0.1,0.3-0.3,0.4c-0.1,0-0.2,0-0.3-0.1
		C147.1,229.2,145.3,228.7,143.7,227.9L143.7,227.9z"/>
	<path class="st2" d="M158.7,232.9c1.7,0.5,3.6,0.9,4.9,2.2c-0.1-0.1-0.2,0.1-0.1-0.1c0.5-2.4,1.8-5.1,4.5-5.5
		c-1,0.4-1.9,1.1-2.5,1.9c-0.8,1.1-1.1,2.5-1.5,3.8c-0.1,0.1-0.1,0.3-0.3,0.4c-0.1,0-0.2,0-0.3-0.1
		C162.1,234.3,160.3,233.7,158.7,232.9L158.7,232.9z"/>
	<path class="st2" d="M158.2,218.2c2.3,0.7,4.9,1.3,6.7,3l0.1,0.1c0,0-0.1,0-0.1,0c0.5-2.3,1.6-5.7,4.1-7.1c0.7-0.4,1.4-0.7,2.2-0.8
		c-1.4,0.6-2.7,1.5-3.5,2.7c-1.2,1.6-1.5,3.8-2.3,5.6c-0.1,0.2-0.5,0.3-0.7,0.1C162.9,220,160.4,219.3,158.2,218.2L158.2,218.2
		L158.2,218.2z"/>
	<rect x="0.5" y="0.5" class="st6" width="400" height="880"/>
</g>
</svg>
