<?xml version="1.0" encoding="UTF-8"?><svg id="Capa_2" xmlns="http://www.w3.org/2000/svg" viewBox="0 0 500 500"><defs><style>.cls-1,.cls-2{fill:#fff;}.cls-2{opacity:.7;}.cls-3{fill:#769f95;}.cls-4,.cls-5{fill:none;}.cls-5{stroke:#d33226;stroke-miterlimit:10;}.cls-6{fill:#142ecc;}.cls-7{fill:#252134;}</style></defs><g id="Floor"><path class="cls-3" d="m81.51,164.76S19.87,210.68,15.61,311.82c-4.26,101.14,70.01,154.03,128.11,146.37,58.1-7.66,77.06-37.92,125.21-47.54,48.15-9.62,129.57,20.6,184.62-33.7,55.04-54.3,22.86-169.71-32-249.22-54.87-79.52-237.8-74.52-340.03,37.04Z"/><path class="cls-2" d="m81.51,164.76S19.87,210.68,15.61,311.82c-4.26,101.14,70.01,154.03,128.11,146.37,58.1-7.66,77.06-37.92,125.21-47.54,48.15-9.62,129.57,20.6,184.62-33.7,55.04-54.3,22.86-169.71-32-249.22-54.87-79.52-237.8-74.52-340.03,37.04Z"/><path class="cls-7" d="m361,430.33c1.69.74,5.82.64,5.82.64.04,0-.89-2.7-.97-2.87-.91-1.9-3.77-5.03-6.1-4.71-1.68.23-2.61,1.91-2.23,3.49.39,1.62,2.04,2.82,3.48,3.44Z"/><path class="cls-7" d="m362.42,442.3c1.75.26,5.44-.81,5.73-.9.58,2.06,1.35,4.13,2.24,6.19.51,1.17,1.05,2.34,1.62,3.5-.34-.49-.64-.93-.69-.99-1.38-1.59-4.97-3.85-7.13-2.93-1.56.66-2.02,2.53-1.23,3.96.8,1.46,2.72,2.18,4.27,2.4,1.58.23,4.74-.62,5.57-.85.22.44.44.89.66,1.33,1.07,2.13,2.14,4.24,3.13,6.35.35.74.67,1.49.99,2.23-.3-.44-.55-.8-.6-.85-1.37-1.59-4.97-3.85-7.13-2.93-1.56.66-2.02,2.53-1.23,3.96.8,1.46,2.72,2.18,4.27,2.4,1.5.22,4.43-.54,5.42-.81.3.77.61,1.54.87,2.3.17.52.36,1.02.5,1.55.15.53.29,1.05.44,1.57.24,1.01.5,2.04.71,3.03.15.69.28,1.34.42,2-.34-.74-1.03-2.18-1.11-2.3-1.12-1.78-4.32-4.56-6.6-3.98-1.64.42-2.38,2.2-1.82,3.72.57,1.56,2.35,2.56,3.86,3.02,1.65.51,5.31.04,5.77-.02.22,1.09.42,2.16.6,3.17.09.53.18,1.03.26,1.54h1.46c-.11-.58-.22-1.17-.34-1.8-.22-1.11-.47-2.29-.75-3.51.28-.11,1.84-.74,3.22-1.51,1.2,1.3,4.29,2.83,4.69,3.02-.42,1.03-.84,2.03-1.25,2.97-.12.28-.24.55-.36.82h1.53c.04-.09.08-.18.11-.28.43-1.05.87-2.17,1.31-3.34.44.09,4.06.83,5.75.45,1.53-.35,3.38-1.21,4.07-2.73.67-1.48.07-3.31-1.54-3.85-2.23-.75-5.64,1.78-6.88,3.47-.07.1-.75,1.27-1.17,2.02.18-.48.35-.94.53-1.43.36-.97.68-1.95,1.04-3,.15-.51.31-1.03.47-1.56.17-.52.28-1.08.42-1.63.3-1.27.55-2.58.77-3.9.85.31,3.89,1.37,5.46,1.25,1.57-.11,3.53-.68,4.44-2.08.89-1.36.57-3.26-.94-4.04-2.09-1.08-5.84.91-7.33,2.39-.09.09-1.04,1.28-1.55,1.94.12-.79.25-1.59.35-2.4.29-2.33.51-4.7.74-7.07.07-.72.15-1.44.22-2.17.3.11,3.88,1.45,5.64,1.32,1.57-.11,3.53-.68,4.44-2.08.89-1.36.57-3.26-.94-4.04-2.09-1.08-5.84.91-7.33,2.39-.11.11-1.48,1.82-1.8,2.27.17-1.59.35-3.17.59-4.72.33-2.14.78-4.23,1.36-6.21.14.05,3.87,1.46,5.68,1.33,1.57-.11,3.53-.69,4.44-2.08.89-1.36.57-3.26-.94-4.04-2.09-1.08-5.84.91-7.33,2.39-.12.12-1.58,1.95-1.82,2.3.03-.12.06-.24.09-.36.65-2.11,1.54-4.08,2.46-5.88.54-1.05,1.11-2.02,1.68-2.95.67.33,3.74,1.82,5.37,1.89,1.57.06,3.58-.29,4.64-1.58,1.03-1.26.93-3.18-.49-4.12-1.96-1.3-5.91.26-7.55,1.57-.09.07-.92.9-1.51,1.5.27-.42.53-.85.8-1.25.98-1.48,1.98-2.78,2.87-3.92.51-.64.98-1.22,1.43-1.75.83-.01,4.16-.12,5.61-.8,1.42-.67,3.05-1.91,3.39-3.54.34-1.59-.64-3.25-2.33-3.43-2.34-.25-5.12,2.95-5.97,4.87-.07.17-.93,2.89-.89,2.89,0,0,.04,0,.05,0-.44.5-.91,1.05-1.41,1.65-.92,1.12-1.94,2.4-2.96,3.87-1.02,1.46-2.09,3.08-3.07,4.89-.98,1.81-1.92,3.76-2.62,5.9,0,.02-.01.05-.02.07.01-.69-.02-2.62-.04-2.77-.27-2.08-2.02-5.95-4.33-6.38-1.67-.31-3.08,1-3.21,2.62-.14,1.66,1.06,3.31,2.24,4.36,1.32,1.18,4.98,2.32,5.28,2.41-.65,2.04-1.16,4.19-1.55,6.39-.22,1.26-.41,2.53-.58,3.81,0-.6-.02-1.13-.03-1.2-.27-2.08-2.02-5.95-4.33-6.38-1.67-.31-3.08,1-3.21,2.62-.14,1.66,1.06,3.31,2.24,4.36,1.19,1.06,4.29,2.1,5.12,2.36-.06.49-.13.98-.19,1.48-.28,2.36-.55,4.72-.89,7.02-.12.81-.26,1.61-.41,2.4,0-.53-.02-.98-.03-1.04-.27-2.08-2.02-5.95-4.33-6.38-1.67-.31-3.08,1-3.21,2.62-.14,1.66,1.07,3.31,2.24,4.36,1.13,1.01,3.99,1.99,4.97,2.31-.17.81-.34,1.62-.55,2.4-.15.53-.26,1.05-.44,1.57-.17.52-.33,1.04-.5,1.55-.35.97-.71,1.98-1.08,2.92-.25.66-.5,1.28-.75,1.9.13-.81.34-2.39.35-2.53.03-1.4-.46-3.66-1.45-5.26,0-.21,0-.41-.04-.62-.26-1.61-1.77-2.8-3.41-2.36-2.27.61-3.72,4.6-3.82,6.7,0,.12.07,1.47.14,2.33-.11-.49-.22-.98-.34-1.48-.24-1.01-.51-2-.79-3.08-.16-.51-.31-1.03-.47-1.56-.15-.52-.37-1.06-.55-1.59-.45-1.23-.97-2.45-1.51-3.68.88-.21,4-1,5.25-1.96,1.25-.96,2.57-2.52,2.55-4.18-.01-1.63-1.32-3.03-3.01-2.85-2.34.25-4.37,3.98-4.79,6.04-.03.13-.16,1.64-.23,2.47-.33-.73-.66-1.46-1.03-2.19-1.05-2.11-2.17-4.2-3.28-6.3-.34-.64-.67-1.29-1.01-1.93.31-.07,4.04-.94,5.44-2.01,1.25-.96,2.57-2.52,2.55-4.18-.01-1.63-1.32-3.03-3.01-2.85-2.34.25-4.37,3.98-4.79,6.04-.03.15-.23,2.33-.25,2.88-.74-1.42-1.46-2.84-2.11-4.27-.9-1.97-1.68-3.95-2.3-5.93.15-.03,4.04-.92,5.47-2.02,1.25-.96,2.57-2.52,2.55-4.18-.01-1.63-1.32-3.03-3.01-2.85-2.34.25-4.37,3.98-4.79,6.04-.03.16-.24,2.5-.25,2.93-.04-.12-.09-.24-.12-.35-.63-2.12-.97-4.25-1.19-6.26-.13-1.17-.19-2.29-.23-3.39.74-.09,4.12-.54,5.52-1.39,1.34-.81,2.83-2.22,3-3.87.17-1.62-.98-3.16-2.68-3.16-2.35,0-4.78,3.48-5.43,5.48-.04.11-.27,1.25-.43,2.09,0-.49-.02-1-.02-1.48,0-1.78.12-3.41.23-4.85.07-.82.15-1.56.23-2.25.68-.47,3.4-2.39,4.24-3.76.82-1.34,1.49-3.27.88-4.82-.6-1.51-2.33-2.35-3.83-1.58-2.09,1.08-2.64,5.29-2.29,7.36.03.18.82,2.93.86,2.9,0,0,.03-.02.04-.03-.09.66-.18,1.38-.27,2.16-.14,1.44-.29,3.07-.33,4.86-.05,1.78-.05,3.73.14,5.77.18,2.05.48,4.2,1.07,6.37,0,.02.02.05.02.07-.37-.58-1.46-2.17-1.56-2.29-1.37-1.59-4.97-3.85-7.13-2.93-1.56.66-2.02,2.53-1.23,3.96.8,1.46,2.72,2.18,4.27,2.4Z"/><path class="cls-7" d="m402.77,431.24s.75-2.75.78-2.92c.29-2.08-.37-6.27-2.49-7.3-1.53-.74-3.23.15-3.79,1.68-.57,1.56.15,3.48,1,4.79,1,1.55,4.5,3.75,4.5,3.75Z"/><path class="cls-7" d="m24.67,443.02c1.26.55,4.33.48,4.33.48.03,0-.66-2.01-.72-2.13-.67-1.41-2.81-3.74-4.54-3.51-1.25.17-1.95,1.42-1.66,2.6.29,1.2,1.52,2.1,2.59,2.56Z"/><path class="cls-7" d="m25.73,451.92c1.3.19,4.05-.61,4.27-.67.43,1.54,1,3.08,1.66,4.6.38.87.78,1.74,1.2,2.61-.25-.37-.48-.69-.51-.73-1.02-1.18-3.7-2.87-5.31-2.18-1.16.49-1.5,1.88-.92,2.94.6,1.08,2.02,1.62,3.18,1.79,1.17.17,3.53-.46,4.15-.64.16.33.32.66.49.99.79,1.58,1.59,3.16,2.33,4.73.26.55.5,1.11.73,1.66-.22-.33-.41-.6-.45-.64-1.02-1.18-3.7-2.87-5.31-2.18-1.16.49-1.5,1.88-.92,2.94.6,1.08,2.02,1.62,3.18,1.79,1.12.16,3.3-.4,4.03-.6.23.57.45,1.15.65,1.72.12.39.27.76.37,1.16.11.39.22.78.33,1.17.18.75.37,1.52.53,2.25.11.51.21,1,.31,1.49-.25-.55-.77-1.63-.82-1.71-.83-1.32-3.22-3.39-4.92-2.96-1.22.31-1.77,1.63-1.35,2.77.42,1.16,1.75,1.91,2.87,2.25,1.23.38,3.95.03,4.29-.01.16.81.31,1.61.44,2.36.07.4.13.77.19,1.15h1.08c-.08-.43-.16-.87-.26-1.34-.16-.83-.35-1.71-.56-2.61.2-.08,1.37-.55,2.4-1.13.9.97,3.19,2.11,3.49,2.25-.31.77-.62,1.51-.93,2.21-.09.21-.18.41-.27.61h1.14c.03-.07.06-.13.09-.21.32-.78.65-1.62.98-2.48.33.07,3.03.62,4.28.33,1.14-.26,2.52-.9,3.03-2.03.5-1.1.05-2.46-1.14-2.86-1.66-.56-4.19,1.33-5.12,2.59-.05.07-.56.95-.87,1.5.13-.35.26-.7.4-1.06.27-.72.51-1.45.77-2.23.11-.38.23-.77.35-1.16.12-.38.21-.81.31-1.21.23-.95.41-1.92.57-2.9.63.23,2.89,1.02,4.06.93,1.17-.08,2.63-.51,3.3-1.55.66-1.01.43-2.43-.7-3.01-1.56-.8-4.35.68-5.46,1.78-.07.07-.78.95-1.15,1.44.09-.59.19-1.18.26-1.78.22-1.74.38-3.5.55-5.26.05-.54.11-1.08.17-1.61.22.08,2.89,1.08,4.2.98,1.17-.08,2.63-.51,3.3-1.55.66-1.01.43-2.43-.7-3-1.56-.8-4.35.68-5.46,1.78-.08.08-1.1,1.35-1.34,1.69.13-1.18.26-2.36.44-3.52.25-1.6.58-3.15,1.01-4.63.1.04,2.88,1.09,4.23.99,1.17-.08,2.63-.51,3.3-1.55.66-1.01.43-2.43-.7-3-1.56-.8-4.35.68-5.46,1.78-.09.09-1.18,1.45-1.36,1.71.03-.09.04-.18.07-.27.48-1.57,1.14-3.04,1.83-4.38.4-.78.82-1.5,1.25-2.2.5.25,2.78,1.36,4,1.41,1.17.05,2.67-.22,3.45-1.17.77-.94.69-2.37-.36-3.06-1.46-.97-4.4.2-5.62,1.17-.07.05-.68.67-1.13,1.12.2-.31.4-.63.59-.93.73-1.1,1.47-2.07,2.13-2.92.38-.48.73-.91,1.07-1.3.61-.01,3.09-.09,4.18-.59,1.06-.5,2.27-1.42,2.52-2.63.25-1.18-.48-2.42-1.73-2.55-1.74-.19-3.81,2.2-4.45,3.63-.05.12-.69,2.15-.66,2.15,0,0,.03,0,.04,0-.33.37-.68.78-1.05,1.23-.68.84-1.44,1.79-2.2,2.88-.76,1.09-1.56,2.29-2.28,3.64-.73,1.35-1.43,2.8-1.95,4.39,0,.02,0,.04-.02.06,0-.51-.01-1.95-.03-2.06-.2-1.55-1.5-4.43-3.22-4.75-1.24-.23-2.29.74-2.39,1.95-.1,1.23.79,2.47,1.66,3.24.98.88,3.71,1.73,3.93,1.79-.49,1.52-.86,3.12-1.15,4.76-.17.94-.31,1.89-.43,2.84,0-.44-.02-.84-.02-.9-.2-1.55-1.5-4.43-3.22-4.75-1.24-.23-2.29.74-2.39,1.95-.1,1.23.79,2.47,1.66,3.24.88.79,3.19,1.56,3.81,1.76-.04.37-.09.73-.14,1.1-.21,1.76-.41,3.51-.66,5.23-.09.6-.2,1.2-.3,1.79,0-.39-.01-.73-.02-.78-.2-1.55-1.5-4.43-3.22-4.75-1.24-.23-2.29.74-2.39,1.95-.1,1.23.79,2.47,1.66,3.24.84.75,2.97,1.49,3.7,1.72-.13.6-.25,1.21-.41,1.79-.11.39-.19.78-.33,1.17-.13.39-.25.77-.37,1.15-.26.72-.53,1.47-.8,2.17-.19.49-.37.95-.56,1.41.09-.6.26-1.78.26-1.88.02-1.04-.35-2.73-1.08-3.92,0-.15,0-.31-.03-.46-.19-1.2-1.32-2.08-2.53-1.76-1.69.45-2.77,3.42-2.85,4.98,0,.09.06,1.1.1,1.73-.09-.37-.16-.73-.26-1.1-.18-.75-.38-1.49-.59-2.29-.12-.38-.23-.77-.35-1.16-.11-.39-.27-.79-.41-1.18-.33-.92-.72-1.83-1.13-2.74.66-.16,2.97-.75,3.9-1.46.93-.71,1.91-1.87,1.9-3.11,0-1.21-.98-2.26-2.24-2.12-1.74.19-3.25,2.96-3.57,4.5-.02.1-.12,1.22-.17,1.84-.25-.54-.49-1.09-.76-1.63-.78-1.57-1.61-3.13-2.44-4.69-.25-.48-.5-.96-.75-1.44.23-.05,3-.7,4.05-1.5.93-.71,1.91-1.87,1.9-3.11,0-1.21-.98-2.26-2.24-2.12-1.74.19-3.25,2.96-3.57,4.5-.02.12-.17,1.73-.19,2.15-.55-1.06-1.09-2.11-1.57-3.18-.67-1.47-1.25-2.94-1.71-4.42.11-.02,3-.68,4.07-1.5.93-.71,1.91-1.87,1.9-3.11,0-1.21-.98-2.26-2.24-2.12-1.74.19-3.25,2.96-3.57,4.5-.02.12-.18,1.86-.19,2.18-.03-.09-.06-.17-.09-.26-.47-1.58-.72-3.16-.89-4.66-.1-.87-.14-1.71-.17-2.52.55-.07,3.07-.4,4.11-1.03,1-.61,2.1-1.65,2.23-2.88.12-1.2-.73-2.35-1.99-2.36-1.75,0-3.56,2.59-4.04,4.08-.03.08-.2.93-.32,1.56,0-.37-.02-.75-.02-1.1,0-1.32.09-2.54.17-3.61.05-.61.11-1.16.17-1.68.51-.35,2.53-1.78,3.16-2.8.61-1,1.11-2.44.65-3.59-.44-1.13-1.73-1.75-2.85-1.17-1.56.8-1.97,3.94-1.71,5.48.02.13.61,2.18.64,2.16,0,0,.02-.02.03-.02-.07.49-.14,1.02-.2,1.61-.11,1.07-.22,2.29-.25,3.62-.03,1.33-.03,2.77.1,4.3.14,1.53.36,3.12.8,4.74,0,.02.01.04.02.05-.28-.43-1.09-1.62-1.16-1.7-1.02-1.18-3.7-2.87-5.31-2.18-1.16.49-1.5,1.88-.92,2.95.6,1.08,2.02,1.62,3.18,1.79Z"/><path class="cls-7" d="m55.77,443.69s.56-2.04.58-2.18c.22-1.55-.28-4.67-1.86-5.43-1.14-.55-2.41.11-2.82,1.25-.42,1.16.11,2.59.75,3.57.75,1.15,3.35,2.79,3.35,2.79Z"/><path class="cls-7" d="m348.27,63.49h-121.98c-.16,0-.31-.08-.4-.2-.09-.13-.12-.29-.08-.44.09-.31,2.41-7.61,9.87-9.49,4.16-1.05,6.88-.36,9.28.26,1.82.46,3.4.87,5.26.36,1.88-.51,2.55-1.33,3.66-2.69,1.38-1.68,3.26-3.98,8.53-7.02,5.58-3.22,8.96-1.98,12.24-.78,2.45.9,4.76,1.75,8.01.73,2.95-.92,4.1-2.8,5.44-4.98,2.04-3.33,4.36-7.09,13.69-7.85,14.31-1.15,23.78,14.42,24.97,16.5,1.54.19,3.04.16,4.62.14,2.82-.05,6.02-.1,10.3,1.06,7,1.91,7.08,13.41,7.08,13.9,0,.28-.22.5-.5.5Zm-121.26-1h120.74c-.1-2.2-.83-10.94-6.33-12.44-4.14-1.13-7.13-1.08-10.02-1.03-1.71.03-3.31.06-5.02-.18-.16-.02-.3-.12-.37-.26-.09-.17-9.53-17.4-24.14-16.2-8.82.71-10.9,4.1-12.92,7.37-1.38,2.25-2.69,4.38-6,5.41-3.57,1.11-6.15.16-8.65-.75-3.2-1.17-6.22-2.28-11.39.71-5.11,2.95-6.93,5.17-8.26,6.79-1.15,1.41-1.98,2.42-4.17,3.02-2.12.58-3.89.13-5.77-.35-2.28-.58-4.87-1.24-8.79-.25-5.66,1.42-8.17,6.38-8.91,8.16Z"/><path class="cls-7" d="m249.46,41.54h-67.7c-.16,0-.31-.08-.4-.2-.09-.13-.12-.29-.08-.44.05-.18,1.37-4.34,5.64-5.42,2.36-.59,3.97-.19,5.26.14,1.02.26,1.83.47,2.81.2.97-.27,1.31-.67,1.92-1.42.77-.95,1.84-2.24,4.79-3.95,3.19-1.84,5.2-1.1,6.98-.45,1.32.48,2.57.94,4.3.4,1.56-.48,2.18-1.5,2.9-2.67,1.16-1.89,2.48-4.03,7.77-4.46,7.99-.64,13.13,7.64,14.02,9.17.8.09,1.59.07,2.42.06,1.58-.03,3.37-.06,5.78.6,4.05,1.1,4.1,7.65,4.1,7.93s-.22.5-.5.5Zm-66.96-1h66.44c-.09-1.47-.59-5.72-3.34-6.46-2.27-.62-3.91-.59-5.5-.56-.95.02-1.86.03-2.82-.1-.16-.02-.3-.12-.37-.26-.05-.1-5.22-9.53-13.18-8.88-4.78.39-5.91,2.22-7,3.99-.76,1.23-1.54,2.5-3.45,3.1-2.05.64-3.52.1-4.94-.42-1.73-.63-3.35-1.23-6.14.38-2.8,1.62-3.8,2.83-4.52,3.72-.64.78-1.15,1.4-2.43,1.75-1.23.34-2.24.08-3.32-.19-1.24-.32-2.65-.67-4.77-.14-2.77.7-4.14,2.97-4.66,4.09Z"/><path class="cls-7" d="m478.7,149.7h-67.7c-.16,0-.31-.08-.4-.2-.09-.13-.12-.29-.08-.44.05-.18,1.37-4.34,5.64-5.42,2.37-.59,3.97-.19,5.26.14,1.02.26,1.83.46,2.81.2.97-.27,1.31-.67,1.92-1.42.77-.95,1.83-2.24,4.79-3.95,3.19-1.84,5.2-1.1,6.98-.45,1.32.48,2.57.94,4.3.4,1.56-.48,2.18-1.5,2.9-2.67,1.16-1.89,2.48-4.03,7.77-4.46,7.99-.64,13.13,7.64,14.02,9.17.8.09,1.59.08,2.42.06,1.59-.03,3.37-.06,5.78.6,4.05,1.1,4.09,7.65,4.09,7.93s-.22.5-.5.5Zm-66.96-1h66.44c-.09-1.47-.59-5.72-3.34-6.46-2.27-.62-3.91-.59-5.5-.56-.96.02-1.86.03-2.82-.1-.16-.02-.3-.12-.37-.26-.05-.1-5.2-9.53-13.18-8.88-4.79.39-5.91,2.22-7,3.99-.76,1.23-1.54,2.5-3.45,3.1-2.05.64-3.52.1-4.94-.42-1.73-.63-3.35-1.23-6.14.38-2.8,1.62-3.79,2.83-4.52,3.72-.64.78-1.15,1.4-2.43,1.75-1.23.34-2.24.08-3.32-.19-1.24-.32-2.65-.67-4.77-.14-2.77.7-4.14,2.97-4.66,4.09Z"/><circle class="cls-5" cx="428.39" cy="63.18" r="21.26"/><path class="cls-5" d="m428.31,85.27c-12.35,0-22.39-10.04-22.39-22.39s10.04-22.39,22.39-22.39c10.15,0,19.05,6.85,21.65,16.65.07.27-.09.54-.36.61-.27.07-.54-.09-.61-.36-2.48-9.36-10.98-15.9-20.68-15.9-11.79,0-21.39,9.6-21.39,21.39s9.6,21.39,21.39,21.39,21.39-9.6,21.39-21.39c0-.41-.01-.82-.03-1.23-.02-.28.2-.51.47-.53.31,0,.51.2.53.47.02.43.04.86.04,1.29,0,12.35-10.04,22.39-22.39,22.39Z"/><path class="cls-5" d="m468.79,63.38h-12.63c-.28,0-.5-.22-.5-.5s.22-.5.5-.5h12.63c.28,0,.5.22.5.5s-.22.5-.5.5Z"/><path class="cls-5" d="m400.46,63.38h-12.63c-.28,0-.5-.22-.5-.5s.22-.5.5-.5h12.63c.28,0,.5.22.5.5s-.22.5-.5.5Z"/><path class="cls-5" d="m448,43.69c-.13,0-.26-.05-.35-.15-.2-.2-.2-.51,0-.71l8.93-8.93c.2-.2.51-.2.71,0,.2.2.2.51,0,.71l-8.93,8.93c-.1.1-.23.15-.35.15Z"/><path class="cls-5" d="m399.69,92c-.13,0-.26-.05-.35-.15-.2-.2-.2-.51,0-.71l8.93-8.93c.2-.2.51-.2.71,0,.2.2.2.51,0,.71l-8.93,8.93c-.1.1-.23.15-.35.15Z"/><path class="cls-5" d="m408.62,43.69c-.13,0-.26-.05-.35-.15l-1.98-1.98c-.2-.2-.2-.51,0-.71s.51-.2.71,0l1.98,1.98c.2.2.2.51,0,.71-.1.1-.23.15-.35.15Z"/><path class="cls-5" d="m404.69,39.75c-.13,0-.26-.05-.35-.15l-5-5c-.2-.2-.2-.51,0-.71.2-.2.51-.2.71,0l5,5c.2.2.2.51,0,.71-.1.1-.23.15-.35.15Z"/><path class="cls-5" d="m456.93,92c-.13,0-.26-.05-.35-.15l-8.93-8.93c-.2-.2-.2-.51,0-.71s.51-.2.71,0l8.93,8.93c.2.2.2.51,0,.71-.1.1-.23.15-.35.15Z"/><path class="cls-5" d="m428.31,35.53c-.28,0-.5-.22-.5-.5v-12.63c0-.28.22-.5.5-.5s.5.22.5.5v12.63c0,.28-.22.5-.5.5Z"/><path class="cls-5" d="m428.31,103.85c-.28,0-.5-.22-.5-.5v-12.63c0-.28.22-.5.5-.5s.5.22.5.5v12.63c0,.28-.22.5-.5.5Z"/><rect class="cls-7" x="115.71" y="339.2" width="6.17" height="140.39"/><path class="cls-7" d="m121.88,480.09h-6.17c-.28,0-.5-.22-.5-.5v-140.39c0-.28.22-.5.5-.5h6.17c.28,0,.5.22.5.5v140.39c0,.28-.22.5-.5.5Zm-5.67-1h5.17v-139.39h-5.17v139.39Z"/><rect class="cls-7" x="287.38" y="339.2" width="6.17" height="140.39"/><path class="cls-7" d="m293.55,480.09h-6.17c-.28,0-.5-.22-.5-.5v-140.39c0-.28.22-.5.5-.5h6.17c.28,0,.5.22.5.5v140.39c0,.28-.22.5-.5.5Zm-5.67-1h5.17v-139.39h-5.17v139.39Z"/><rect class="cls-7" x="237.97" y="403.71" width="6.17" height="75.89"/><path class="cls-7" d="m244.14,480.09h-6.17c-.28,0-.5-.22-.5-.5v-75.89c0-.28.22-.5.5-.5h6.17c.28,0,.5.22.5.5v75.89c0,.28-.22.5-.5.5Zm-5.67-1h5.17v-74.89h-5.17v74.89Z"/><rect class="cls-7" x="62" y="403.71" width="6.17" height="75.89"/><path class="cls-7" d="m68.17,480.09h-6.17c-.28,0-.5-.22-.5-.5v-75.89c0-.28.22-.5.5-.5h6.17c.28,0,.5.22.5.5v75.89c0,.28-.22.5-.5.5Zm-5.67-1h5.17v-74.89h-5.17v74.89Z"/><rect class="cls-1" x="100.65" y="329.5" width="203.44" height="20.38"/><path class="cls-7" d="m304.09,350.38H100.65c-.28,0-.5-.22-.5-.5v-20.38c0-.28.22-.5.5-.5h203.44c.28,0,.5.22.5.5v20.38c0,.28-.22.5-.5.5Zm-202.94-1h202.44v-19.38H101.15v19.38Z"/><rect class="cls-1" x="100.65" y="353.76" width="203.44" height="20.38"/><path class="cls-7" d="m304.09,374.65H100.65c-.28,0-.5-.22-.5-.5v-20.38c0-.28.22-.5.5-.5h203.44c.28,0,.5.22.5.5v20.38c0,.28-.22.5-.5.5Zm-202.94-1h202.44v-19.38H101.15v19.38Z"/><rect class="cls-1" x="98.1" y="329.5" width="203.44" height="20.38"/><path class="cls-7" d="m301.54,350.38H98.1c-.28,0-.5-.22-.5-.5v-20.38c0-.28.22-.5.5-.5h203.44c.28,0,.5.22.5.5v20.38c0,.28-.22.5-.5.5Zm-202.94-1h202.44v-19.38H98.6v19.38Z"/><rect class="cls-1" x="98.1" y="353.76" width="203.44" height="20.38"/><path class="cls-7" d="m301.54,374.65H98.1c-.28,0-.5-.22-.5-.5v-20.38c0-.28.22-.5.5-.5h203.44c.28,0,.5.22.5.5v20.38c0,.28-.22.5-.5.5Zm-202.94-1h202.44v-19.38H98.6v19.38Z"/><rect class="cls-1" x="49.66" y="401.33" width="254.42" height="6.79"/><path class="cls-7" d="m304.09,408.62H49.66c-.28,0-.5-.22-.5-.5v-6.8c0-.28.22-.5.5-.5h254.42c.28,0,.5.22.5.5v6.8c0,.28-.22.5-.5.5Zm-253.92-1h253.42v-5.8H50.16v5.8Z"/><rect class="cls-1" x="255.67" y="401.33" width="48.42" height="6.79"/><path class="cls-7" d="m304.09,408.62h-48.42c-.28,0-.5-.22-.5-.5v-6.8c0-.28.22-.5.5-.5h48.42c.28,0,.5.22.5.5v6.8c0,.28-.22.5-.5.5Zm-47.92-1h47.42v-5.8h-47.42v5.8Z"/><path class="cls-7" d="m280.58,408.42c-.28,0-.5-.22-.5-.5v-6.52c0-.28.22-.5.5-.5s.5.22.5.5v6.52c0,.28-.22.5-.5.5Z"/><path class="cls-7" d="m282.54,408.42c-.28,0-.5-.22-.5-.5v-6.52c0-.28.22-.5.5-.5s.5.22.5.5v6.52c0,.28-.22.5-.5.5Z"/><circle class="cls-1" cx="275.57" cy="178.76" r="13.27"/><path class="cls-7" d="m275.12,197.8c-1.1,0-1.82-1.3-2.51-2.57-.45-.82-1.02-1.83-1.46-1.95-.48-.13-1.51.49-2.33.98-1.26.76-2.46,1.48-3.37.95-.93-.54-.9-1.94-.87-3.43.02-.95.04-2.13-.3-2.48-.34-.34-1.53-.32-2.48-.3-1.49.03-2.89.05-3.43-.87-.53-.91.19-2.11.95-3.37.49-.82,1.11-1.85.98-2.33-.12-.45-1.14-1.01-1.95-1.46-1.26-.7-2.56-1.42-2.56-2.51s1.3-1.82,2.56-2.51c.82-.45,1.84-1.02,1.96-1.46.13-.48-.49-1.51-.98-2.33-.76-1.26-1.48-2.46-.95-3.37.54-.93,1.94-.9,3.43-.87.95.02,2.13.04,2.48-.3s.32-1.53.3-2.48c-.03-1.49-.05-2.89.87-3.43.91-.53,2.11.19,3.37.95.82.49,1.85,1.11,2.33.98.45-.12,1.01-1.14,1.46-1.95.7-1.26,1.42-2.56,2.51-2.56s1.82,1.3,2.51,2.56c.45.82,1.02,1.84,1.46,1.96.49.13,1.51-.49,2.33-.98,1.27-.76,2.46-1.47,3.37-.95.93.54.9,1.94.87,3.43-.02.95-.04,2.13.3,2.48.34.34,1.52.32,2.48.3,1.49-.02,2.89-.05,3.43.87.53.91-.19,2.11-.95,3.37-.5.82-1.11,1.85-.98,2.34.12.45,1.14,1.01,1.95,1.46,1.26.7,2.56,1.42,2.56,2.51s-1.3,1.82-2.56,2.51c-.82.45-1.83,1.02-1.95,1.46-.13.48.49,1.51.98,2.34.76,1.26,1.47,2.46.95,3.37-.54.93-1.94.9-3.43.87-.95-.02-2.13-.04-2.48.3-.34.34-.32,1.53-.3,2.48.03,1.49.05,2.89-.87,3.43-.91.53-2.11-.19-3.37-.95-.83-.5-1.85-1.11-2.34-.98-.45.12-1.01,1.14-1.46,1.95-.7,1.26-1.42,2.57-2.51,2.57Zm-4.12-5.54c.14,0,.27.02.4.05.86.23,1.45,1.3,2.08,2.44.48.86,1.13,2.05,1.64,2.05s1.16-1.18,1.64-2.05c.63-1.14,1.22-2.21,2.08-2.44.89-.24,1.97.41,3.11,1.09.82.49,1.95,1.17,2.35.94.42-.24.39-1.57.37-2.55-.02-1.32-.05-2.56.6-3.2.64-.64,1.89-.62,3.2-.6.98.02,2.3.04,2.55-.38.23-.4-.44-1.53-.94-2.35-.68-1.14-1.33-2.21-1.09-3.11.23-.86,1.3-1.45,2.44-2.08.86-.48,2.05-1.13,2.05-1.64s-1.18-1.16-2.05-1.64c-1.13-.63-2.21-1.22-2.44-2.08-.24-.89.41-1.97,1.09-3.11.49-.82,1.17-1.95.94-2.35-.24-.42-1.57-.39-2.55-.37-1.32.02-2.56.05-3.2-.6-.64-.64-.62-1.89-.6-3.2.02-.97.04-2.3-.37-2.55-.4-.23-1.53.44-2.36.94-1.14.68-2.21,1.33-3.11,1.09-.86-.23-1.45-1.3-2.08-2.44-.48-.86-1.13-2.05-1.64-2.05s-1.16,1.18-1.64,2.05c-.63,1.13-1.22,2.21-2.08,2.44-.89.24-1.97-.41-3.11-1.09-.82-.49-1.95-1.17-2.35-.94-.42.24-.39,1.57-.37,2.55.02,1.32.05,2.56-.6,3.2-.64.64-1.89.62-3.2.6-.97-.02-2.31-.04-2.55.37-.23.4.44,1.53.94,2.36.68,1.14,1.33,2.21,1.09,3.11-.23.86-1.3,1.45-2.44,2.08-.86.48-2.05,1.13-2.05,1.64s1.18,1.16,2.05,1.64c1.13.63,2.21,1.22,2.44,2.08.24.89-.41,1.97-1.09,3.11-.49.82-1.17,1.95-.94,2.35.24.42,1.57.39,2.55.38,1.32-.02,2.56-.05,3.2.6.64.64.62,1.89.6,3.2-.02.97-.04,2.31.37,2.55.4.23,1.53-.44,2.36-.94.97-.58,1.9-1.14,2.71-1.14Z"/><path class="cls-7" d="m275.12,191.71c-7.32,0-13.27-5.95-13.27-13.27s5.96-13.27,13.27-13.27,13.27,5.96,13.27,13.27-5.95,13.27-13.27,13.27Zm0-25.55c-6.77,0-12.27,5.51-12.27,12.27s5.51,12.27,12.27,12.27,12.27-5.51,12.27-12.27-5.51-12.27-12.27-12.27Z"/><path class="cls-7" d="m284.45,216.92c-.12,0-.24-.04-.33-.13l-9.87-8.88-11.88,8.66c-.17.13-.41.13-.58,0-.17-.12-.25-.35-.19-.55l5.75-19.36c.08-.26.36-.42.62-.34.26.08.42.36.34.62l-5.33,17.94,11.01-8.03c.19-.14.45-.13.63.03l9.21,8.29-1.99-19.02c-.03-.27.17-.52.44-.55.29-.03.52.17.55.44l2.13,20.31c.02.21-.09.4-.27.5-.07.04-.15.05-.23.05Z"/><path class="cls-7" d="m274.79,186.66s-.05,0-.08,0c-.27-.04-.46-.3-.41-.57l2.09-12.98-6.12,4.81c-.22.17-.53.13-.7-.08-.17-.22-.13-.53.08-.7l7.12-5.6c.16-.13.38-.14.56-.04.18.1.27.31.24.51l-2.29,14.24c-.04.25-.25.42-.49.42Z"/><path class="cls-7" d="m277.84,187.93s-.05,0-.08,0l-6.61-1.02c-.27-.04-.46-.3-.42-.57.04-.27.3-.46.57-.42l6.61,1.02c.27.04.46.3.42.57-.04.25-.25.42-.49.42Z"/><path class="cls-7" d="m70.55,293.79c-4.47,0-7.18-.42-7.27-.43-.27-.04-.46-.3-.41-.57.04-.27.3-.46.57-.41.29.05,29.44,4.5,55.3-16.66.21-.18.53-.14.7.07.17.21.14.53-.07.7-18.37,15.03-38.38,17.31-48.82,17.31Z"/><path class="cls-7" d="m194.06,189.83c-.05,0-.1,0-.15-.02-.13-.04-.23-.13-.29-.25l-9.7-18.7c-.13-.25-.03-.55.21-.67l29.36-15.22-2.82-5.44c-.08-.16-.07-.35.02-.5.1-.15.26-.25.44-.23l34.29,1.55c.18,0,.34.11.42.27.08.16.07.35-.02.5l-18.49,28.92c-.1.15-.28.24-.44.23-.18,0-.34-.11-.42-.27l-2.82-5.44-19.75,10.24c-.24.13-.55.03-.67-.21-.13-.25-.03-.55.21-.67l20.19-10.47c.24-.13.55-.03.67.21l2.65,5.12,17.56-27.46-32.56-1.48,2.65,5.12c.06.12.07.25.03.38-.04.13-.13.23-.25.29l-29.36,15.22,9.24,17.81,6.19-3.21c.24-.13.55-.03.67.21.13.25.03.55-.21.67l-6.64,3.44c-.07.04-.15.06-.23.06Z"/><path class="cls-7" d="m242.47,160.95c-.09,0-.18-.02-.27-.08-.23-.15-.3-.46-.16-.69l2.58-4.09c.15-.23.46-.3.69-.16.23.15.3.46.16.69l-2.58,4.09c-.09.15-.26.23-.42.23Z"/><path class="cls-7" d="m193.09,195.17c-.05,0-.1,0-.15-.02-.13-.04-.23-.13-.29-.25l-9.91-20.04c-.12-.25-.02-.55.23-.67.25-.12.55-.02.67.23l9.68,19.58,28.83-15.17c.12-.06.26-.08.39-.03.13.04.24.14.29.26l3.13,6.66,13.54-21.48c.15-.23.46-.3.69-.16.23.15.3.46.16.69l-14.03,22.25c-.1.15-.27.24-.45.23-.18-.01-.34-.12-.42-.29l-3.3-7.01-28.82,15.17c-.07.04-.15.06-.23.06Z"/><circle class="cls-1" cx="138.92" cy="246.9" r="13.27"/><path class="cls-7" d="m138.87,260.87c-7.81,0-14.16-6.35-14.16-14.16s6.35-14.16,14.16-14.16c6.42,0,12.05,4.33,13.69,10.53.07.27-.09.54-.36.61-.27.07-.54-.09-.61-.36-1.52-5.76-6.76-9.78-12.72-9.78-7.26,0-13.16,5.9-13.16,13.16s5.9,13.16,13.16,13.16,13.16-5.9,13.16-13.16c0-.25,0-.51-.02-.76-.02-.28.2-.51.47-.53.28-.02.51.2.53.47.02.27.02.54.02.81,0,7.81-6.35,14.16-14.16,14.16Z"/><path class="cls-7" d="m164.13,247.21h-7.88c-.28,0-.5-.22-.5-.5s.22-.5.5-.5h7.88c.28,0,.5.22.5.5s-.22.5-.5.5Z"/><path class="cls-7" d="m121.49,247.21h-7.88c-.28,0-.5-.22-.5-.5s.22-.5.5-.5h7.88c.28,0,.5.22.5.5s-.22.5-.5.5Z"/><path class="cls-7" d="m151.15,234.92c-.13,0-.26-.05-.35-.15-.2-.2-.2-.51,0-.71l5.57-5.57c.2-.2.51-.2.71,0s.2.51,0,.71l-5.57,5.57c-.1.1-.23.15-.35.15Z"/><path class="cls-7" d="m121.01,265.07c-.13,0-.26-.05-.35-.15-.2-.2-.2-.51,0-.71l5.57-5.57c.2-.2.51-.2.71,0s.2.51,0,.71l-5.57,5.57c-.1.1-.23.15-.35.15Z"/><path class="cls-7" d="m126.58,234.92c-.13,0-.26-.05-.35-.15l-1.23-1.23c-.2-.2-.2-.51,0-.71s.51-.2.71,0l1.23,1.23c.2.2.2.51,0,.71-.1.1-.23.15-.35.15Z"/><path class="cls-7" d="m124.13,232.46c-.13,0-.26-.05-.35-.15l-3.12-3.12c-.2-.2-.2-.51,0-.71.2-.2.51-.2.71,0l3.12,3.12c.2.2.2.51,0,.71-.1.1-.23.15-.35.15Z"/><path class="cls-7" d="m156.73,265.07c-.13,0-.26-.05-.35-.15l-5.57-5.57c-.2-.2-.2-.51,0-.71s.51-.2.71,0l5.57,5.57c.2.2.2.51,0,.71-.1.1-.23.15-.35.15Z"/><path class="cls-7" d="m138.87,229.83c-.28,0-.5-.22-.5-.5v-7.88c0-.28.22-.5.5-.5s.5.22.5.5v7.88c0,.28-.22.5-.5.5Z"/><path class="cls-7" d="m138.87,272.47c-.28,0-.5-.22-.5-.5v-7.88c0-.28.22-.5.5-.5s.5.22.5.5v7.88c0,.28-.22.5-.5.5Z"/><path class="cls-1" d="m137.29,118.15c-1.06-4.01-4.72-6.97-9.06-6.97-5.18,0-9.37,4.2-9.37,9.37s4.2,9.37,9.37,9.37,9.37-4.2,9.37-9.37c0-.18,0-.36-.02-.54"/><path class="cls-7" d="m128.23,131.38c-5.97,0-10.83-4.86-10.83-10.83s4.86-10.83,10.83-10.83c4.91,0,9.22,3.31,10.47,8.05.07.27-.09.54-.36.61-.27.07-.54-.09-.61-.36-1.14-4.3-5.05-7.31-9.5-7.31-5.42,0-9.83,4.41-9.83,9.83s4.41,9.83,9.83,9.83,9.83-4.41,9.83-9.83c0-.19,0-.38-.02-.57-.02-.28.2-.51.47-.53.27-.04.51.2.53.47.01.21.02.41.02.62,0,5.97-4.86,10.83-10.83,10.83Z"/><path class="cls-7" d="m147.33,121.05h-5.96c-.28,0-.5-.22-.5-.5s.22-.5.5-.5h5.96c.28,0,.5.22.5.5s-.22.5-.5.5Z"/><path class="cls-7" d="m115.09,121.05h-5.96c-.28,0-.5-.22-.5-.5s.22-.5.5-.5h5.96c.28,0,.5.22.5.5s-.22.5-.5.5Z"/><path class="cls-7" d="m137.52,111.76c-.13,0-.26-.05-.35-.15-.2-.2-.2-.51,0-.71l4.22-4.22c.2-.2.51-.2.71,0s.2.51,0,.71l-4.22,4.22c-.1.1-.23.15-.35.15Z"/><path class="cls-7" d="m114.72,134.56c-.13,0-.26-.05-.35-.15-.2-.2-.2-.51,0-.71l4.21-4.21c.2-.2.51-.2.71,0s.2.51,0,.71l-4.21,4.21c-.1.1-.23.15-.35.15Z"/><path class="cls-7" d="m118.94,111.76c-.13,0-.26-.05-.35-.15l-.93-.93c-.2-.2-.2-.51,0-.71.2-.2.51-.2.71,0l.93.93c.2.2.2.51,0,.71-.1.1-.23.15-.35.15Z"/><path class="cls-7" d="m117.08,109.9c-.13,0-.26-.05-.35-.15l-2.36-2.36c-.2-.2-.2-.51,0-.71s.51-.2.71,0l2.36,2.36c.2.2.2.51,0,.71-.1.1-.23.15-.35.15Z"/><path class="cls-7" d="m141.74,134.56c-.13,0-.26-.05-.35-.15l-4.22-4.21c-.2-.2-.2-.51,0-.71.2-.2.51-.2.71,0l4.22,4.21c.2.2.2.51,0,.71-.1.1-.23.15-.35.15Z"/><path class="cls-7" d="m128.23,107.91c-.28,0-.5-.22-.5-.5v-5.96c0-.28.22-.5.5-.5s.5.22.5.5v5.96c0,.28-.22.5-.5.5Z"/><path class="cls-7" d="m128.23,140.15c-.28,0-.5-.22-.5-.5v-5.96c0-.28.22-.5.5-.5s.5.22.5.5v5.96c0,.28-.22.5-.5.5Z"/><path class="cls-7" d="m195.57,225.01c-.28,0-.5-.22-.5-.5v-2.46h-4.93c-3.54,0-6.42-2.88-6.42-6.42s2.88-6.42,6.42-6.42h4.93v-4.93c0-3.54,2.88-6.42,6.42-6.42,2.64,0,4.98,1.58,5.96,4.03.1.26-.02.55-.28.65-.26.1-.55-.02-.65-.28-.83-2.07-2.8-3.41-5.03-3.41-2.99,0-5.42,2.43-5.42,5.42v5.43c0,.28-.22.5-.5.5h-5.43c-2.99,0-5.42,2.43-5.42,5.42s2.43,5.42,5.42,5.42h5.43c.28,0,.5.22.5.5v2.96c0,.28-.22.5-.5.5Z"/><path class="cls-7" d="m201.49,233.4c-3.54,0-6.42-2.88-6.42-6.42,0-.28.22-.5.5-.5s.5.22.5.5c0,2.99,2.43,5.42,5.42,5.42s5.42-2.43,5.42-5.42v-5.43c0-.28.22-.5.5-.5h5.43c2.99,0,5.42-2.43,5.42-5.42s-2.43-5.42-5.42-5.42h-5.43c-.28,0-.5-.22-.5-.5v-5.43c0-.28.22-.5.5-.5s.5.22.5.5v4.93h4.93c3.54,0,6.42,2.88,6.42,6.42s-2.88,6.42-6.42,6.42h-4.93v4.93c0,3.54-2.88,6.42-6.42,6.42Z"/><path class="cls-7" d="m103.54,161.85c-2.28,0-4.14-1.86-4.14-4.14v-2.83h-1.59c-.28,0-.5-.22-.5-.5s.22-.5.5-.5h2.09c.28,0,.5.22.5.5v3.33c0,1.73,1.41,3.14,3.14,3.14s3.14-1.41,3.14-3.14v-3.33c0-.28.22-.5.5-.5h3.33c1.73,0,3.14-1.41,3.14-3.14s-1.41-3.14-3.14-3.14h-3.33c-.28,0-.5-.22-.5-.5v-3.33c0-1.73-1.41-3.14-3.14-3.14s-3.14,1.41-3.14,3.14v3.33c0,.28-.22.5-.5.5h-3.33c-1.73,0-3.14,1.41-3.14,3.14,0,1.26.75,2.4,1.92,2.89.25.11.37.4.27.66-.11.25-.4.37-.66.27-1.54-.65-2.53-2.15-2.53-3.81,0-2.28,1.86-4.14,4.14-4.14h2.83v-2.83c0-2.28,1.86-4.14,4.14-4.14s4.14,1.86,4.14,4.14v2.83h2.83c2.28,0,4.14,1.86,4.14,4.14s-1.86,4.14-4.14,4.14h-2.83v2.83c0,2.28-1.86,4.14-4.14,4.14Z"/><path class="cls-3" d="m254.29,122.99h-3.33v-3.33c0-2.01-1.63-3.64-3.64-3.64s-3.64,1.63-3.64,3.64v3.33h-3.33c-2.01,0-3.64,1.63-3.64,3.64h0c0,2.01,1.63,3.64,3.64,3.64h3.33v3.33c0,2.01,1.63,3.64,3.64,3.64s3.64-1.63,3.64-3.64v-3.33h3.33c2.01,0,3.64-1.63,3.64-3.64h0c0-2.01-1.63-3.64-3.64-3.64Z"/><path class="cls-7" d="m247.32,137.73c-2.28,0-4.14-1.86-4.14-4.14v-2.83h-2.83c-2.28,0-4.14-1.86-4.14-4.14s1.86-4.14,4.14-4.14h2.83v-2.83c0-2.28,1.86-4.14,4.14-4.14s4.14,1.86,4.14,4.14v2.83h2.83c2.28,0,4.14,1.86,4.14,4.14s-1.86,4.14-4.14,4.14h-2.83v2.83c0,2.28-1.86,4.14-4.14,4.14Zm-6.97-14.25c-1.73,0-3.14,1.41-3.14,3.14s1.41,3.14,3.14,3.14h3.33c.28,0,.5.22.5.5v3.33c0,1.73,1.41,3.14,3.14,3.14s3.14-1.41,3.14-3.14v-3.33c0-.28.22-.5.5-.5h3.33c1.73,0,3.14-1.41,3.14-3.14s-1.41-3.14-3.14-3.14h-3.33c-.28,0-.5-.22-.5-.5v-3.33c0-1.73-1.41-3.14-3.14-3.14s-3.14,1.41-3.14,3.14v3.33c0,.28-.22.5-.5.5h-3.33Z"/><path class="cls-3" d="m239,264.72h-3.33v-3.33c0-2.01-1.63-3.64-3.64-3.64s-3.64,1.63-3.64,3.64v3.33h-3.33c-2.01,0-3.64,1.63-3.64,3.64h0c0,2.01,1.63,3.64,3.64,3.64h3.33v3.33c0,2.01,1.63,3.64,3.64,3.64s3.64-1.63,3.64-3.64v-3.33h3.33c2.01,0,3.64-1.63,3.64-3.64h0c0-2.01-1.63-3.64-3.64-3.64Z"/><path class="cls-7" d="m232.03,279.47c-2.28,0-4.14-1.86-4.14-4.14v-2.83h-2.83c-2.28,0-4.14-1.86-4.14-4.14s1.86-4.14,4.14-4.14h2.83v-2.83c0-2.28,1.86-4.14,4.14-4.14s4.14,1.86,4.14,4.14v2.83h2.83c2.28,0,4.14,1.86,4.14,4.14s-1.86,4.14-4.14,4.14h-2.83v2.83c0,2.28-1.86,4.14-4.14,4.14Zm-6.97-14.25c-1.73,0-3.14,1.41-3.14,3.14s1.41,3.14,3.14,3.14h3.33c.28,0,.5.22.5.5v3.33c0,1.73,1.41,3.14,3.14,3.14s3.14-1.41,3.14-3.14v-3.33c0-.28.22-.5.5-.5h3.33c1.73,0,3.14-1.41,3.14-3.14s-1.41-3.14-3.14-3.14h-3.33c-.28,0-.5-.22-.5-.5v-3.33c0-1.73-1.41-3.14-3.14-3.14s-3.14,1.41-3.14,3.14v3.33c0,.28-.22.5-.5.5h-3.33Z"/><path class="cls-3" d="m67.3,234.71h-3.33v-3.33c0-2.01-1.63-3.64-3.64-3.64s-3.64,1.63-3.64,3.64v3.33h-3.33c-2.01,0-3.64,1.63-3.64,3.64h0c0,2.01,1.63,3.64,3.64,3.64h3.33v3.33c0,2.01,1.63,3.64,3.64,3.64s3.64-1.63,3.64-3.64v-3.33h3.33c2.01,0,3.64-1.63,3.64-3.64h0c0-2.01-1.63-3.64-3.64-3.64Z"/><path class="cls-7" d="m60.33,249.46c-2.28,0-4.14-1.86-4.14-4.14v-2.83h-2.83c-2.28,0-4.14-1.86-4.14-4.14s1.86-4.14,4.14-4.14h2.83v-2.83c0-2.28,1.86-4.14,4.14-4.14s4.14,1.86,4.14,4.14v2.83h2.83c2.28,0,4.14,1.86,4.14,4.14s-1.86,4.14-4.14,4.14h-2.83v2.83c0,2.28-1.86,4.14-4.14,4.14Zm-6.97-14.25c-1.73,0-3.14,1.41-3.14,3.14s1.41,3.14,3.14,3.14h3.33c.28,0,.5.22.5.5v3.33c0,1.73,1.41,3.14,3.14,3.14s3.14-1.41,3.14-3.14v-3.33c0-.28.22-.5.5-.5h3.33c1.73,0,3.14-1.41,3.14-3.14s-1.41-3.14-3.14-3.14h-3.33c-.28,0-.5-.22-.5-.5v-3.33c0-1.73-1.41-3.14-3.14-3.14s-3.14,1.41-3.14,3.14v3.33c0,.28-.22.5-.5.5h-3.33Z"/><path class="cls-7" d="m69.83,188.34c-1.97,0-4.07-2.48-4.38-8.09,0-.14.05-.28.15-.38.88-.87,1.8-1.95,2.73-3.2.11-.15.28-.22.46-.2.5.06,1.02.04,1.5-.05.16-.03.33.02.45.14.01.01.03.03.04.04,1,1.2,1.99,2.22,2.92,3.04.11.09.17.23.17.38.01,5.68-1.98,8.27-3.97,8.33-.02,0-.05,0-.07,0Zm-3.37-7.92c.3,4.56,1.91,6.92,3.37,6.92.01,0,.03,0,.04,0,1.48-.04,2.96-2.5,3-7.11-.86-.77-1.76-1.71-2.68-2.78-.4.06-.81.07-1.23.04-.85,1.13-1.69,2.11-2.51,2.93Z"/><path class="cls-7" d="m60.5,175.65c-5.63,0-8.22-1.99-8.27-3.97-.06-1.99,2.42-4.13,8.09-4.45.15-.01.28.04.38.15.87.88,1.95,1.8,3.21,2.74.14.11.22.28.2.46-.06.51-.05,1.01.04,1.51.03.18-.03.36-.17.47-1.2,1.01-2.22,1.99-3.04,2.92-.11.12-.27.17-.43.17Zm-.35-7.41c-4.6.31-6.96,1.94-6.92,3.41.04,1.48,2.5,2.96,7.11,3,.77-.86,1.71-1.76,2.78-2.67-.05-.41-.07-.82-.04-1.23-1.13-.85-2.11-1.69-2.93-2.51Z"/><path class="cls-7" d="m68.39,165.94c-.15,0-.29-.06-.38-.18-.45-.54-.9-1.04-1.34-1.51-.19-.2-.18-.52.02-.71.2-.19.52-.18.71.02.39.42.79.86,1.2,1.34.41-.05.82-.07,1.23-.04.85-1.13,1.69-2.11,2.5-2.93-.31-4.6-1.96-7.01-3.41-6.92-1.5.04-3.01,2.58-3,7.33,0,.28-.22.5-.5.5h0c-.28,0-.5-.22-.5-.5-.01-5.68,1.98-8.27,3.97-8.33,1.97-.05,4.13,2.42,4.45,8.09,0,.14-.05.28-.15.38-.88.87-1.81,1.95-2.73,3.21-.11.14-.29.22-.46.2-.5-.06-1.01-.05-1.51.04-.03,0-.06,0-.09,0Z"/><path class="cls-7" d="m78.44,175.12c-.13,0-.26-.05-.36-.15-.87-.88-1.95-1.8-3.21-2.74-.12-.11-.23-.31-.2-.47.06-.49.05-1.01-.04-1.5-.03-.18.03-.36.17-.47,1.2-1,2.22-1.98,3.04-2.92.11-.12.27-.17.43-.17,5.63,0,8.22,1.99,8.27,3.97.06,1.99-2.42,4.13-8.09,4.45,0,0-.02,0-.03,0Zm-2.74-3.52c1.11.83,2.11,1.68,2.94,2.51,4.6-.31,6.96-1.94,6.92-3.41-.04-1.48-2.5-2.96-7.11-3-.77.86-1.71,1.76-2.78,2.67.05.41.06.82.03,1.23Z"/><path class="cls-7" d="m59.58,184.36c-.75,0-1.36-.21-1.79-.55-1.12-.87-1.63-2.95.31-6.2.14-.24.45-.31.69-.17.24.14.31.45.17.69-1.32,2.21-1.54,4.13-.55,4.9,1.1.86,3.82.24,7.19-3.15.73-.72,1.49-1.58,2.25-2.56-.75-.19-1.46-.52-2.09-.97-.24-.17-.47-.35-.69-.56-.22-.21-.42-.43-.61-.66-.48-.6-.85-1.29-1.08-2.03-.76.66-1.43,1.31-2.02,1.94-.19.2-.5.21-.71.03-.2-.19-.21-.5-.03-.71.77-.83,1.68-1.68,2.72-2.55.14-.11.33-.15.49-.09.17.06.29.21.32.38.15.88.52,1.71,1.08,2.39.16.2.32.39.51.56.19.18.38.33.59.47.72.52,1.57.84,2.46.94.18.02.33.13.4.3.07.16.05.35-.06.5-.96,1.3-1.92,2.42-2.84,3.32-2.78,2.8-5.09,3.78-6.71,3.78Z"/><path class="cls-7" d="m63.61,171.01c-.11,0-.21-.03-.3-.1-1.3-.96-2.42-1.92-3.32-2.84-3.97-3.94-4.43-7.18-3.13-8.63,1.12-1.25,3.88-1.54,7.99,1.76.22.17.25.49.08.7-.17.22-.49.25-.7.08-3.32-2.66-5.76-2.84-6.62-1.88-.99,1.1-.24,3.95,3.09,7.26.72.73,1.58,1.49,2.56,2.25.19-.75.52-1.46.97-2.09.17-.24.35-.47.56-.69.21-.22.43-.42.66-.61.6-.48,1.29-.85,2.03-1.08-.27-.31-.54-.61-.81-.89-.19-.2-.18-.52.02-.71.2-.19.52-.18.71.02.45.48.91,1,1.38,1.55.12.14.15.33.09.49-.06.17-.21.29-.38.32-.88.15-1.71.52-2.4,1.08-.2.16-.38.32-.56.51-.18.19-.33.38-.47.59-.52.72-.84,1.57-.94,2.46-.02.18-.13.33-.3.4-.06.03-.13.04-.2.04Z"/><path class="cls-7" d="m79.76,183.77c-1.3,0-2.93-.59-4.64-1.75-.23-.15-.29-.47-.13-.69.15-.23.46-.29.69-.13,2.83,1.91,4.82,1.88,5.54,1.01.9-1.09.3-3.82-3.13-7.22-.72-.73-1.58-1.49-2.57-2.25-.19.75-.52,1.46-.97,2.09-.16.24-.35.47-.56.69-.21.22-.44.42-.67.61-.6.48-1.29.85-2.03,1.08.61.69,1.21,1.32,1.79,1.87.2.19.21.51.02.71-.19.2-.51.21-.71.02-.77-.73-1.58-1.6-2.39-2.57-.12-.14-.15-.33-.09-.49.06-.17.21-.29.38-.32.88-.15,1.71-.52,2.39-1.08.2-.16.39-.32.56-.51.18-.19.33-.38.47-.59.52-.72.84-1.57.94-2.46.02-.18.13-.33.3-.4.16-.07.35-.05.5.06,1.3.96,2.41,1.92,3.32,2.84,4.16,4.13,4.32,7.19,3.2,8.56-.51.63-1.29.93-2.23.93Z"/><path class="cls-7" d="m75.13,170.67c-.06,0-.12-.01-.17-.03-.17-.06-.29-.21-.32-.38-.15-.88-.52-1.71-1.08-2.39-.16-.2-.32-.39-.51-.56-.19-.18-.38-.33-.59-.47-.72-.52-1.57-.84-2.46-.94-.18-.02-.33-.13-.4-.3-.07-.16-.05-.35.06-.5.96-1.3,1.91-2.41,2.84-3.32,3.99-4.02,7.24-4.45,8.68-3.09,1.44,1.36,1.21,4.62-2.57,8.85-.85.97-1.91,1.99-3.15,3.02-.09.08-.21.12-.32.12Zm-4.18-5.63c.75.19,1.46.52,2.09.97.24.16.47.35.69.56.22.21.42.44.61.67.48.6.85,1.29,1.08,2.03.94-.82,1.75-1.62,2.42-2.39,0,0,0,0,0,0,3.17-3.54,3.72-6.43,2.63-7.45-1.09-1.03-3.94-.3-7.29,3.07-.73.72-1.49,1.58-2.25,2.56Z"/><path class="cls-3" d="m73.39,166.94c.21.19.39.4.56.61.63.78,1.02,1.69,1.18,2.63.1.55.12,1.11.04,1.66h0c-.11.95-.44,1.88-1.03,2.7-.15.22-.33.44-.52.64-.19.21-.4.39-.61.56-.78.63-1.69,1.02-2.63,1.18h0c-.54.1-1.11.12-1.66.05-.95-.11-1.88-.44-2.69-1.03-.22-.15-.44-.33-.64-.52-.21-.19-.39-.4-.56-.61-.63-.78-1.02-1.69-1.18-2.63-.1-.55-.12-1.11-.05-1.66.11-.95.44-1.88,1.03-2.69.15-.22.33-.44.52-.64.19-.21.4-.39.61-.56.78-.63,1.69-1.02,2.63-1.18.55-.1,1.11-.12,1.66-.05.95.11,1.88.44,2.69,1.03.22.15.44.33.64.52Z"/><path class="cls-7" d="m69.39,177.5c-.24,0-.48-.01-.72-.04-1.06-.12-2.07-.5-2.92-1.12-.24-.17-.47-.35-.69-.56-.22-.21-.42-.43-.61-.66-.66-.81-1.1-1.8-1.28-2.85-.11-.59-.13-1.2-.05-1.81.12-1.05.5-2.07,1.12-2.92.17-.24.35-.47.56-.69.21-.22.43-.42.66-.61.81-.66,1.8-1.1,2.85-1.28.59-.11,1.21-.13,1.81-.05,1.05.12,2.07.5,2.92,1.12.24.16.47.35.69.56.22.21.42.44.61.67.66.81,1.1,1.8,1.28,2.85.1.58.12,1.16.06,1.73,0,.02,0,.05,0,.07-.12,1.06-.5,2.07-1.12,2.93-.16.24-.35.47-.56.69-.21.22-.44.42-.67.61-.81.66-1.8,1.1-2.85,1.28-.02,0-.05,0-.07,0-.33.06-.67.09-1.01.09Zm0-11.65c-.3,0-.6.03-.9.08-.89.15-1.72.52-2.4,1.08-.2.16-.38.32-.56.51-.18.19-.33.38-.47.59-.52.72-.84,1.57-.94,2.46-.06.51-.05,1.02.04,1.52.15.89.52,1.72,1.08,2.4.16.2.32.38.51.56.19.18.38.33.59.47.72.52,1.57.84,2.46.94.51.06,1.03.05,1.51-.05.03,0,.06,0,.09,0,.86-.16,1.66-.53,2.32-1.07.2-.16.39-.32.56-.51.18-.19.33-.38.47-.59.5-.7.82-1.53.93-2.39,0-.03,0-.06,0-.09.06-.49.05-1.01-.04-1.5-.15-.89-.52-1.72-1.08-2.4-.16-.2-.32-.39-.51-.56-.19-.18-.38-.33-.59-.47-.72-.52-1.57-.84-2.46-.94-.21-.03-.41-.04-.62-.04Z"/><path class="cls-7" d="m148.37,201.43c-1.45,0-3-1.79-3.22-5.81,0-.14.05-.28.15-.38.62-.61,1.26-1.36,1.9-2.23.11-.14.28-.22.46-.2.34.04.69.03,1.01-.03.15-.03.31.01.42.11.02.02.04.04.06.06.7.84,1.38,1.55,2.03,2.11.11.09.17.23.17.38.01,4.08-1.46,5.95-2.93,5.99-.02,0-.03,0-.05,0Zm-2.21-5.65c.22,3.06,1.3,4.66,2.23,4.65.93-.03,1.92-1.71,1.96-4.77-.58-.52-1.18-1.15-1.79-1.86-.24.03-.48.04-.73.02-.56.75-1.13,1.4-1.67,1.96Z"/><path class="cls-7" d="m141.84,192.53c-4.05,0-5.91-1.47-5.95-2.93-.04-1.46,1.74-3.05,5.81-3.28.14-.01.28.05.38.15.61.62,1.36,1.26,2.23,1.9.15.11.22.28.2.46-.04.34-.03.68.03,1.02.03.18-.03.36-.17.47-.83.7-1.55,1.38-2.11,2.03-.1.12-.26.17-.42.17Zm-.31-5.19c-3.06.22-4.67,1.3-4.65,2.23.03.93,1.71,1.92,4.77,1.96.52-.58,1.15-1.18,1.86-1.79-.03-.24-.03-.49-.02-.73-.75-.56-1.4-1.13-1.96-1.67Z"/><path class="cls-7" d="m147.36,185.73c-.15,0-.29-.06-.38-.18-.32-.38-.63-.73-.93-1.05-.19-.2-.18-.52.02-.71.2-.19.52-.18.71.02.26.28.52.57.79.88.24-.03.48-.03.73-.02.57-.75,1.13-1.4,1.67-1.96-.22-3.06-1.28-4.65-2.23-4.65-.96.03-1.97,1.79-1.96,4.99,0,.28-.22.5-.5.5h0c-.28,0-.5-.22-.5-.5,0-4.08,1.46-5.95,2.93-5.99,1.5-.04,3.05,1.74,3.28,5.81,0,.14-.05.28-.15.38-.61.6-1.25,1.36-1.9,2.23-.11.14-.29.22-.46.2-.34-.04-.68-.03-1.02.03-.03,0-.06,0-.09,0Z"/><path class="cls-7" d="m154.41,192.16c-.13,0-.26-.05-.36-.15-.61-.61-1.36-1.25-2.23-1.9-.11-.11-.22-.32-.2-.47.04-.33.03-.67-.03-1.01-.03-.18.03-.36.17-.47.84-.7,1.55-1.38,2.11-2.03.1-.12.26-.17.42-.17,4.05,0,5.91,1.47,5.95,2.93.04,1.46-1.74,3.05-5.81,3.28,0,0-.02,0-.03,0Zm-1.77-2.68c.73.54,1.4,1.11,1.96,1.67,3.06-.22,4.67-1.3,4.65-2.23-.03-.93-1.71-1.92-4.77-1.96-.52.58-1.15,1.18-1.86,1.79.03.25.03.49.02.73Z"/><path class="cls-7" d="m141.18,198.64c-.56,0-1.02-.16-1.34-.41-.84-.65-1.23-2.18.18-4.54.14-.24.45-.32.69-.17.24.14.31.45.17.69-1.01,1.69-.94,2.84-.43,3.24.75.58,2.65.01,4.84-2.2.47-.46.94-1,1.43-1.61-.46-.14-.9-.36-1.3-.64-.17-.12-.34-.25-.5-.41-.16-.15-.31-.32-.44-.48-.3-.37-.54-.8-.71-1.25-.46.41-.87.81-1.24,1.2-.19.2-.5.21-.71.03-.2-.19-.21-.5-.03-.71.54-.58,1.19-1.19,1.92-1.8.14-.11.33-.15.49-.09.17.06.29.21.32.38.1.59.35,1.15.73,1.61.11.13.22.26.34.38.13.12.26.22.39.32.49.35,1.06.57,1.66.63.18.02.33.13.4.3.07.16.05.35-.06.5-.68.91-1.35,1.7-2,2.35-1.98,1.99-3.64,2.69-4.82,2.69Z"/><path class="cls-7" d="m144.01,189.28c-.11,0-.21-.03-.3-.1-.92-.68-1.71-1.35-2.35-2-2.85-2.83-3.16-5.18-2.2-6.26.82-.92,2.84-1.16,5.81,1.22.22.17.25.49.08.7-.17.22-.49.25-.7.08-2.15-1.73-3.86-1.98-4.44-1.33-.64.72-.11,2.63,2.16,4.88.46.47,1,.94,1.61,1.43.14-.46.36-.9.64-1.3.12-.17.25-.34.41-.5.15-.16.31-.31.48-.44.37-.3.8-.54,1.25-.71-.14-.16-.28-.31-.42-.46-.19-.2-.18-.52.02-.71.2-.19.52-.18.71.02.32.34.64.7.97,1.1.12.14.15.33.09.49-.06.17-.21.29-.38.32-.59.1-1.15.35-1.61.72-.13.11-.26.22-.38.35-.12.12-.22.26-.32.39-.35.49-.57,1.06-.63,1.66-.02.18-.13.33-.3.4-.06.03-.13.04-.2.04Z"/><path class="cls-7" d="m155.31,198.24c-.85,0-1.96-.35-3.31-1.26-.23-.15-.29-.47-.13-.69.15-.23.46-.29.69-.13,1.89,1.28,3.24,1.28,3.68.74.61-.74.05-2.64-2.19-4.86-.46-.47-1-.94-1.61-1.43-.14.47-.36.9-.64,1.3-.12.17-.25.34-.41.5-.15.16-.31.31-.48.44-.37.3-.8.54-1.25.71.37.42.74.8,1.1,1.14.2.19.21.51.02.71-.19.2-.51.21-.71.02-.55-.52-1.12-1.13-1.69-1.81-.11-.14-.15-.33-.09-.49.06-.17.21-.29.38-.32.59-.1,1.15-.35,1.61-.72.13-.11.26-.22.38-.34.12-.13.22-.26.32-.39.35-.49.57-1.06.63-1.66.02-.18.13-.33.3-.4.16-.07.35-.05.5.06.92.68,1.71,1.35,2.35,2,2.99,2.97,3.08,5.2,2.25,6.2-.35.42-.92.72-1.7.72Z"/><path class="cls-7" d="m152.09,189.04c-.06,0-.12-.01-.17-.03-.17-.06-.29-.21-.32-.38-.1-.59-.35-1.15-.73-1.61-.11-.13-.22-.26-.35-.38-.13-.12-.26-.22-.39-.32-.49-.35-1.06-.57-1.65-.63-.18-.02-.33-.13-.4-.3-.07-.16-.05-.35.06-.5.68-.92,1.35-1.71,2-2.35,2.87-2.89,5.23-3.17,6.29-2.17,1.06,1,.92,3.37-1.79,6.41-.6.69-1.35,1.41-2.22,2.14-.09.08-.21.12-.32.12Zm-2.68-4.18c.46.14.9.36,1.3.64.17.12.34.25.5.41.16.15.31.32.44.48.3.37.54.8.71,1.25.58-.52,1.09-1.03,1.52-1.52,0,0,0,0,0,0,2.13-2.38,2.55-4.37,1.86-5.02-.69-.65-2.65-.12-4.9,2.15-.47.46-.94,1-1.43,1.61Z"/><path class="cls-3" d="m150.87,186.27c.14.14.27.28.39.43.44.54.72,1.18.83,1.84.07.38.08.78.03,1.16h0c-.07.67-.31,1.32-.72,1.89-.11.16-.23.31-.36.45-.14.14-.28.27-.43.39-.54.44-1.18.72-1.84.83h0c-.38.07-.78.08-1.16.03-.66-.07-1.32-.31-1.89-.72-.15-.11-.31-.23-.45-.36-.14-.14-.27-.28-.39-.43-.44-.54-.72-1.18-.83-1.84-.07-.38-.08-.78-.03-1.17.07-.66.31-1.32.72-1.89.11-.16.23-.31.36-.45.14-.14.28-.27.43-.39.54-.44,1.18-.72,1.84-.83.38-.07.78-.08,1.17-.03.66.07,1.32.31,1.89.72.15.11.31.23.45.36Z"/><path class="cls-7" d="m148.07,193.83c-.17,0-.35-.01-.52-.03-.76-.09-1.5-.37-2.12-.81-.17-.12-.34-.25-.5-.41-.16-.15-.31-.32-.44-.48-.48-.59-.8-1.3-.93-2.07-.08-.43-.09-.87-.04-1.31.08-.76.36-1.5.81-2.12.12-.17.25-.34.41-.5.15-.16.31-.31.48-.44.59-.48,1.31-.8,2.07-.93.43-.08.87-.09,1.31-.04.76.08,1.5.36,2.12.81.17.12.34.25.5.41,0,0,0,0,0,0,.16.15.31.31.44.48.48.59.8,1.3.93,2.07.08.42.09.84.04,1.25,0,.02,0,.04,0,.06-.09.77-.37,1.5-.81,2.12-.12.17-.25.34-.41.5-.15.16-.31.31-.48.44-.59.48-1.3.8-2.07.93-.02,0-.04,0-.06,0-.24.04-.48.06-.73.06Zm0-8.17c-.2,0-.41.02-.6.05-.6.1-1.16.35-1.62.73-.13.11-.26.22-.38.35-.12.12-.22.26-.32.39-.35.49-.57,1.06-.63,1.66-.04.34-.03.69.03,1.02.1.6.35,1.16.73,1.62.11.13.22.26.34.38.13.12.26.22.39.32.49.35,1.06.57,1.66.63.34.04.69.03,1.01-.03.02,0,.05,0,.07,0,.57-.11,1.11-.35,1.56-.71.13-.11.26-.22.38-.34.12-.13.22-.26.32-.39.34-.47.55-1.02.63-1.6,0-.02,0-.05,0-.07.04-.33.03-.67-.03-1.01-.1-.6-.35-1.16-.73-1.61-.11-.14-.22-.26-.35-.38-.13-.12-.26-.22-.39-.32-.49-.35-1.06-.57-1.65-.63-.14-.02-.28-.03-.42-.03Z"/><path class="cls-7" d="m199.58,268.36c-1.45,0-3-1.79-3.22-5.81,0-.14.05-.28.15-.38.61-.6,1.25-1.35,1.9-2.23.11-.14.28-.23.46-.2.34.04.69.03,1.01-.03.16-.03.33.02.45.14.01.01.02.03.03.04.7.84,1.38,1.55,2.03,2.11.11.09.17.23.17.38,0,4.08-1.46,5.95-2.93,5.99-.02,0-.03,0-.05,0Zm-2.21-5.65c.22,3.06,1.29,4.65,2.23,4.65.93-.03,1.92-1.7,1.96-4.77-.58-.52-1.18-1.14-1.79-1.86-.24.03-.49.04-.73.02-.57.75-1.13,1.4-1.67,1.96Z"/><path class="cls-7" d="m193.04,259.46c-4.05,0-5.91-1.47-5.95-2.93-.04-1.46,1.74-3.05,5.81-3.28.15-.01.28.05.38.15.61.62,1.36,1.26,2.23,1.9.14.11.22.28.2.46-.04.34-.03.68.03,1.02.03.18-.03.36-.17.47-.84.7-1.55,1.38-2.11,2.03-.1.12-.26.17-.42.17Zm-.31-5.19c-3.06.22-4.67,1.3-4.65,2.23.03.93,1.71,1.92,4.77,1.96.52-.58,1.14-1.17,1.86-1.79-.03-.24-.03-.49-.02-.73-.75-.56-1.4-1.13-1.96-1.67Z"/><path class="cls-7" d="m198.57,252.65c-.15,0-.29-.06-.38-.18-.31-.38-.62-.73-.93-1.05-.19-.2-.18-.52.02-.71.2-.19.52-.18.71.02.26.28.52.57.79.88.24-.03.49-.04.73-.02.56-.75,1.13-1.4,1.67-1.96-.22-3.06-1.29-4.66-2.23-4.65-.96.03-1.97,1.79-1.96,4.99,0,.28-.22.5-.5.5h0c-.28,0-.5-.22-.5-.5-.01-4.08,1.46-5.95,2.93-5.99,1.48-.01,3.05,1.74,3.28,5.81,0,.14-.05.28-.15.38-.62.61-1.26,1.36-1.9,2.23-.11.14-.28.23-.46.2-.34-.04-.68-.03-1.02.03-.03,0-.06,0-.09,0Z"/><path class="cls-7" d="m205.62,259.09c-.13,0-.26-.05-.36-.15-.6-.61-1.35-1.25-2.23-1.9-.11-.11-.22-.32-.2-.47.04-.32.03-.67-.03-1.01-.03-.18.03-.36.17-.47.84-.7,1.55-1.38,2.11-2.03.1-.12.26-.17.42-.17,4.05,0,5.91,1.47,5.95,2.93.04,1.46-1.74,3.05-5.81,3.28,0,0-.02,0-.03,0Zm-1.77-2.68c.73.54,1.4,1.12,1.96,1.67,3.06-.22,4.67-1.3,4.65-2.23-.03-.93-1.71-1.92-4.77-1.96-.52.58-1.14,1.18-1.86,1.79.03.25.03.49.02.73Z"/><path class="cls-7" d="m192.39,265.57c-.56,0-1.02-.16-1.34-.41-.84-.65-1.23-2.18.18-4.54.14-.24.45-.32.69-.17.24.14.31.45.17.69-1.01,1.69-.94,2.84-.43,3.24.75.58,2.65.01,4.84-2.2.47-.46.94-1,1.43-1.61-.47-.14-.9-.36-1.3-.64-.17-.12-.34-.25-.5-.41-.16-.15-.31-.32-.44-.48-.3-.37-.54-.8-.71-1.25-.46.41-.87.81-1.24,1.2-.19.2-.5.21-.71.03-.2-.19-.21-.5-.03-.71.54-.58,1.19-1.19,1.92-1.8.14-.11.33-.15.49-.09.17.06.29.21.32.39.1.59.35,1.15.73,1.61.11.13.22.26.34.38.13.12.26.22.39.32.48.35,1.06.57,1.66.63.18.02.33.13.4.3.07.16.05.35-.06.5-.68.92-1.35,1.71-2,2.35-1.98,1.99-3.64,2.69-4.82,2.69Z"/><path class="cls-7" d="m195.22,256.21c-.11,0-.21-.03-.3-.1-.91-.68-1.7-1.35-2.35-2-2.85-2.83-3.16-5.18-2.2-6.26.82-.92,2.84-1.16,5.81,1.22.22.17.25.49.08.7-.17.22-.49.25-.7.08-2.15-1.73-3.86-1.98-4.44-1.33-.64.72-.11,2.63,2.16,4.89.46.47,1,.94,1.61,1.43.14-.46.36-.9.64-1.3.12-.17.25-.34.41-.5.15-.16.31-.31.48-.44.37-.3.8-.54,1.25-.71-.14-.16-.28-.31-.42-.46-.19-.2-.18-.52.02-.71.2-.19.52-.18.71.02.32.34.64.7.97,1.1.11.14.15.33.09.49-.06.17-.21.29-.39.32-.59.1-1.15.35-1.61.72-.13.11-.26.22-.38.34-.12.13-.22.26-.32.39-.35.49-.57,1.06-.63,1.66-.02.18-.13.33-.3.4-.06.03-.13.04-.2.04Z"/><path class="cls-7" d="m206.52,265.16c-.85,0-1.96-.35-3.31-1.26-.23-.15-.29-.47-.13-.69.15-.23.47-.29.69-.13,1.89,1.28,3.24,1.28,3.68.74.61-.74.05-2.64-2.19-4.86-.46-.46-1-.94-1.61-1.43-.14.46-.36.9-.64,1.3-.12.17-.25.34-.41.5-.15.16-.32.31-.48.44-.37.3-.8.54-1.25.71.37.42.74.8,1.1,1.14.2.19.21.51.02.71-.19.2-.51.21-.71.02-.55-.52-1.11-1.13-1.69-1.81-.11-.14-.15-.33-.09-.49.06-.17.21-.29.38-.32.59-.1,1.15-.35,1.61-.72.13-.11.26-.22.38-.34.12-.13.22-.26.32-.39.35-.49.57-1.06.63-1.66.02-.18.13-.33.3-.4.16-.07.35-.05.5.06.92.68,1.71,1.35,2.35,2,2.99,2.96,3.08,5.2,2.25,6.2-.35.42-.92.72-1.7.72Z"/><path class="cls-7" d="m203.29,255.97c-.06,0-.12,0-.17-.03-.17-.06-.29-.21-.32-.39-.1-.59-.35-1.15-.73-1.61-.11-.13-.22-.26-.35-.38-.12-.12-.26-.22-.39-.32-.49-.35-1.06-.57-1.65-.63-.18-.02-.33-.13-.4-.3-.07-.16-.05-.35.06-.5.68-.91,1.35-1.7,2-2.35,2.87-2.89,5.23-3.17,6.29-2.17,1.06,1,.92,3.37-1.79,6.41-.6.69-1.35,1.41-2.22,2.14-.09.08-.21.12-.32.12Zm-2.68-4.18c.46.14.9.36,1.3.64.17.12.34.25.5.41.16.16.31.32.44.48.3.37.54.8.71,1.25.58-.52,1.09-1.03,1.52-1.52,0,0,0,0,0,0,2.13-2.38,2.55-4.37,1.86-5.02-.69-.65-2.65-.12-4.9,2.15-.47.46-.95,1-1.43,1.61Z"/><path class="cls-3" d="m202.07,253.2c.14.14.27.28.39.43.44.54.72,1.18.83,1.84.07.38.08.78.03,1.16h0c-.07.67-.31,1.32-.72,1.89-.11.16-.23.31-.36.45-.14.14-.28.27-.43.39-.54.44-1.18.72-1.84.83h0c-.38.07-.78.08-1.16.03-.66-.07-1.32-.31-1.89-.72-.15-.11-.31-.23-.45-.36-.14-.14-.27-.28-.39-.43-.44-.54-.72-1.18-.83-1.84-.07-.38-.08-.78-.03-1.17.07-.66.31-1.32.72-1.89.11-.16.23-.31.36-.45.14-.14.28-.27.43-.39.54-.44,1.18-.72,1.84-.83.38-.07.78-.08,1.17-.03.66.07,1.32.31,1.89.72.15.11.31.23.45.36Z"/><path class="cls-7" d="m199.27,260.76c-.17,0-.35-.01-.52-.03-.76-.08-1.5-.37-2.12-.81-.17-.12-.34-.25-.5-.41-.16-.15-.31-.32-.44-.48-.48-.59-.8-1.3-.93-2.07-.08-.43-.09-.87-.04-1.31.08-.76.37-1.5.81-2.12.12-.17.25-.34.41-.5.15-.16.31-.31.48-.44.59-.48,1.31-.8,2.07-.93.43-.08.87-.09,1.31-.04.76.08,1.49.36,2.12.81.17.12.34.25.5.41,0,0,0,0,0,0,.16.15.31.31.44.48.48.59.8,1.3.93,2.07.08.42.09.84.04,1.25,0,.02,0,.04,0,.06-.09.77-.37,1.5-.81,2.12-.12.17-.25.34-.41.5-.15.16-.32.31-.48.44-.59.48-1.3.8-2.07.93-.02,0-.04,0-.06,0-.24.04-.48.06-.73.06Zm0-8.17c-.2,0-.4.02-.6.06-.6.1-1.16.35-1.62.73-.13.11-.26.22-.38.34-.12.13-.22.26-.32.39-.35.49-.57,1.06-.63,1.65-.04.34-.03.69.03,1.02.1.6.35,1.15.73,1.62.11.13.22.26.34.38.13.12.26.22.39.32.48.35,1.06.57,1.66.63.34.04.69.03,1.01-.03.02,0,.05,0,.07,0,.57-.11,1.11-.35,1.55-.71.13-.11.26-.22.38-.34.12-.13.22-.26.32-.39.34-.47.55-1.02.63-1.6,0-.02,0-.05,0-.07.04-.32.03-.67-.03-1.01-.1-.6-.35-1.16-.73-1.62-.11-.13-.22-.26-.34-.38-.13-.12-.26-.22-.39-.32-.49-.35-1.06-.57-1.65-.63-.14-.02-.28-.03-.42-.03Z"/><path class="cls-7" d="m242.63,213c-1.45,0-3-1.79-3.22-5.81,0-.14.05-.28.15-.38.61-.6,1.25-1.35,1.9-2.23.11-.14.28-.22.46-.2.34.04.69.03,1.01-.03.14-.03.29,0,.4.1.03.02.06.05.08.08.7.84,1.38,1.55,2.03,2.11.11.09.17.23.17.38,0,4.08-1.46,5.95-2.93,5.99-.02,0-.03,0-.05,0Zm-2.21-5.65c.22,3.06,1.31,4.66,2.23,4.65.93-.03,1.92-1.71,1.96-4.77-.58-.52-1.18-1.15-1.79-1.86-.24.03-.48.04-.73.02-.57.75-1.13,1.4-1.67,1.96Z"/><path class="cls-7" d="m236.09,204.1c-4.05,0-5.91-1.47-5.95-2.93-.04-1.46,1.74-3.05,5.81-3.28.15-.01.28.05.38.15.6.61,1.36,1.25,2.23,1.9.14.11.22.28.2.46-.04.34-.03.68.03,1.02.03.18-.03.36-.17.47-.83.7-1.55,1.38-2.11,2.03-.1.12-.26.17-.42.17Zm-.31-5.19c-3.06.22-4.67,1.3-4.65,2.23.03.93,1.71,1.92,4.77,1.96.52-.58,1.15-1.18,1.86-1.79-.03-.24-.03-.49-.02-.73-.75-.57-1.4-1.13-1.96-1.67Z"/><path class="cls-7" d="m241.62,197.29c-.15,0-.29-.06-.38-.18-.31-.38-.63-.73-.93-1.05-.19-.2-.18-.52.02-.71.2-.19.52-.18.71.02.26.28.52.57.79.88.24-.03.49-.03.73-.02.57-.75,1.13-1.4,1.67-1.96-.22-3.06-1.33-4.64-2.23-4.65-.96.03-1.97,1.79-1.96,4.99,0,.28-.22.5-.5.5h0c-.28,0-.5-.22-.5-.5,0-4.08,1.46-5.95,2.93-5.99,1.48-.03,3.05,1.74,3.28,5.81,0,.14-.05.28-.15.38-.61.6-1.25,1.35-1.9,2.23-.11.14-.29.22-.46.2-.34-.04-.68-.03-1.02.03-.03,0-.06,0-.09,0Z"/><path class="cls-7" d="m248.67,203.73c-.13,0-.26-.05-.36-.15-.6-.61-1.35-1.25-2.23-1.9-.15-.11-.23-.29-.2-.47.04-.32.03-.67-.03-1.01-.03-.18.03-.36.17-.47.83-.7,1.55-1.38,2.11-2.03.1-.12.26-.17.42-.17,4.05,0,5.91,1.47,5.95,2.93.04,1.46-1.74,3.05-5.81,3.28,0,0-.02,0-.03,0Zm-1.77-2.69c.74.56,1.4,1.12,1.96,1.67,3.06-.22,4.67-1.3,4.65-2.23-.03-.93-1.71-1.92-4.77-1.96-.52.58-1.15,1.18-1.86,1.79.03.24.03.49.02.73Z"/><path class="cls-7" d="m235.44,210.21c-.56,0-1.02-.16-1.34-.41-.84-.65-1.23-2.18.18-4.54.14-.24.45-.31.69-.17.24.14.31.45.17.69-1.01,1.69-.94,2.84-.43,3.24.75.58,2.65.01,4.84-2.2.47-.46.94-1,1.43-1.61-.46-.14-.9-.36-1.3-.64-.17-.12-.34-.25-.5-.41-.16-.15-.31-.31-.44-.48-.3-.37-.54-.8-.71-1.25-.46.41-.87.81-1.24,1.2-.19.2-.5.21-.71.03-.2-.19-.21-.5-.03-.71.54-.58,1.19-1.19,1.92-1.8.14-.11.33-.15.49-.09.17.06.29.21.32.38.1.59.35,1.15.72,1.61.11.13.22.26.34.38.13.12.26.22.39.32.49.35,1.06.57,1.66.63.18.02.33.13.4.3.07.16.05.35-.06.5-.68.92-1.35,1.71-2,2.35-1.98,1.99-3.64,2.69-4.82,2.69Z"/><path class="cls-7" d="m238.27,200.85c-.11,0-.21-.03-.3-.1-.92-.68-1.71-1.35-2.35-2-2.85-2.83-3.16-5.18-2.2-6.26.83-.92,2.84-1.16,5.81,1.22.22.17.25.49.08.7-.17.21-.49.25-.7.08-2.15-1.73-3.86-1.98-4.44-1.33-.64.72-.11,2.63,2.16,4.88.46.47,1,.94,1.61,1.43.14-.46.36-.9.64-1.3.12-.17.25-.34.41-.5.15-.16.31-.31.48-.44.37-.3.8-.54,1.25-.71-.14-.16-.28-.31-.42-.46-.19-.2-.18-.52.02-.71.2-.19.52-.18.71.02.32.34.64.7.97,1.1.11.14.15.33.09.49-.06.17-.21.29-.38.32-.59.1-1.15.35-1.61.73-.13.11-.26.22-.38.34-.12.13-.22.26-.32.39-.35.49-.57,1.06-.63,1.66-.02.18-.13.33-.3.4-.06.03-.13.04-.2.04Z"/><path class="cls-7" d="m249.57,209.8c-.85,0-1.96-.35-3.31-1.26-.23-.15-.29-.47-.13-.69.15-.23.46-.29.69-.13,1.89,1.28,3.24,1.28,3.68.74.61-.74.05-2.64-2.19-4.86-.46-.47-1-.94-1.61-1.43-.14.46-.36.9-.64,1.3-.12.17-.25.34-.41.5-.15.16-.32.31-.48.44-.37.3-.8.54-1.25.71.37.42.74.8,1.1,1.14.2.19.21.51.02.71-.19.2-.51.21-.71.02-.55-.52-1.12-1.13-1.69-1.81-.11-.14-.15-.33-.09-.49.06-.17.21-.29.38-.32.59-.1,1.15-.35,1.61-.72.13-.11.26-.22.38-.34.12-.13.22-.26.32-.39.35-.49.57-1.06.63-1.66.02-.18.13-.33.3-.4.16-.07.35-.05.5.06.92.68,1.71,1.35,2.35,2,2.99,2.97,3.08,5.2,2.25,6.2-.35.42-.92.72-1.71.72Z"/><path class="cls-7" d="m246.34,200.61c-.06,0-.12-.01-.17-.03-.17-.06-.29-.21-.32-.38-.1-.59-.35-1.15-.72-1.61-.11-.13-.22-.26-.34-.38-.13-.12-.26-.22-.39-.32-.49-.35-1.06-.57-1.66-.63-.18-.02-.33-.13-.4-.3-.07-.16-.05-.35.06-.5.68-.92,1.35-1.71,2-2.35,2.87-2.89,5.23-3.17,6.29-2.17,1.06,1,.92,3.38-1.8,6.41-.6.69-1.35,1.41-2.22,2.14-.09.08-.21.12-.32.12Zm-2.68-4.18c.47.14.9.36,1.3.64.17.12.34.25.5.41.16.15.31.31.44.48.3.37.54.8.71,1.25.58-.52,1.09-1.03,1.52-1.52,0,0,0,0,0,0,2.13-2.38,2.55-4.37,1.86-5.02-.69-.65-2.65-.12-4.9,2.15-.47.46-.94,1-1.43,1.61Z"/><path class="cls-3" d="m245.12,197.84c.14.14.27.28.39.43.44.54.72,1.18.83,1.84.07.38.08.78.03,1.16h0c-.07.67-.31,1.32-.72,1.89-.11.16-.23.31-.36.45-.14.14-.28.27-.43.39-.54.44-1.18.72-1.84.83h0c-.38.07-.78.08-1.16.03-.66-.07-1.32-.31-1.89-.72-.15-.11-.31-.23-.45-.36-.14-.14-.27-.28-.39-.43-.44-.54-.72-1.18-.83-1.84-.07-.38-.08-.78-.03-1.17.07-.66.31-1.32.72-1.89.11-.15.23-.31.36-.45.14-.14.28-.27.43-.39.54-.44,1.18-.72,1.84-.83.38-.07.78-.08,1.17-.03.66.07,1.32.31,1.89.72.15.11.31.23.45.36Z"/><path class="cls-7" d="m242.32,205.4c-.17,0-.35-.01-.52-.03-.76-.09-1.5-.37-2.12-.81-.17-.12-.34-.25-.5-.41-.16-.15-.31-.31-.44-.48-.48-.59-.8-1.31-.93-2.07-.08-.43-.09-.87-.04-1.31.09-.76.37-1.5.81-2.12.12-.17.25-.34.41-.5.15-.16.31-.31.48-.44.59-.48,1.31-.8,2.07-.93.43-.08.87-.09,1.31-.04.76.08,1.5.36,2.12.81.17.12.34.25.5.41h0c.16.15.31.32.44.48.48.59.8,1.3.93,2.07.08.41.09.83.04,1.25,0,.02,0,.04,0,.06-.09.77-.37,1.5-.81,2.12-.12.17-.25.34-.41.5-.15.16-.32.31-.48.44-.59.48-1.3.8-2.07.93-.02,0-.04,0-.06,0-.24.04-.48.06-.73.06Zm0-8.17c-.2,0-.41.02-.6.05-.6.1-1.16.35-1.62.73-.13.11-.26.22-.38.34-.12.13-.22.26-.32.39-.35.49-.57,1.06-.63,1.66-.04.34-.03.69.03,1.02.1.6.35,1.16.73,1.62.11.13.22.26.34.38.13.12.26.22.39.32.49.35,1.06.57,1.66.63.34.04.69.03,1.01-.03.02,0,.05,0,.07,0,.57-.11,1.11-.35,1.55-.71.13-.11.26-.22.38-.34.12-.13.22-.26.32-.39.34-.47.55-1.02.63-1.6,0-.02,0-.05,0-.07.04-.32.03-.67-.03-1.01-.1-.6-.35-1.16-.73-1.61-.11-.13-.22-.26-.34-.38,0,0,0,0,0,0-.13-.12-.26-.22-.39-.32-.49-.35-1.06-.57-1.66-.63-.14-.02-.28-.03-.42-.03Z"/><path class="cls-7" d="m270.04,242.13c-3.87-2.61-6.93,3.05-6.93,3.05,0,0-3.38-5.66-7.24-3.05-3.87,2.61-1.07,7.6,1.07,9.5,2.15,1.9,6.66,5.23,6.66,5.23,0,0,3.22-3.33,5.37-5.23,2.15-1.9,4.94-6.89,1.07-9.5Z"/><path class="cls-7" d="m263.6,257.36c-.1,0-.21-.03-.3-.1-.18-.14-4.55-3.36-6.69-5.25-1.37-1.21-3.33-3.99-3.16-6.7.1-1.49.82-2.7,2.14-3.59,1.04-.7,2.14-.93,3.27-.68,1.97.44,3.51,2.23,4.24,3.22.67-.99,2.08-2.75,3.96-3.21,1.12-.27,2.22-.05,3.27.66,1.32.89,2.04,2.1,2.14,3.59.18,2.71-1.79,5.49-3.16,6.7-2.11,1.87-5.31,5.17-5.34,5.2-.1.1-.23.15-.36.15Zm-5.63-15.42c-.62,0-1.22.2-1.82.6-1.05.71-1.62,1.66-1.7,2.83-.14,2.08,1.35,4.59,2.82,5.89,1.76,1.56,5.17,4.12,6.27,4.94.86-.88,3.34-3.39,5.09-4.94,1.47-1.3,2.96-3.81,2.82-5.89-.08-1.16-.65-2.12-1.7-2.83-.82-.55-1.63-.73-2.47-.52-2.16.53-3.73,3.37-3.74,3.39-.09.16-.25.26-.43.26-.18-.01-.35-.09-.44-.24-.02-.03-1.77-2.91-4.04-3.42-.23-.05-.45-.08-.67-.08Z"/><path class="cls-7" d="m86.05,111.29c-2.68-1.81-4.81,2.12-4.81,2.12,0,0-2.34-3.93-5.03-2.12-2.68,1.81-.75,5.28.75,6.6,1.49,1.32,4.62,3.63,4.62,3.63,0,0,2.24-2.31,3.73-3.63,1.49-1.32,3.43-4.78.75-6.6Z"/><path class="cls-7" d="m81.58,122.01c-.1,0-.21-.03-.3-.1-.13-.09-3.17-2.34-4.66-3.66-.97-.86-2.37-2.84-2.24-4.78.07-1.07.61-1.97,1.55-2.61.75-.51,1.56-.68,2.39-.49,1.3.29,2.34,1.4,2.9,2.12.52-.72,1.47-1.81,2.72-2.11.82-.2,1.62-.04,2.39.48.94.64,1.48,1.54,1.55,2.61.13,1.94-1.27,3.92-2.24,4.78-1.46,1.29-3.68,3.58-3.7,3.6-.1.1-.23.15-.36.15Zm-3.91-10.7c-.4,0-.79.13-1.18.39-.7.47-1.06,1.08-1.11,1.85-.09,1.4.92,3.08,1.91,3.96,1.16,1.03,3.38,2.7,4.24,3.34.67-.68,2.27-2.3,3.45-3.34.99-.88,2-2.57,1.91-3.96-.05-.77-.41-1.37-1.11-1.85h0c-.53-.36-1.05-.47-1.59-.34-1.43.35-2.49,2.26-2.5,2.28-.09.16-.25.26-.43.26-.17,0-.35-.09-.44-.24-.01-.02-1.19-1.97-2.71-2.3-.14-.03-.29-.05-.43-.05Z"/><path class="cls-3" d="m204.25,124.92c-3.87-2.61-6.93,3.05-6.93,3.05,0,0-3.38-5.66-7.24-3.05-3.87,2.61-1.07,7.6,1.07,9.5,2.15,1.9,6.66,5.23,6.66,5.23,0,0,3.22-3.33,5.37-5.23,2.15-1.9,4.94-6.89,1.07-9.5Z"/><path class="cls-7" d="m197.81,140.15c-.1,0-.21-.03-.3-.1-.18-.14-4.55-3.36-6.69-5.25-1.37-1.21-3.34-3.99-3.16-6.7.1-1.49.82-2.7,2.14-3.59,1.04-.7,2.13-.93,3.27-.68,1.97.44,3.51,2.23,4.24,3.22.67-.99,2.08-2.75,3.96-3.21,1.12-.27,2.22-.05,3.27.66,1.32.89,2.04,2.1,2.14,3.59.18,2.71-1.79,5.49-3.16,6.7-2.11,1.87-5.31,5.17-5.34,5.2-.1.1-.23.15-.36.15Zm-5.63-15.42c-.62,0-1.22.2-1.82.6-1.05.71-1.62,1.66-1.7,2.83-.14,2.08,1.35,4.59,2.82,5.89,1.76,1.56,5.17,4.12,6.27,4.94.86-.88,3.34-3.39,5.09-4.94,1.47-1.3,2.96-3.81,2.82-5.89-.08-1.17-.65-2.12-1.7-2.83h0c-.82-.55-1.63-.72-2.47-.52-2.16.53-3.73,3.37-3.74,3.39-.09.16-.25.26-.43.26-.19-.02-.35-.09-.44-.24-.02-.03-1.77-2.91-4.04-3.42-.23-.05-.45-.08-.67-.08Z"/><path class="cls-7" d="m97.22,260.05c-2.96-2-5.31,2.33-5.31,2.33,0,0-2.59-4.34-5.55-2.33s-.82,5.82.82,7.28c1.64,1.46,5.1,4,5.1,4,0,0,2.47-2.55,4.11-4,1.64-1.46,3.78-5.28.82-7.28Z"/><path class="cls-7" d="m92.28,271.83c-.1,0-.21-.03-.3-.1-.14-.1-3.49-2.58-5.13-4.03-1.06-.94-2.6-3.11-2.46-5.23.08-1.16.66-2.14,1.69-2.84.82-.56,1.69-.73,2.59-.54,1.46.33,2.62,1.59,3.21,2.38.55-.79,1.62-2.03,3.01-2.37.89-.21,1.76-.04,2.6.52h0c1.03.7,1.61,1.68,1.69,2.84.14,2.12-1.39,4.29-2.46,5.23-1.61,1.43-4.06,3.95-4.08,3.98-.1.1-.23.15-.36.15Zm-4.31-11.81c-.45,0-.89.15-1.33.44-.77.52-1.19,1.22-1.25,2.08-.1,1.56,1.02,3.43,2.12,4.41,1.3,1.15,3.8,3.03,4.71,3.71.72-.73,2.54-2.57,3.83-3.71,1.1-.98,2.22-2.86,2.12-4.41-.06-.86-.48-1.55-1.25-2.08-.6-.41-1.19-.53-1.8-.38-1.6.39-2.78,2.52-2.79,2.54-.09.16-.25.26-.43.26-.17,0-.35-.09-.44-.24-.01-.02-1.33-2.19-3.02-2.57-.16-.04-.33-.05-.49-.05Z"/><path class="cls-3" d="m71.79,121.69c-3.87-2.61-6.93,3.05-6.93,3.05,0,0-3.38-5.66-7.24-3.05-3.87,2.61-1.07,7.6,1.07,9.5,2.15,1.9,6.66,5.23,6.66,5.23,0,0,3.22-3.33,5.37-5.23,2.15-1.9,4.94-6.89,1.07-9.5Z"/><path class="cls-7" d="m65.35,136.92c-.1,0-.21-.03-.3-.1-.18-.14-4.55-3.36-6.69-5.25-1.37-1.21-3.33-3.99-3.16-6.7.1-1.49.82-2.7,2.14-3.59,1.04-.7,2.14-.93,3.27-.68,1.97.44,3.51,2.23,4.24,3.22.67-.99,2.08-2.75,3.96-3.21,1.11-.27,2.22-.05,3.27.66,1.32.89,2.04,2.1,2.14,3.59.18,2.71-1.79,5.49-3.16,6.7-2.11,1.87-5.31,5.17-5.34,5.2-.1.1-.23.15-.36.15Zm-5.63-15.42c-.62,0-1.22.2-1.82.6-1.05.71-1.62,1.66-1.7,2.83-.14,2.08,1.35,4.59,2.82,5.89,1.76,1.56,5.17,4.12,6.27,4.94.86-.88,3.34-3.39,5.09-4.94,1.47-1.3,2.96-3.81,2.82-5.89-.08-1.17-.65-2.12-1.7-2.83h0c-.82-.56-1.63-.73-2.47-.52-2.17.53-3.72,3.36-3.74,3.39-.09.16-.25.26-.43.26-.21,0-.35-.09-.44-.24-.02-.03-1.77-2.91-4.04-3.42-.23-.05-.45-.08-.67-.08Z"/><path class="cls-3" d="m89.59,306.12c-3.87-2.61-6.93,3.05-6.93,3.05,0,0-3.38-5.66-7.24-3.05-3.87,2.61-1.07,7.6,1.07,9.5s6.66,5.23,6.66,5.23c0,0,3.22-3.33,5.37-5.23s4.94-6.89,1.07-9.5Z"/><path class="cls-7" d="m83.14,321.35c-.1,0-.21-.03-.3-.1-.18-.14-4.55-3.36-6.69-5.25-1.37-1.21-3.34-3.99-3.16-6.7.1-1.49.82-2.7,2.14-3.59,1.04-.7,2.14-.93,3.27-.68,1.97.44,3.51,2.23,4.24,3.22.67-.99,2.08-2.75,3.96-3.21,1.12-.27,2.22-.05,3.27.66,1.32.89,2.04,2.1,2.14,3.59.18,2.71-1.79,5.49-3.16,6.7-2.11,1.87-5.31,5.17-5.34,5.2-.1.1-.23.15-.36.15Zm-5.63-15.42c-.62,0-1.22.2-1.82.6-1.05.71-1.62,1.66-1.7,2.83-.14,2.08,1.35,4.59,2.82,5.89,1.76,1.56,5.17,4.12,6.27,4.94.86-.88,3.34-3.39,5.09-4.94,1.47-1.3,2.96-3.81,2.82-5.89-.08-1.17-.65-2.12-1.7-2.83-.82-.56-1.63-.73-2.47-.52-2.16.53-3.73,3.37-3.74,3.39-.09.16-.25.26-.43.26-.18,0-.35-.09-.44-.24-.02-.03-1.77-2.91-4.05-3.42-.23-.05-.45-.08-.67-.08Z"/><polygon class="cls-3" points="67.02 266.41 64.16 270.65 66.03 275.4 61.12 274 57.17 277.25 56.99 272.14 52.68 269.39 57.49 267.64 58.77 262.69 61.92 266.72 67.02 266.41"/><path class="cls-7" d="m57.17,277.75c-.07,0-.14-.01-.21-.04-.17-.08-.29-.25-.29-.44l-.17-4.85-4.09-2.61c-.16-.1-.25-.29-.23-.48.02-.19.15-.35.33-.42l4.56-1.66,1.22-4.69c.05-.18.2-.33.38-.36.18-.04.38.03.5.18l2.99,3.82,4.84-.29c.19-.01.37.09.46.25.09.16.09.37-.02.53l-2.71,4.02,1.78,4.51c.07.18.03.38-.1.52-.13.14-.33.2-.51.14l-4.66-1.34-3.74,3.08c-.09.08-.2.11-.32.11Zm-3.37-8.23l3.46,2.2c.14.09.23.24.23.4l.14,4.1,3.16-2.61c.13-.11.29-.14.46-.09l3.94,1.13-1.5-3.81c-.06-.15-.04-.33.05-.46l2.29-3.4-4.09.25c-.16.01-.32-.06-.42-.19l-2.52-3.23-1.03,3.97c-.04.16-.16.29-.31.34l-3.85,1.4Z"/><polygon class="cls-7" points="196.39 90.3 193.54 94.54 195.41 99.29 190.49 97.89 186.55 101.14 186.37 96.03 182.06 93.28 186.86 91.53 188.14 86.58 191.29 90.61 196.39 90.3"/><path class="cls-7" d="m186.55,101.64c-.07,0-.14-.01-.21-.04-.17-.08-.29-.25-.29-.44l-.17-4.85-4.09-2.61c-.16-.1-.25-.29-.23-.48.02-.19.15-.35.33-.41l4.56-1.66,1.22-4.69c.05-.18.2-.33.38-.36.19-.04.38.03.5.18l2.99,3.82,4.84-.29c.2,0,.37.09.46.25.09.17.09.37-.02.53l-2.71,4.02,1.78,4.51c.07.18.03.38-.1.52-.13.14-.33.2-.51.14l-4.66-1.34-3.74,3.08c-.09.08-.2.11-.32.11Zm-3.37-8.23l3.46,2.2c.14.09.23.24.23.4l.14,4.1,3.16-2.61c.13-.1.3-.14.46-.09l3.94,1.13-1.5-3.81c-.06-.15-.04-.33.05-.46l2.29-3.4-4.09.25c-.17.01-.32-.06-.42-.19l-2.52-3.23-1.03,3.97c-.04.16-.16.29-.31.34l-3.85,1.4Z"/><polygon class="cls-7" points="182.28 268.28 177.78 270.7 177.22 275.79 173.53 272.25 168.53 273.29 170.74 268.69 168.21 264.25 173.27 264.94 176.71 261.15 177.62 266.18 182.28 268.28"/><path class="cls-7" d="m177.22,276.29c-.13,0-.25-.05-.35-.14l-3.5-3.35-4.75.99c-.19.04-.38-.03-.5-.18-.12-.15-.14-.35-.06-.52l2.1-4.37-2.41-4.21c-.09-.17-.09-.37.02-.53.11-.16.29-.24.48-.22l4.8.65,3.26-3.59c.13-.14.32-.2.51-.14.18.05.32.2.35.39l.87,4.77,4.42,1.99c.17.08.29.25.29.44,0,.19-.1.37-.26.46l-4.27,2.3-.53,4.82c-.02.19-.15.35-.33.42-.06.02-.11.03-.17.03Zm-3.69-4.53c.13,0,.25.05.35.14l2.96,2.83.45-4.08c.02-.16.12-.31.26-.39l3.61-1.94-3.74-1.68c-.15-.07-.26-.21-.29-.37l-.73-4.03-2.76,3.03c-.11.12-.27.18-.44.16l-4.06-.55,2.03,3.56c.08.14.09.32.02.46l-1.78,3.69,4.01-.83s.07-.01.1-.01Z"/><polygon class="cls-3" points="139.79 156.09 135.29 158.51 134.73 163.59 131.04 160.06 126.03 161.1 128.25 156.49 125.72 152.05 130.78 152.74 134.22 148.96 135.13 153.99 139.79 156.09"/><path class="cls-7" d="m134.73,164.09c-.13,0-.25-.05-.35-.14l-3.5-3.35-4.75.99c-.19.04-.38-.03-.5-.18-.12-.15-.14-.35-.06-.52l2.1-4.37-2.41-4.21c-.09-.16-.09-.37.02-.53.11-.16.3-.24.48-.22l4.81.65,3.26-3.59c.13-.14.32-.2.51-.14.18.05.32.2.35.39l.86,4.77,4.42,1.99c.17.08.29.25.29.44,0,.19-.1.37-.26.46l-4.27,2.3-.53,4.82c-.02.19-.15.35-.33.41-.06.02-.11.03-.17.03Zm-3.69-4.53c.13,0,.25.05.35.14l2.96,2.83.45-4.07c.02-.16.12-.31.26-.39l3.61-1.94-3.74-1.68c-.15-.07-.26-.2-.29-.37l-.73-4.03-2.76,3.03c-.11.12-.27.18-.44.16l-4.06-.55,2.03,3.56c.08.14.09.32.02.46l-1.78,3.69,4.01-.83s.07-.01.1-.01Z"/><circle class="cls-1" cx="164.24" cy="146.74" r="14.28" transform="translate(-28.46 40.09) rotate(-12.82)"/><path class="cls-7" d="m163.99,162.41c-3.22,0-6.31-.96-8.96-2.76-.23-.16-.29-.47-.13-.69.16-.23.47-.29.69-.13,2.48,1.69,5.38,2.59,8.4,2.59,8.22,0,14.9-6.68,14.9-14.9s-6.68-14.9-14.9-14.9-14.9,6.68-14.9,14.9c0,3.66,1.34,7.18,3.77,9.91.18.21.16.52-.04.71-.21.18-.52.16-.71-.04-2.59-2.91-4.02-6.67-4.02-10.57,0-8.77,7.13-15.9,15.9-15.9s15.9,7.13,15.9,15.9-7.13,15.9-15.9,15.9Z"/><path class="cls-7" d="m163.99,156.06c-3.85,0-7.3-2.29-8.8-5.83-.11-.25.01-.55.27-.66.25-.11.55.01.66.27,1.34,3.17,4.43,5.22,7.88,5.22s6.22-1.83,7.67-4.77c.12-.25.42-.35.67-.23.25.12.35.42.23.67-1.62,3.29-4.9,5.33-8.57,5.33Z"/><path class="cls-7" d="m154.84,145.6c-.15,0-.29-.06-.39-.18-.17-.21-.14-.53.07-.7.03-.03,3.54-2.82,7.23-.65.24.14.32.45.18.68-.14.24-.45.32-.68.18-3.1-1.82-6.06.54-6.09.56-.09.08-.2.11-.31.11Z"/><path class="cls-7" d="m166.74,145.6c-.15,0-.29-.06-.39-.18-.17-.21-.14-.53.07-.7.03-.03,3.54-2.82,7.23-.65.24.14.32.45.18.68-.14.24-.45.32-.68.18-3.1-1.82-6.06.54-6.09.56-.09.08-.2.11-.31.11Z"/><path class="cls-7" d="m154.23,141.76c-.07,0-.14-.01-.2-.04-.25-.11-.36-.41-.25-.66.02-.04,1.83-3.96,7.37-3.32.27.03.47.28.44.55-.03.27-.28.48-.55.44-4.8-.55-6.29,2.6-6.35,2.73-.08.18-.27.29-.46.29Z"/><path class="cls-7" d="m174.61,140.96c-.14,0-.28-.06-.37-.17-2.76-3.13-5.86-1.9-5.89-1.89-.26.11-.55-.02-.65-.27-.1-.26.02-.55.27-.65.04-.01,3.8-1.51,7.02,2.15.18.21.16.52-.04.71-.1.08-.21.12-.33.12Z"/><circle class="cls-1" cx="96.84" cy="203.33" r="14.28"/><path class="cls-7" d="m96.84,219.23c-8.77,0-15.9-7.13-15.9-15.9s7.13-15.9,15.9-15.9c3.57,0,6.94,1.16,9.75,3.34.22.17.26.48.09.7-.17.22-.48.26-.7.09-2.63-2.05-5.79-3.13-9.14-3.13-8.22,0-14.9,6.68-14.9,14.9s6.68,14.9,14.9,14.9,14.9-6.68,14.9-14.9c0-3.44-1.2-6.8-3.38-9.45-.18-.21-.14-.53.07-.7.21-.18.53-.14.7.07,2.33,2.83,3.61,6.41,3.61,10.09,0,8.77-7.13,15.9-15.9,15.9Z"/><path class="cls-7" d="m96.84,212.88c-3.85,0-7.3-2.29-8.8-5.83-.11-.25.01-.55.27-.66.25-.11.55.01.66.27,1.34,3.17,4.43,5.22,7.88,5.22s6.22-1.83,7.67-4.77c.12-.25.42-.35.67-.23.25.12.35.42.23.67-1.62,3.29-4.9,5.33-8.57,5.33Z"/><path class="cls-7" d="m91.39,204.35c-1.03,0-1.81-1.3-1.81-3.02s.78-3.02,1.81-3.02,1.81,1.3,1.81,3.02-.78,3.02-1.81,3.02Zm0-5.03c-.32,0-.81.8-.81,2.02s.49,2.02.81,2.02.81-.8.81-2.02-.49-2.02-.81-2.02Z"/><path class="cls-7" d="m101.89,204.35c-1.03,0-1.81-1.3-1.81-3.02s.78-3.02,1.81-3.02,1.81,1.3,1.81,3.02-.78,3.02-1.81,3.02Zm0-5.03c-.32,0-.81.8-.81,2.02s.49,2.02.81,2.02.81-.8.81-2.02-.49-2.02-.81-2.02Z"/><path class="cls-7" d="m335.15,158.28c-6.45-1.79-12.42-4.96-18.01-8.59-5.6-3.63-10.79-7.88-15.83-12.19-10.17-8.56-20.3-17.16-30.8-25.27-10.47-8.13-21.31-15.81-32.76-22.38-5.73-3.26-11.64-6.2-17.76-8.55-6.11-2.34-12.45-4.09-18.89-4.74-6.43-.65-12.95-.16-19.03,1.78-3.04.96-5.96,2.28-8.7,3.9-2.75,1.6-5.36,3.56-8.06,5.53-2.7,1.95-5.5,3.94-8.63,5.55-1.56.79-3.19,1.56-4.92,2.01-.86.24-1.7.56-2.58.72l-2.67.44c-3.62.35-7.3-.14-10.67-1.25-3.38-1.1-6.47-2.71-9.4-4.41-5.8-3.47-11.17-7.19-17.18-9.27-6.25-2.18-12.49-4.15-18.93-4.98-3.22-.41-6.49-.53-9.77-.49-3.29.02-6.55.28-9.84.65-3.29.34-6.56.8-9.8,1.42-1.62.32-3.23.67-4.81,1.13-1.58.45-3.17.94-4.59,1.73h0c-.1.06-.22.02-.27-.07-.05-.09-.02-.21.07-.27,2.87-1.82,6.14-2.76,9.36-3.65,3.24-.85,6.51-1.54,9.81-2.1,3.29-.55,6.65-.96,10.01-1.15,3.36-.2,6.75-.24,10.14.03,6.82.5,13.39,2.44,19.75,4.4,6.67,2.11,12.42,5.97,18.08,9.16,2.83,1.61,5.69,3.06,8.64,3.99,2.95.94,5.98,1.3,8.99,1,.75-.13,1.49-.26,2.25-.37.75-.12,1.48-.41,2.22-.6,1.49-.36,2.9-1.02,4.31-1.7,2.81-1.4,5.47-3.23,8.17-5.14,2.71-1.89,5.46-3.89,8.48-5.58,3.01-1.7,6.22-3.07,9.53-4.05,6.64-1.99,13.66-2.36,20.43-1.54,6.79.79,13.34,2.72,19.6,5.22,6.26,2.51,12.24,5.6,18.01,9,11.51,6.84,22.31,14.73,32.7,23.06,10.37,8.36,20.35,17.17,30.34,25.93,4.97,4.42,10,8.72,15.5,12.43,5.47,3.71,11.32,6.97,17.67,8.87.11.03.17.14.14.25-.03.1-.14.17-.25.14Z"/><path class="cls-7" d="m299.36,253.54c-10.68,2.51-20.85,7.08-29.71,13.45-4.44,3.17-8.52,6.84-12.75,10.37-4.21,3.54-8.64,6.98-13.65,9.55-2.52,1.25-5.16,2.27-7.89,3.02-2.74.67-5.56,1.13-8.34,1.27-5.59.39-11.19.02-16.68-.67-11-1.39-21.72-4.02-32.52-4.33-5.4-.17-10.71.31-15.99,1.45-5.27,1.08-10.42,2.73-15.41,4.75-5,2.01-9.82,4.47-14.49,7.18-4.68,2.71-9.18,5.71-13.54,8.97-4.41,3.21-8.76,6.61-13.36,9.75-4.62,3.11-9.43,6.05-14.73,8.09-5.27,2.05-10.82,3.17-16.35,3.68-5.55.45-11.07.42-16.57.12-.11,0-.2-.1-.19-.21,0-.1.09-.18.19-.19,5.49-.31,10.98-.62,16.35-1.53,5.37-.83,10.64-2.21,15.5-4.44,4.85-2.24,9.41-5.17,13.76-8.4,4.38-3.21,8.61-6.68,13-10.07,4.41-3.36,9.04-6.52,13.85-9.36,4.84-2.79,9.9-5.24,15.12-7.27,5.24-1.99,10.65-3.58,16.17-4.58,5.49-1.06,11.22-1.45,16.81-1.14,11.23.55,21.97,3.41,32.74,4.95,5.39.78,10.81,1.23,16.2.95,2.71-.08,5.34-.47,7.95-1.06,2.59-.66,5.11-1.58,7.53-2.73,4.85-2.34,9.25-5.58,13.53-9,4.29-3.41,8.49-7,13.08-10.12,9.15-6.25,19.53-10.6,30.31-12.86.11-.02.21.05.24.15.02.11-.04.21-.15.24Z"/><path class="cls-7" d="m169.32,115.4c6.72-1.4,13.6-1.98,20.5-1.62,3.44.23,6.88.72,10.26,1.6,3.35.96,6.62,2.37,9.58,4.33,2.86,1.98,5.52,4.22,8.06,6.55,2.55,2.33,4.96,4.75,7.46,7.03,2.49,2.28,5.09,4.37,7.9,6.08,2.81,1.72,5.83,3.06,8.97,4.05.79.23,1.6.42,2.39.63l1.2.31,1.22.22,2.44.45,2.51.34c3.35.44,6.71.74,10.1.98,6.75.55,13.66.78,20.56,2.21,3.44.74,6.84,1.73,10.11,3.03,3.27,1.31,6.38,2.97,9.35,4.78,5.82,3.6,11.56,7.32,17.24,11.16.09.06.12.19.05.28-.06.08-.16.11-.25.07-6.21-2.9-12.36-5.92-18.43-9.06-3.02-1.46-6.03-2.9-9.19-3.92-3.14-1.05-6.35-1.86-9.63-2.41-3.27-.58-6.61-.9-9.98-1.22l-10.2-.97c-3.42-.38-6.85-.83-10.26-1.42l-2.56-.43-2.58-.56-1.29-.28-1.27-.37c-.85-.26-1.7-.49-2.54-.77-3.35-1.16-6.57-2.71-9.53-4.64-2.97-1.93-5.65-4.23-8.13-6.64-2.49-2.41-4.82-4.9-7.25-7.25-2.43-2.36-4.94-4.6-7.65-6.59-2.68-1.92-5.68-3.37-8.87-4.42-3.21-.97-6.53-1.58-9.9-1.94-6.74-.62-13.61-.31-20.32.81h-.01c-.11.02-.21-.05-.23-.16-.02-.11.05-.21.16-.23Z"/><path class="cls-7" d="m164.73,222.07c1.88,2.04,4.09,3.79,6.37,5.37,1.13.81,2.34,1.51,3.53,2.23,1.24.63,2.43,1.34,3.72,1.88,5.05,2.3,10.45,3.76,15.94,4.29,5.48.57,11.03.15,16.51-.64,5.48-.81,10.81-2.22,16.06-4.07,5.25-1.81,10.56-3.94,16.31-5.12,2.87-.51,5.81-.89,8.74-.81.73.02,1.47-.01,2.19.05l2.18.19c1.48.12,2.83.33,4.24.51l8.33,1.24c2.76.43,5.51.82,8.21,1.02,2.7.18,5.37.03,8.07-.54,2.7-.52,5.4-1.32,8.13-2.05.11-.03.22.03.25.14.03.09-.02.19-.1.23-2.51,1.3-5.08,2.48-7.8,3.44-1.36.47-2.77.85-4.21,1.13-1.44.26-2.92.42-4.37.45-5.83.14-11.39-.63-16.98-1.09-1.39-.13-2.81-.31-4.14-.37l-2.02-.15c-.67-.06-1.34-.02-2.02-.03-2.69-.08-5.36.19-8.02.55-2.66.42-5.32,1.05-7.98,1.81l-8.04,2.46c-5.41,1.69-11.03,2.97-16.7,3.6-5.65.61-11.41.84-17.09.05-5.67-.81-11.18-2.57-16.24-5.16-1.29-.6-2.48-1.39-3.71-2.09-1.18-.79-2.37-1.56-3.49-2.43-2.24-1.74-4.37-3.61-6.18-5.81-.07-.09-.06-.21.03-.28.08-.07.2-.06.27.02h0Z"/><path class="cls-7" d="m48.37,199.84c2.55-.34,5.08-.88,7.58-1.53,2.49-.65,4.97-1.37,7.4-2.24,4.86-1.7,9.58-3.79,14.07-6.26,4.5-2.45,8.82-5.23,12.81-8.42,4.15-3.23,8.67-6.11,13.48-8.35,4.83-2.21,9.9-3.87,15.07-5.09,5.18-1.24,10.51-1.68,15.8-1.68,1.32.05,2.65,0,3.97.13l3.95.3c2.62.37,5.24.67,7.81,1.27,5.15,1.1,10.2,2.68,14.92,4.93.1.05.14.17.1.27-.04.09-.14.13-.23.11-5.07-1.15-10.14-2-15.22-2.52-5.08-.52-10.18-.73-15.24-.48-10.09.41-20.24,1.85-29.64,5.7-4.67,1.97-9.03,4.51-13.19,7.49-4.24,3.12-8.78,5.8-13.47,8.12-4.71,2.29-9.61,4.18-14.61,5.65-5.01,1.47-10.12,2.58-15.32,3-.11,0-.21-.07-.22-.18,0-.11.07-.2.17-.21h.01Z"/><path class="cls-7" d="m374.62,159.31s6.34-6.18,9.19-.95-3.17,9.03-2.69,10.14c.48,1.11,1.43,2.38,0,3.96-1.43,1.58-9.03-5.23-9.51-6.02s3.01-7.13,3.01-7.13Z"/><path class="cls-7" d="m380.48,173.2c-.06,0-.13,0-.2,0-2.61-.25-8.59-5.63-9.11-6.49-.41-.69.6-3.26,3-7.63.02-.04.05-.08.09-.12.15-.15,3.76-3.63,6.95-3.15,1.27.19,2.29.97,3.02,2.32,2.14,3.92-.32,7.07-1.79,8.95-.38.49-.85,1.09-.87,1.29.05.09.12.23.19.38.49,1.03,1.16,2.43-.29,4.05-.17.19-.48.4-1,.4Zm-5.47-13.58c-1.5,2.74-3.05,6.03-2.95,6.63.38.59,6.19,5.76,8.33,5.94.12.01.28,0,.35-.07,1.01-1.12.6-1.97.13-2.95-.08-.16-.16-.32-.22-.48-.26-.61.24-1.26,1.01-2.24,1.4-1.8,3.53-4.52,1.7-7.86-.58-1.07-1.33-1.66-2.3-1.81-2.53-.38-5.62,2.42-6.05,2.83Z"/><path class="cls-1" d="m396.21,256.68l8.72,20.69s16.13,5.73,22.28,6.37c6.15.64,16.82.76,16.82.76,0,0,10.61-2.33,12.1-2.33s7.43,3.4,9.76,4.46c2.33,1.06,3.61,1.7,2.12,2.33-1.49.64-3.61.64-5.31.21-1.7-.42-4.24-.42-4.24-.42,0,0,2.97,1.49,1.49,1.91-1.49.42-3.82-.42-5.09-.42s-5.52.64-7.64.64-5.52-1.27-5.52-1.27c0,0-24.88,3.9-32.1,5.18-7.22,1.27-12.52-1.27-15.07-3.18s-6.6-12.63-6.6-12.63l8.49-23.77"/><path class="cls-7" d="m405.71,295.62c-5.9,0-9.87-2.42-11.48-3.63-2.63-1.97-6.6-12.41-6.77-12.85-.04-.11-.04-.23,0-.34l8.49-23.77c.09-.26.38-.4.64-.3.26.09.4.38.3.64l-.34.95s.09.1.12.17l8.63,20.49c1.9.67,16.31,5.68,21.96,6.27,5.83.6,15.87.75,16.72.76.93-.2,10.67-2.33,12.15-2.33,1.08,0,3.63,1.27,7.12,3.07,1.11.57,2.16,1.11,2.85,1.43,2.01.91,3.06,1.43,3.05,2.22,0,.63-.71.93-.94,1.03-1.47.63-3.68.72-5.62.24-.69-.17-1.55-.27-2.3-.33.37.33.6.69.57,1.04-.02.21-.15.59-.77.77-1.06.3-2.4.05-3.58-.17-.63-.12-1.23-.23-1.65-.23-.53,0-1.67.12-2.89.25-1.65.18-3.53.38-4.75.38-1.98,0-4.92-1.02-5.57-1.26-1.94.31-25.1,3.95-31.96,5.16-1.41.25-2.73.36-3.98.36Zm-17.25-16.66c1.17,3.07,4.41,10.77,6.37,12.23,1.44,1.08,6.75,4.49,14.68,3.09,7.14-1.26,31.86-5.14,32.11-5.18.08-.01.17,0,.25.03.03.01,3.34,1.24,5.34,1.24,1.17,0,3.02-.2,4.64-.38,1.29-.14,2.41-.26,3-.26.52,0,1.16.12,1.84.25,1.05.2,2.24.42,3.06.21-.26-.26-.89-.68-1.52-1-.21-.1-.32-.34-.26-.56.05-.23.25-.38.49-.38.11,0,2.63,0,4.37.44,1.75.44,3.71.36,4.99-.19.14-.06.23-.11.28-.14-.33-.33-1.62-.91-2.41-1.28-.71-.33-1.73-.85-2.9-1.45-2.29-1.18-5.74-2.96-6.66-2.96-1.17,0-9.05,1.68-11.99,2.32-.04,0-.08,0-.11.01-.11,0-10.76-.14-16.86-.77-6.14-.63-21.74-6.16-22.4-6.39-.13-.05-.24-.15-.29-.28l-8.39-19.92-7.61,21.31Z"/><path class="cls-3" d="m409.88,279.06c-2.91-.96-4.95-1.69-4.95-1.69l-8.72-20.69.21-1.49-8.49,23.77s4.05,10.72,6.6,12.63c2.04,1.53,5.85,3.46,11,3.52l4.35-16.05Z"/><path class="cls-7" d="m405.53,295.61h0c-5.92-.07-9.87-2.55-11.29-3.62-2.63-1.97-6.6-12.41-6.77-12.85-.04-.11-.04-.23,0-.34l8.49-23.77c.09-.24.34-.38.59-.32.25.06.41.3.37.56l-.19,1.35,8.58,20.36c.59.21,2.38.83,4.73,1.61.25.08.39.35.33.61l-4.35,16.05c-.06.22-.26.37-.48.37Zm-17.06-16.65c1.17,3.07,4.41,10.77,6.37,12.23,1.31.98,4.91,3.25,10.32,3.41l4.12-15.22c-2.67-.89-4.51-1.54-4.51-1.54-.13-.05-.24-.15-.29-.28l-8.39-19.92-7.61,21.31Z"/><path class="cls-7" d="m458.47,289.25s-.08,0-.12-.02l-7.43-1.91c-.27-.07-.43-.34-.36-.61.07-.27.34-.43.61-.36l7.43,1.91c.27.07.43.34.36.61-.06.23-.26.38-.48.38Z"/><path class="cls-1" d="m315.7,440.69s-8.82,23.6-9.77,26.46c-.95,2.86-2.86,6.44.24,7.87,3.1,1.43,7.15.48,8.82.48s4.77,1.91,7.15,3.34c2.38,1.43,10.49,1.67,11.44,1.67s2.62-2.15,1.91-3.34c-.72-1.19-5.72-3.58-8.11-5.24-2.38-1.67-7.15-9.77-6.91-11.68.24-1.91,6.67-15.02,6.67-15.02l-11.44-4.53Z"/><path class="cls-7" d="m333.58,481c-.09,0-9.02-.13-11.7-1.74l-.32-.19c-2.16-1.3-5.12-3.08-6.58-3.08-.37,0-.89.05-1.5.11-2.01.2-5.04.51-7.53-.64-3.08-1.42-1.89-4.65-.94-7.25.15-.42.31-.83.44-1.23.95-2.84,9.42-25.51,9.78-26.48.05-.13.14-.23.27-.28.12-.05.26-.06.39,0l11.44,4.53c.13.05.23.15.28.28.05.13.04.28-.02.4-2.57,5.24-6.46,13.52-6.63,14.86-.2,1.58,4.36,9.57,6.7,11.21.89.63,2.2,1.38,3.47,2.1,2.66,1.52,4.31,2.51,4.78,3.3.38.64.31,1.52-.2,2.41-.46.81-1.32,1.68-2.14,1.68Zm-18.59-6.01c1.74,0,4.58,1.71,7.09,3.22l.31.19c2.17,1.3,9.86,1.6,11.19,1.6.25,0,.86-.45,1.27-1.17.32-.57.4-1.09.21-1.41-.37-.62-2.62-1.91-4.42-2.94-1.28-.74-2.61-1.5-3.54-2.15-2.52-1.77-7.38-10.06-7.12-12.15.22-1.79,5.2-12.07,6.48-14.69l-10.47-4.14c-1.26,3.36-8.72,23.37-9.59,25.97-.14.41-.29.83-.45,1.26-1.1,3-1.67,5.03.42,6,2.24,1.03,5.11.74,7.01.55.63-.06,1.18-.12,1.6-.12Z"/><path class="cls-7" d="m335.49,477.16c-.72-1.19-5.72-3.58-8.11-5.24-1.62-1.13-4.33-5.23-5.83-8.34-.38.03-1.7.21-2.51,1.42-.95,1.43-1.43,2.62-1.43,2.62,0,0-6.06-1.67-10.55-3.64-.56,1.53-.97,2.67-1.13,3.17-.95,2.86-2.86,6.44.24,7.87,3.1,1.43,7.15.48,8.82.48s4.77,1.91,7.15,3.34c2.38,1.43,10.49,1.67,11.44,1.67s2.62-2.15,1.91-3.34Z"/><path class="cls-7" d="m333.58,481c-.09,0-9.02-.13-11.7-1.74l-.31-.19c-2.16-1.3-5.12-3.08-6.58-3.08-.37,0-.89.05-1.5.11-2.01.2-5.05.51-7.53-.64-3.08-1.42-1.89-4.65-.94-7.25.15-.42.31-.83.44-1.23.17-.5.58-1.65,1.14-3.18.05-.13.15-.23.27-.29.13-.05.27-.05.4,0,3.73,1.64,8.62,3.09,10.06,3.5.22-.48.65-1.34,1.3-2.3.93-1.4,2.45-1.61,2.89-1.65.2-.02.4.1.49.28,1.44,2.99,4.13,7.06,5.67,8.15.9.63,2.2,1.38,3.47,2.1,2.66,1.52,4.3,2.5,4.78,3.29h0c.38.64.31,1.52-.2,2.41-.46.81-1.32,1.68-2.14,1.68Zm-18.59-6.01c1.74,0,4.58,1.71,7.1,3.22l.31.19c2.17,1.3,9.86,1.6,11.19,1.6.25,0,.86-.45,1.27-1.17.32-.57.4-1.09.21-1.41h0c-.37-.62-2.62-1.91-4.42-2.94-1.29-.74-2.61-1.5-3.55-2.15-1.64-1.15-4.28-5.09-5.84-8.2-.48.09-1.28.37-1.8,1.16-.91,1.37-1.38,2.52-1.38,2.53-.09.24-.35.36-.6.3-.06-.02-5.71-1.58-10.13-3.46-.46,1.27-.8,2.22-.95,2.66-.14.41-.29.83-.45,1.26-1.1,3-1.67,5.03.42,6,2.24,1.03,5.11.74,7.01.55.63-.06,1.18-.12,1.6-.12Z"/><path class="cls-6" d="m344.07,346.52s1.43,31.47.48,34.81c-.95,3.34-10.25,11.68-12.4,18.59-2.15,6.91-18.83,44.82-18.83,44.82l18.36,8.58s24.79-39.57,28.85-51.49,15.02-37.43,15.02-37.43l-31.47-17.88Z"/><path class="cls-7" d="m331.67,453.82c-.07,0-.14-.02-.21-.05l-18.36-8.58c-.25-.12-.36-.41-.25-.65.17-.38,16.7-37.96,18.81-44.76,1.28-4.13,5.05-8.75,8.08-12.47,2.11-2.59,3.94-4.83,4.31-6.12.74-2.58,0-23.79-.5-34.65,0-.18.08-.35.24-.45.16-.09.35-.1.51,0l31.47,17.88c.22.13.31.4.21.63-.11.25-11,25.63-15,37.39-4.03,11.84-27.88,49.98-28.9,51.6-.09.15-.26.23-.42.23Zm-17.7-9.33l17.51,8.19c2.54-4.07,24.78-39.9,28.56-51.01,3.73-10.97,13.43-33.71,14.86-37.05l-30.29-17.21c.23,5.28,1.3,30.97.42,34.06-.42,1.49-2.22,3.69-4.49,6.47-2.98,3.65-6.68,8.18-7.91,12.13-2.03,6.54-16.68,39.94-18.66,44.42Z"/><path class="cls-1" d="m427.29,445.61l13.11,15.97s10.49.48,14.54-.72c4.05-1.19,8.58-5.96,9.06-3.58.48,2.38-1.43,8.34-4.53,11.68-3.1,3.34-16.21,9.54-19.55,10.73-3.34,1.19-5.24-2.38-5.96-4.05-.72-1.67-1.43-5.48-2.15-6.91-.72-1.43-17.4-17.64-17.4-17.64l12.87-5.48Z"/><path class="cls-7" d="m438.6,480.44c-2.03,0-3.8-1.58-5.1-4.6-.35-.82-.7-2.13-1.04-3.4-.36-1.37-.74-2.78-1.09-3.49-.49-.99-10.87-11.26-17.3-17.51-.12-.12-.17-.29-.14-.45.03-.16.14-.3.29-.37l12.87-5.48c.2-.09.44-.03.58.14l12.97,15.8c1.53.06,10.55.36,14.16-.71,1.62-.48,3.34-1.56,4.86-2.52,1.87-1.18,3.23-2.03,4.14-1.64.25.11.58.36.7.96.53,2.63-1.52,8.74-4.65,12.12-3.3,3.56-16.75,9.79-19.75,10.86-.51.18-1.01.27-1.49.27Zm-23.3-29.18c3.19,3.11,16.28,15.89,16.96,17.25.4.8.77,2.2,1.17,3.68.33,1.23.67,2.51.99,3.26.79,1.84,2.53,4.77,5.33,3.78,3.44-1.23,16.35-7.37,19.35-10.6,3.12-3.36,4.83-9.14,4.41-11.24,0-.05-.05-.21-.11-.24-.43-.19-1.97.79-3.21,1.57-1.57.99-3.35,2.11-5.11,2.63-4.08,1.2-14.27.76-14.71.74-.14,0-.27-.07-.36-.18l-12.87-15.68-11.84,5.04Z"/><path class="cls-7" d="m454.94,460.86c-1.65.48-4.36.69-7,.77l.56,5.43s-9.64,3.97-15.62,5.01c.36,1.35.72,2.74,1.08,3.58.72,1.67,2.62,5.24,5.96,4.05,3.34-1.19,16.45-7.39,19.55-10.73,3.1-3.34,5.01-9.3,4.53-11.68s-5.01,2.38-9.06,3.58Z"/><path class="cls-7" d="m438.6,480.44c-2.03,0-3.8-1.58-5.1-4.6-.35-.82-.7-2.13-1.04-3.4l-.07-.25c-.04-.14-.01-.28.06-.4.08-.12.2-.2.34-.22,5.23-.91,13.4-4.12,15.17-4.84l-.52-5.05c-.01-.14.03-.28.12-.38.09-.1.22-.17.36-.17,3.18-.09,5.5-.35,6.87-.75h0c1.62-.48,3.34-1.56,4.85-2.52,1.87-1.18,3.23-2.03,4.14-1.64.25.11.58.36.7.96.53,2.63-1.52,8.74-4.65,12.12-3.3,3.56-16.75,9.79-19.75,10.86-.51.18-1.01.27-1.49.27Zm-5.1-7.98c.31,1.14.62,2.29.92,2.99.79,1.84,2.53,4.77,5.33,3.78,3.44-1.23,16.35-7.37,19.35-10.6,3.12-3.36,4.83-9.14,4.41-11.24,0-.05-.05-.21-.11-.24-.43-.19-1.97.79-3.21,1.57-1.57.99-3.35,2.11-5.11,2.63h0c-1.38.41-3.59.67-6.59.77l.51,4.89c.02.22-.1.43-.31.51-.38.16-9.21,3.78-15.19,4.94Z"/><path class="cls-6" d="m352.92,286.6l-1.91,6.15s-17.76,18.82-18.61,31.55c-.85,12.73,4.39,22.36,9.7,25.96,5.31,3.61,38.84,42.23,40.75,45.42,1.91,3.18,6.32,24.67,11.84,33.79s19.1,31.49,19.1,31.49l18.52-12.75s-21.65-41.29-26.11-54.45c-4.46-13.16-7-22.92-9.55-28.01-2.55-5.09-8.7-24.41-8.7-24.41,0,0,4.67-15.92,5.31-28.44.64-12.52-.21-28.44-.21-28.44l-40.11,2.12Z"/><path class="cls-7" d="m413.78,461.48s-.07,0-.1-.01c-.13-.03-.25-.11-.32-.23,0,0-13.58-22.37-19.1-31.5-3.51-5.81-6.58-16.57-8.82-24.43-1.26-4.42-2.35-8.24-3.02-9.36-2-3.33-35.3-41.66-40.6-45.26-5.38-3.66-10.78-13.48-9.92-26.41.83-12.46,17.21-30.22,18.67-31.78l1.88-6.04c.06-.2.24-.34.45-.35l40.11-2.12c.27-.03.51.2.53.47,0,.16.84,16.09.21,28.49-.6,11.8-4.81,26.76-5.28,28.41.57,1.79,6.24,19.42,8.63,24.19,1.64,3.28,3.3,8.53,5.39,15.17,1.2,3.81,2.57,8.14,4.18,12.91,4.39,12.97,25.86,53.96,26.08,54.38.12.22.05.5-.16.64l-18.52,12.75c-.08.06-.18.09-.28.09Zm-60.49-174.4l-1.81,5.82c-.02.07-.06.14-.11.19-.18.19-17.65,18.83-18.48,31.24-.84,12.53,4.33,22.01,9.48,25.52,5.34,3.63,38.89,42.22,40.9,45.57.74,1.23,1.79,4.93,3.12,9.6,2.22,7.8,5.27,18.49,8.71,24.19,5.05,8.36,16.87,27.83,18.83,31.04l17.71-12.2c-2.23-4.26-21.75-41.77-25.94-54.13-1.62-4.78-2.98-9.11-4.19-12.92-2.08-6.6-3.73-11.82-5.33-15.03-2.53-5.07-8.48-23.69-8.73-24.48-.03-.09-.03-.2,0-.29.05-.16,4.66-16.01,5.29-28.32.57-11.12-.05-25.09-.19-27.89l-39.26,2.08Zm-2.28,5.67h0,0Z"/><path class="cls-7" d="m364.38,316.18s-.08,0-.13-.02c-.27-.07-.43-.34-.36-.61l5.94-22.5c.07-.27.34-.43.61-.36.27.07.43.34.36.61l-5.94,22.5c-.06.22-.26.37-.48.37Z"/><path class="cls-7" d="m370.32,317.45s-.02,0-.04,0c-.28-.02-.48-.26-.46-.53l.28-3.86c.02-.28.28-.49.53-.46.28.02.48.26.46.53l-.28,3.86c-.02.26-.24.46-.5.46Z"/><path class="cls-7" d="m370.82,310.47s-.02,0-.04,0c-.28-.02-.48-.26-.46-.53l1.2-16.79c.02-.28.29-.48.53-.46.28.02.48.26.46.53l-1.2,16.79c-.02.26-.24.46-.5.46Z"/><path class="cls-7" d="m388.57,314.69c-.25,0-.47-.19-.5-.45l-.39-3.98c-.03-.28.17-.52.45-.55.28-.01.52.17.55.45l.39,3.98c.03.28-.17.52-.45.55-.02,0-.03,0-.05,0Z"/><path class="cls-7" d="m387.98,308.66c-.25,0-.47-.19-.5-.45l-1.53-15.62c-.03-.27.17-.52.45-.55.28-.02.52.17.55.45l1.53,15.62c.03.27-.17.52-.45.55-.02,0-.03,0-.05,0Z"/><path class="cls-7" d="m387.93,341.86c-.2,0-.38-.12-.46-.31-.04-.11-4.48-11.02-9.46-16.62-.18-.21-.16-.52.04-.71.2-.18.52-.17.71.04,5.09,5.73,9.46,16.46,9.64,16.91.1.26-.02.55-.28.65-.06.02-.12.04-.19.04Z"/><path class="cls-1" d="m351.36,291.62l41.92-.86c-.12-3.79-.25-6.29-.25-6.29l-40.11,2.12-1.56,5.02Z"/><path class="cls-7" d="m351.36,292.12c-.16,0-.3-.07-.4-.2-.1-.13-.13-.3-.08-.45l1.56-5.02c.06-.2.24-.34.45-.35l40.11-2.12c.27-.03.51.2.53.47,0,0,.13,2.5.25,6.3,0,.13-.04.26-.14.36-.09.1-.22.15-.35.16l-41.92.86h0Zm1.93-5.04l-1.25,4.03,40.73-.83c-.08-2.53-.17-4.42-.21-5.27l-39.26,2.08Z"/><path class="cls-1" d="m335.73,240.12l-20.59,44.57s-3.4-.85-11.89,10.4c-8.49,11.25-16.1,17.51-17.16,18.14-1.06.64-12.73,4.24-14.86,6.37-2.12,2.12-4.67,8.7-6.79,11.25-2.12,2.55-4.24,4.88-1.91,4.46,2.33-.42,8.49-4.24,10.4-4.88s8.91-4.67,8.91-4.67c0,0-4.03,5.73-4.03,7.64s2.33,2.33,2.76,1.27c.42-1.06,1.7-3.61,2.76-5.31,1.06-1.7,3.4-4.67,4.46-7.22l1.06-2.55s29.68-18.78,32.44-21.54c2.76-2.76,5.31-7.85,6.15-8.7.85-.85,15.28-21.65,15.28-21.65l6.79,22.5s33.75.21,47.75-4.24c0,0,1.27-33.96-.85-42.45-2.12-8.49-6.63-16.93-9.58-19.29-2.95-2.36-16.53-5.54-32.23-1.3-15.71,4.24-18.89,17.19-18.89,17.19Z"/><path class="cls-7" d="m262.07,335.86c-.34,0-.74-.08-.94-.44-.46-.79.47-1.96,2.45-4.31l.48-.58c.96-1.15,2.06-3.25,3.12-5.28,1.24-2.37,2.52-4.82,3.7-6,1.56-1.56,7.68-3.76,11.73-5.22,1.52-.54,2.95-1.06,3.23-1.23.78-.47,8.39-6.59,17.02-18.01,7.09-9.4,10.76-10.54,11.97-10.61l20.43-44.23c.25-.91,3.92-13.37,19.23-17.5,16.48-4.45,29.87-.86,32.68,1.39,2.93,2.35,7.55,10.77,9.75,19.56,2.11,8.46.92,41.2.86,42.59,0,.21-.15.39-.35.46-13.92,4.43-47.57,4.27-47.91,4.27-.22,0-.41-.15-.48-.36l-6.49-21.51c-2.96,4.26-13.96,20.08-14.75,20.87-.26.26-.8,1.13-1.42,2.14-1.23,2-2.92,4.74-4.74,6.56-2.7,2.7-29.96,19.98-32.39,21.52l-1,2.4c-.78,1.87-2.2,3.92-3.34,5.58-.45.65-.85,1.23-1.15,1.71-1.07,1.71-2.32,4.23-2.72,5.23-.27.67-1.02,1.01-1.87.84-.92-.18-1.86-.96-1.86-2.3s1.71-4.26,2.94-6.16c-2.23,1.25-5.83,3.22-7.16,3.66-.73.24-2.22,1.03-3.8,1.87-2.44,1.29-5.21,2.76-6.67,3.03-.11.02-.32.06-.55.06Zm-.04-1c.08,0,.21,0,.41-.04,1.31-.24,4.12-1.73,6.38-2.93,1.68-.89,3.14-1.66,3.95-1.94,1.84-.61,8.75-4.59,8.82-4.63.2-.12.46-.08.62.1.16.17.17.43.04.62-1.58,2.25-3.94,6.07-3.94,7.35,0,.83.56,1.23,1.04,1.32.29.06.65,0,.75-.23.42-1.05,1.69-3.61,2.8-5.38.31-.49.72-1.09,1.18-1.75,1.12-1.61,2.5-3.62,3.24-5.39l1.06-2.55c.04-.09.11-.17.19-.23.3-.19,29.67-18.78,32.36-21.47,1.73-1.73,3.38-4.42,4.59-6.38.71-1.15,1.22-1.98,1.56-2.33.61-.61,9.44-13.24,15.22-21.58.11-.16.3-.24.49-.21.19.03.34.17.4.35l6.69,22.14c3.67.01,33.72-.09,46.89-4.12.13-3.64,1.12-34.09-.85-41.95-2.15-8.6-6.6-16.77-9.4-19.02-2.6-2.08-15.88-5.5-31.79-1.2-15.24,4.12-18.5,16.7-18.53,16.83,0,.03-.02.06-.03.09l-20.59,44.57c-.1.22-.34.33-.58.28-.01,0-3.36-.4-11.37,10.21-8.85,11.73-16.46,17.77-17.3,18.27-.35.21-1.41.59-3.4,1.31-3.72,1.34-9.96,3.58-11.36,4.98-1.07,1.07-2.32,3.45-3.52,5.76-1.14,2.17-2.21,4.22-3.24,5.46l-.49.58c-.91,1.08-2.13,2.54-2.31,3.11Zm73.69-94.73h0,0Z"/><path class="cls-3" d="m386.85,224.23c-2.95-2.36-16.53-5.54-32.23-1.3-15.71,4.24-18.89,17.19-18.89,17.19l-20.59,44.57s-1.57-.39-5.25,2.9l10.67,11.1c.33-.27.59-.49.73-.64,2.76-2.76,5.31-7.85,6.15-8.7s15.28-21.65,15.28-21.65l6.79,22.5s33.75.21,47.75-4.24c0,0,1.27-33.96-.85-42.45-2.12-8.49-6.63-16.93-9.58-19.29Z"/><path class="cls-7" d="m320.56,299.2c-.13,0-.26-.05-.36-.15l-10.67-11.1c-.09-.1-.14-.23-.14-.37,0-.14.07-.26.17-.35,2.83-2.53,4.52-2.99,5.27-3.04l20.45-44.27s3.41-13.19,19.21-17.46c16.48-4.45,29.87-.86,32.68,1.39h0c2.93,2.35,7.55,10.77,9.75,19.56,2.11,8.46.92,41.2.86,42.59,0,.21-.15.39-.35.46-13.92,4.43-47.57,4.27-47.91,4.27-.22,0-.41-.15-.48-.36l-6.49-21.51c-2.96,4.26-13.96,20.08-14.75,20.87-.26.26-.8,1.13-1.42,2.14-1.23,2-2.92,4.74-4.74,6.56-.15.15-.43.39-.77.67-.09.08-.2.11-.32.11Zm-9.95-11.57l9.99,10.39c.15-.12.26-.23.34-.31,1.73-1.73,3.38-4.42,4.59-6.38.71-1.15,1.22-1.98,1.56-2.33.61-.61,9.44-13.24,15.22-21.58.11-.16.3-.24.49-.21.19.03.34.17.4.35l6.69,22.14c3.67.01,33.72-.09,46.89-4.12.13-3.64,1.12-34.09-.85-41.95-2.15-8.59-6.6-16.77-9.4-19.02-2.6-2.08-15.88-5.5-31.79-1.2-15.22,4.11-18.5,16.7-18.54,16.83l-20.62,44.66c-.1.22-.34.33-.57.28h0s-1.36-.17-4.41,2.45Z"/><path class="cls-7" d="m342.73,268.21c-.14,0-.27-.05-.37-.16-.17-.18-.18-.46-.02-.65l7.59-9.58c.17-.22.49-.25.7-.08.22.17.25.49.08.7l-5.62,7.1,7.04-4.69c.23-.15.54-.09.69.14.15.23.09.54-.14.69l-9.68,6.45c-.08.06-.18.08-.28.08Z"/><path class="cls-7" d="m262.11,334.32c-.14,0-.29-.06-.39-.18-.17-.21-.14-.53.07-.7l10.4-8.49c.21-.17.53-.14.7.07.17.21.14.53-.07.7l-10.4,8.49c-.09.08-.21.11-.32.11Z"/><path class="cls-1" d="m371.45,162.96s6.81,4.28,8.24,6.5c1.43,2.22,4.44,6.5,7.29,7.92,2.85,1.43,6.5.63,6.65,2.69.16,2.06-1.27,5.23-1.27,5.23,0,0,1.58,5.07,1.9,8.4.32,3.33.95,7.29-.16,8.08-1.11.79-12.52,2.54-12.52,2.54,0,0-3.96,9.35-3.96,12.68s7.76,10.3,7.76,10.3c0,0-.63,5.86-5.07,8.56-4.44,2.69-14.26-2.06-16.16-3.8-1.9-1.74,2.85-4.28-1.27-17.11-4.12-12.83-9.66-14.89-8.4-25.98,1.27-11.09,16.95-25.98,16.95-25.98Z"/><path class="cls-7" d="m376.92,237.13c-5.04,0-11.6-3.36-13.1-4.73-.91-.83-.67-1.8-.33-3.14.57-2.29,1.52-6.13-1.07-14.19-1.56-4.86-3.31-8.12-4.85-11.01-2.54-4.75-4.37-8.18-3.57-15.19,1.27-11.14,16.46-25.68,17.11-26.29.17-.16.42-.18.61-.06.28.18,6.92,4.36,8.39,6.65,1.2,1.86,4.28,6.34,7.09,7.75,1.09.55,2.34.75,3.44.93,1.73.29,3.36.56,3.49,2.17.15,1.9-.93,4.58-1.23,5.3.29.95,1.58,5.29,1.87,8.32.05.5.1,1.02.16,1.54.41,3.83.58,6.21-.52,7-1.1.79-10.02,2.2-12.45,2.58-.63,1.52-3.81,9.34-3.81,12.22,0,2.55,5.48,8.03,7.6,9.93.12.11.18.27.16.43-.03.25-.71,6.14-5.31,8.93-1.01.62-2.28.87-3.66.87Zm-5.41-73.54c-2.11,2.07-15.38,15.43-16.52,25.41-.77,6.7,1.01,10.02,3.46,14.6,1.56,2.92,3.33,6.23,4.92,11.17,2.67,8.33,1.64,12.5,1.09,14.74-.33,1.31-.41,1.75.04,2.16,1.73,1.59,11.33,6.31,15.56,3.74,3.66-2.23,4.62-6.82,4.8-7.94-1.4-1.28-7.73-7.24-7.73-10.49s3.84-12.48,4-12.87c.07-.16.21-.27.38-.3,4.69-.72,11.6-1.95,12.3-2.45.7-.5.36-3.73.11-6.08-.06-.52-.11-1.04-.16-1.55-.31-3.24-1.87-8.25-1.88-8.3-.04-.12-.03-.24.02-.35.01-.03,1.37-3.08,1.22-4.99-.06-.75-.85-.96-2.65-1.26-1.17-.19-2.5-.41-3.73-1.03-2.92-1.46-5.94-5.7-7.49-8.1-1.17-1.83-6.38-5.25-7.75-6.13Z"/><polygon class="cls-7" points="381.59 204.31 376.59 203.48 378.97 209.59 381.59 204.31"/><path class="cls-7" d="m378.97,210.09s-.01,0-.02,0c-.2,0-.37-.13-.44-.32l-2.38-6.12c-.07-.17-.04-.36.08-.5.11-.14.29-.21.47-.18l5,.83c.16.03.29.12.36.27.07.14.07.31,0,.45l-2.62,5.28c-.08.17-.26.28-.45.28Zm-1.59-5.98l1.65,4.24,1.82-3.66-3.47-.58Z"/><path class="cls-7" d="m379.76,180.81c-.63,0-1.08-.08-1.12-.09-.27-.05-.45-.31-.4-.58.05-.27.32-.45.58-.4.15.03,3.64.65,4.17-2.14.05-.27.31-.45.58-.4.27.05.45.31.4.59-.19,1-.67,1.77-1.44,2.29-.89.6-1.98.74-2.78.74Z"/><path class="cls-7" d="m375.57,177.24c-.25,0-.46-.18-.5-.43-.24-1.81.23-5.38,3.75-5.95.28-.05.53.14.57.41.04.27-.14.53-.42.57-3.43.55-2.93,4.65-2.91,4.83.04.27-.16.52-.43.56-.02,0-.04,0-.07,0Z"/><path class="cls-7" d="m385.71,190.06c-2.63,0-4.33-1.28-4.43-1.36-.22-.17-.26-.48-.09-.7.17-.22.48-.26.7-.09.13.1,3.31,2.46,7.7.11.24-.13.55-.04.68.21.13.24.04.55-.21.68-1.61.86-3.09,1.15-4.35,1.15Z"/><path class="cls-7" d="m345.15,166.13s4.75-8.08,12.68-11.25c7.92-3.17,13.63-1.27,16.48,1.74,2.85,3.01,2.53,6.65-1.58,13.31-4.12,6.65-6.97,10.14-6.65,11.57s3.01,6.81,2.38,8.4c0,0-4.75-3.96-7.61-.48-2.85,3.49-.63,9.66,2.22,10.46,2.85.79,5.55-.16,5.55-.16,0,0-3.17,3.49-3.17,6.81s7.13,7.92,7.13,16.32-4.91,14.26-8.87,14.1-8.87-6.18-12.2-5.23c-3.33.95-1.43,7.29-5.07,9.03-3.64,1.74-4.44-1.58-6.97.48-2.54,2.06-.63,4.59-3.17,5.7s-8.56-1.9-9.35-1.27c-.79.63.32.95,1.43,4.12s-.63,5.7-4.91,5.55c-4.28-.16-9.82-3.17-8.87-9.35.95-6.18,5.7-4.44,5.86-6.65.16-2.22-5.7,1.11-6.5-11.25s4.75-9.66,8.4-9.66,6.65-5.23,3.01-9.19-7.92-3.64-4.28-11.88c3.64-8.24,11.41-5.39,13.63-7.45,2.22-2.06-2.85-7.76,2.06-15.37s8.4-8.4,8.4-8.4Z"/><path class="cls-7" d="m323.81,255.83c-.13,0-.25,0-.38,0-2.38-.09-5.66-1.07-7.72-3.57-1.44-1.74-2-3.93-1.63-6.35.64-4.13,2.95-5.01,4.48-5.59.97-.37,1.34-.55,1.38-1.03.02-.23-.01-.29-.86-.57-1.77-.58-5.07-1.65-5.64-10.61-.3-4.74.3-7.77,1.84-9.26,1.5-1.45,3.57-1.23,5.39-1.05.59.06,1.15.12,1.66.12,1.52,0,3.03-1.09,3.74-2.72.83-1.88.41-3.99-1.1-5.63-.87-.94-1.79-1.65-2.61-2.28-2.61-2-4.67-3.57-1.76-10.15,2.58-5.83,7.12-6.36,10.45-6.74,1.45-.17,2.7-.31,3.3-.87.63-.59.48-1.67.14-3.53-.53-2.93-1.26-6.95,1.84-11.75,4.34-6.71,7.62-8.24,8.49-8.55.75-1.22,5.37-8.31,12.82-11.29,10.27-4.11,15.63.39,17.03,1.86,3.09,3.26,2.66,7.16-1.52,13.92-1.28,2.07-2.41,3.79-3.41,5.32-1.95,2.96-3.35,5.1-3.18,5.88.09.4.41,1.2.78,2.14,1.18,2.99,2.05,5.37,1.58,6.55-.06.15-.19.26-.34.3-.16.04-.32,0-.44-.1-.02-.02-2.43-2-4.68-1.78-.88.09-1.61.49-2.22,1.23-1.25,1.53-1.56,3.84-.82,6.17.57,1.81,1.67,3.18,2.79,3.49,2.66.74,5.22-.14,5.25-.15.22-.08.46,0,.58.2.13.19.11.44-.05.61-.03.03-3.04,3.39-3.04,6.48,0,1.12,1.05,2.59,2.28,4.28,2.05,2.84,4.85,6.73,4.85,12.04,0,5-1.74,9.65-4.64,12.45-1.51,1.45-3.21,2.21-4.75,2.15-2-.08-4.13-1.49-6.2-2.85-2.11-1.4-4.3-2.84-5.85-2.4-1.35.39-1.68,1.95-2.05,3.77-.41,1.99-.87,4.24-2.94,5.23-2.02.97-3.29.5-4.31.13-.92-.34-1.52-.56-2.56.28-1.1.89-1.24,1.84-1.4,2.85-.16,1.06-.35,2.25-1.89,2.93-1.67.73-4.47-.08-6.72-.73-1.01-.29-2.28-.66-2.57-.57-.02.03-.04.06-.04.06.02.05.18.33.33.58.33.58.84,1.45,1.35,2.9.58,1.66.44,3.21-.4,4.35-.9,1.21-2.53,1.87-4.62,1.87Zm-5.08-37.17c-1.04,0-2.01.19-2.75.9-1.32,1.27-1.82,4.05-1.54,8.48.53,8.28,3.3,9.19,4.95,9.73.76.25,1.62.53,1.54,1.59-.08,1.16-1.07,1.53-2.02,1.89-1.47.56-3.3,1.25-3.85,4.8-.33,2.16.14,4.03,1.41,5.56,1.53,1.85,4.27,3.11,6.99,3.21,1.93.08,3.41-.45,4.16-1.46.64-.86.73-2.08.26-3.42-.48-1.36-.95-2.18-1.27-2.72-.4-.68-.77-1.33,0-1.95.5-.4,1.41-.16,3.42.42,1.98.58,4.7,1.37,6.04.78,1.04-.45,1.14-1.13,1.3-2.16.16-1.04.36-2.34,1.76-3.47,1.48-1.2,2.52-.82,3.54-.45.93.34,1.89.69,3.54-.09,1.62-.77,2.01-2.68,2.39-4.53.4-1.96.82-3.98,2.75-4.53,2-.57,4.26.94,6.67,2.52,1.95,1.29,3.96,2.62,5.68,2.69,1.28.05,2.7-.62,4.02-1.88,2.71-2.61,4.34-6.99,4.34-11.72,0-4.99-2.59-8.58-4.67-11.46-1.38-1.91-2.46-3.42-2.46-4.86,0-2.31,1.4-4.64,2.37-5.99-1.1.18-2.71.28-4.38-.18-1.46-.41-2.79-2-3.47-4.15-.84-2.65-.47-5.31,1-7.1.78-.95,1.75-1.49,2.9-1.6,1.86-.18,3.69.82,4.68,1.47-.13-1.3-1.04-3.6-1.63-5.08-.4-1.01-.72-1.81-.82-2.29-.26-1.19.93-3.01,3.32-6.64,1-1.52,2.13-3.24,3.4-5.29,3.94-6.37,4.39-9.81,1.65-12.7-1.29-1.36-6.25-5.49-15.93-1.62-7.67,3.07-12.38,10.96-12.43,11.04-.07.12-.18.2-.32.23-.07.02-3.42.95-8.09,8.18-2.88,4.47-2.2,8.26-1.7,11.03.35,1.93.62,3.45-.44,4.44-.84.78-2.24.94-3.86,1.13-3.25.38-7.3.85-9.65,6.15-2.59,5.85-1.07,7.02,1.45,8.95.85.65,1.81,1.39,2.74,2.39,1.79,1.95,2.27,4.46,1.28,6.71-.88,2.01-2.71,3.32-4.66,3.32-.56,0-1.15-.06-1.76-.12-.62-.06-1.24-.13-1.84-.13Zm26.42-52.54h0,0Z"/><path class="cls-7" d="m479.35,480.45H14.14c-.28,0-.5-.22-.5-.5s.22-.5.5-.5h465.21c.28,0,.5.22.5.5s-.22.5-.5.5Z"/><rect class="cls-4" width="500" height="500"/></g></svg>