<?xml version="1.0" encoding="utf-8"?>
<!-- Generator: Adobe Illustrator 27.5.0, SVG Export Plug-In . SVG Version: 6.00 Build 0)  -->
<svg version="1.1" id="facebook"
	 xmlns="http://www.w3.org/2000/svg" xmlns:xlink="http://www.w3.org/1999/xlink" x="0px" y="0px" viewBox="0 0 20 20"
	 style="enable-background:new 0 0 20 20;" xml:space="preserve">
<style type="text/css">
	.st0{fill:#FFFFFF;}
</style>
<path class="st0" d="M12.6,5.5c0-0.1,0-0.1,0-0.2c0,0,0.1,0,0.2,0c0.5,0,1.1,0,1.7,0c0.9,0,1.4-0.5,1.4-1.4l0-0.8c0-0.5,0-1.1,0-1.6
	c0-0.7-0.3-1.2-0.9-1.5l-0.1,0l-3.6,0c0,0-0.1,0-0.1,0C9.9,0.2,8.9,0.8,8.2,1.6C7.4,2.5,7,3.6,6.9,5c0,0.5,0,1,0,1.6l-0.4,0
	c-0.4,0-0.7,0-1.1,0c-0.7,0-1.2,0.6-1.2,1.2c0,1,0,2.1,0,3.1c0,0.6,0.4,1.1,1,1.2c0.2,0,0.3,0,0.4,0h1.3l0,6.7C7,19.5,7.5,20,8.2,20
	h3.1c0.5,0,0.9-0.2,1.1-0.6c0.1-0.2,0.2-0.5,0.2-0.8v-6.5h1.7c0.9,0,1.4-0.6,1.4-1.4V7.9c0-0.9-0.5-1.4-1.4-1.4h-1.7V6.4
	C12.6,6.1,12.6,5.8,12.6,5.5z M7.7,10.3H6V8.4h1.6c0.7,0,1.1-0.4,1.1-1.1l0-0.6c0-0.5,0-1.1,0-1.6c0-1,0.4-1.8,1.1-2.4
	c0.6-0.5,1.2-0.7,2-0.8c0.6,0,1.2,0,1.8,0l0.3,0v1.7c-0.1,0-0.3,0-0.4,0c-0.4,0-0.8,0-1.2,0.1c-1,0.1-1.5,0.7-1.6,1.7
	c0,0.7,0,1.5,0,2.2c0,0.6,0.4,1,1.1,1h2.1v1.9h-2c-0.7,0-1.1,0.4-1.1,1.1v6.8h-2v-6.9C8.7,10.6,8.3,10.3,7.7,10.3z"/>
</svg>
