<?xml version="1.0" encoding="utf-8"?>
<!-- Generator: Adobe Illustrator 27.5.0, SVG Export Plug-In . SVG Version: 6.00 Build 0)  -->
<svg version="1.1" id="instagram"
	 xmlns="http://www.w3.org/2000/svg" xmlns:xlink="http://www.w3.org/1999/xlink" x="0px" y="0px" viewBox="0 0 20 20"
	 style="enable-background:new 0 0 20 20;" xml:space="preserve">
<style type="text/css">
	.st0{fill:#FFFFFF;}
</style>
<g>
	<path class="st0" d="M20,5.7c0-2.4-1.2-4.2-3.4-5.2c-0.5-0.2-1-0.4-1.7-0.4L5.3,0L4.9,0.1c-0.2,0-0.4,0.1-0.6,0.1
		C2,0.8,0.6,2.3,0.1,4.6C0.1,4.7,0,4.9,0,5l0,0.2v9.5L0,15c0,0.2,0.1,0.5,0.1,0.7c0.6,2.2,2.1,3.6,4.4,4.2C4.9,19.9,5.3,20,5.7,20
		h2.8c0.9,0,1.9,0,2.8,0c0.9,0,1.9,0,2.8,0c2.2,0,3.9-1,5-2.9c0.5-0.8,0.7-1.8,0.7-2.8l0-2C20,10.1,20,7.9,20,5.7z M15.1,17.8
		c-0.2,0.1-0.5,0.1-0.8,0.1H5.7c-1.8,0-3.1-1.1-3.5-2.8c-0.1-0.2-0.1-0.5-0.1-0.8v-2l0,0l0-3.7c0-0.9,0-1.9,0-2.8
		c0-1.5,0.7-2.6,2.1-3.3c0.4-0.2,0.9-0.3,1.5-0.3h8.7c1.7,0,3.1,1.1,3.5,2.8c0.1,0.2,0.1,0.5,0.1,0.8v8.5
		C17.9,16,16.8,17.4,15.1,17.8z"/>
	<path class="st0" d="M10,5.3L10,5.3c-1.3,0-2.4,0.5-3.3,1.4C5.8,7.6,5.3,8.7,5.3,10c0,1.2,0.5,2.4,1.4,3.3c0.9,0.9,2.1,1.4,3.3,1.4
		c0,0,0,0,0,0c1.2,0,2.4-0.5,3.3-1.4c0.9-0.9,1.4-2.1,1.4-3.3c0-1.3-0.5-2.4-1.4-3.3C12.4,5.8,11.2,5.3,10,5.3z M10,13
		c-1.6,0-3-1.3-3-3c0-0.8,0.3-1.5,0.9-2.1C8.5,7.3,9.2,7,10,7c0,0,0,0,0,0c0.8,0,1.5,0.3,2.1,0.9C12.6,8.5,13,9.2,13,10
		C13,11.6,11.6,13,10,13z"/>
	<path class="st0" d="M15.1,3.3c-0.8,0-1.6,0.7-1.6,1.5c0,0.4,0.1,0.8,0.4,1.1c0.3,0.3,0.7,0.5,1.1,0.5h0.1c0.4,0,0.8-0.1,1.1-0.4
		c0.3-0.3,0.5-0.7,0.5-1.1c0-0.4-0.2-0.8-0.5-1.1C15.9,3.5,15.5,3.3,15.1,3.3z M15.1,5.6c-0.2,0-0.3-0.1-0.5-0.2
		c-0.1-0.1-0.2-0.3-0.2-0.5c0-0.4,0.3-0.7,0.7-0.7s0.7,0.3,0.7,0.7C15.8,5.3,15.5,5.6,15.1,5.6z"/>
</g>
</svg>
