<?xml version="1.0" encoding="utf-8"?>
<!-- Generator: Adobe Illustrator 27.5.0, SVG Export Plug-In . SVG Version: 6.00 Build 0)  -->
<svg version="1.1" id="twitter"
	 xmlns="http://www.w3.org/2000/svg" xmlns:xlink="http://www.w3.org/1999/xlink" x="0px" y="0px" viewBox="0 0 20 20"
	 style="enable-background:new 0 0 20 20;" xml:space="preserve">
<style type="text/css">
	.st0{fill:#FFFFFF;}
</style>
<path class="st0" d="M19.9,4.6c-0.1-0.2-0.2-0.4-0.4-0.6c-0.2-0.1-0.4-0.1-0.8-0.2l0.5-1c0.1-0.2,0.2-0.5,0.1-0.7
	c0-0.3-0.2-0.6-0.5-0.7c-0.3-0.2-0.7-0.2-1,0l-0.2,0.1c-0.7,0.3-1.3,0.6-2,1c-0.9-0.4-1.8-0.5-2.8-0.3c-2.3,0.5-3.6,2.6-3.8,4.4
	c0,0.1,0,0.3,0,0.4C7.8,6.7,6.6,6.2,5.6,5.4C4.7,4.7,4.1,3.9,3.5,2.9C3.2,2.4,2.8,2.3,2.5,2.3c-0.4,0-0.7,0.2-0.9,0.6
	C0.9,3.9,0.7,5.1,1,6.3c0,0,0,0.1,0,0.1c0,0,0,0,0,0c-0.2,0-0.5,0.1-0.7,0.3C0.1,6.9,0,7.3,0,7.6C0.3,9,0.9,10.2,2,11
	c0,0,0,0,0.1,0.1c-0.3,0.2-0.4,0.4-0.4,0.6c-0.1,0.4,0,0.7,0.3,1.1c0.7,0.7,1.6,1.3,2.7,1.7c0.1,0,0.1,0,0.2,0.1
	c-0.5,0.2-1.1,0.4-1.7,0.4c-0.4,0-0.8,0-1.2,0H1.5c-0.5,0-0.9,0.2-1,0.7c-0.1,0.2-0.2,0.7,0.3,1.2c0.4,0.4,0.8,0.6,1.5,0.9
	c1.9,0.8,3.9,1.1,6,1.1c0.7,0,1.4,0,2.1-0.1c2.6-0.3,4.6-1.3,6.1-3.1c0.8-0.9,1.4-1.9,1.9-2.9c0.8-1.8,1.1-3.8,0.7-5.9
	c0.2-0.3,0.3-0.5,0.5-0.8l0.4-0.7L20,5.1C20,5,20,5,20,4.9C20,4.8,20,4.7,19.9,4.6z M14,15c-0.9,0.7-1.9,1.2-3.2,1.4
	c-1.7,0.3-3.5,0.3-5.3-0.1c0.9-0.4,1.8-1,2.5-1.8c0.4-0.4,0.3-0.8,0.3-1.1c-0.1-0.3-0.3-0.6-0.9-0.7c-0.8-0.1-1.5-0.3-2.1-0.6
	c-0.1-0.1-0.2-0.1-0.3-0.2C4.9,12,5,12,5.1,11.9c0.4-0.2,0.5-0.6,0.5-0.8c0-0.2,0-0.8-0.7-1.1L4.5,9.9C4.3,9.8,4,9.7,3.8,9.6
	C3.3,9.4,2.9,9.1,2.6,8.7c0.1,0,0.2,0,0.3,0c0.4,0,0.7-0.3,0.9-0.6C4,7.6,3.9,7.2,3.6,6.9C3.3,6.6,3.1,6.2,3,5.8
	c1.4,1.6,3.1,2.6,5.2,3.1C8.7,8.9,9.1,9,9.6,9l0.5,0.1c0.3,0,0.6-0.1,0.8-0.3c0.2-0.2,0.3-0.5,0.3-0.8c0-0.1,0-0.2,0-0.3l0-0.1
	c0-0.3-0.1-0.5,0-0.7c0.1-1.1,0.6-1.9,1.4-2.5c0.8-0.5,1.6-0.5,2.4,0c0.4,0.2,0.7,0.2,1.1,0.1c-0.2,0.4-0.1,0.8,0.1,1.1
	C16.3,5.8,16.7,6,17,6c-0.1,0.2-0.1,0.5-0.1,0.7c0.2,1,0.2,1.8,0.1,2.6c-0.1,1-0.4,1.9-0.8,2.8C15.7,13.2,14.9,14.2,14,15z"/>
</svg>
