<?xml version="1.0" encoding="utf-8"?>
<!-- Generator: Adobe Illustrator 27.5.0, SVG Export Plug-In . SVG Version: 6.00 Build 0)  -->
<svg version="1.1" id="youtube"
	 xmlns="http://www.w3.org/2000/svg" xmlns:xlink="http://www.w3.org/1999/xlink" x="0px" y="0px" viewBox="0 0 20 20"
	 style="enable-background:new 0 0 20 20;" xml:space="preserve">
<style type="text/css">
	.st0{fill:#FFFFFF;}
</style>
<g>
	<path class="st0" d="M20,6.6l0-0.2c0-0.1-0.1-0.3-0.1-0.4c-0.5-1.9-2.1-3.1-4.1-3.1h-4.6c-0.8,0-1.6,0-2.4,0c-1.6,0-3.2,0-4.8,0
		C1.8,2.9,0,4.8,0,7c0,2,0,4,0,5.9c0,0.4,0.1,0.8,0.1,1.1c0.5,1.8,2.1,3.1,4.1,3.1l7.5,0c0.7,0,1.4,0,2.1,0c0.7,0,1.4,0,2.1,0
		c1.9,0,3.5-1.3,3.9-3.2l0.1-0.5L20,6.6z M18.1,7.1v5.8c0,1.4-1,2.4-2.3,2.4H4.2c-1.1,0-2-0.7-2.3-1.7c-0.1-0.2-0.1-0.4-0.1-0.6V7
		c0-1.3,1-2.3,2.2-2.3c0.7,0,1.3,0,2,0s1.3,0,2,0l7.7,0c1.1,0,2.1,0.7,2.3,1.8C18.1,6.8,18.1,6.9,18.1,7.1z"/>
	<path class="st0" d="M13.5,9.2c-1.1-0.7-2.3-1.4-3.4-2.2L8.7,6.1C8.3,5.9,8,5.9,7.7,6.1C7.4,6.3,7.2,6.6,7.2,7l0,6
		c0,0.2,0,0.7,0.5,0.9C7.8,13.9,8,14,8.1,14c0.2,0,0.4-0.1,0.6-0.2c0.3-0.2,0.6-0.3,0.8-0.5c0.3-0.2,0.6-0.3,0.8-0.5l3.1-1.9
		c0.1-0.1,0.5-0.3,0.5-0.9C14,9.6,13.8,9.4,13.5,9.2z M11.3,10l-2.3,1.4V8.6c0.4,0.3,0.8,0.5,1.3,0.8L11.3,10z"/>
</g>
</svg>
