<?xml version="1.0" encoding="UTF-8"?><svg id="Capa_2" xmlns="http://www.w3.org/2000/svg" viewBox="0 0 90 90"><defs><style>.cls-1{fill:none;}.cls-2{fill:#1e1e1e;}</style></defs><g id="Capa_1-2"><rect class="cls-1" width="90" height="90"/><path class="cls-2" d="m66.09,13.09c.42-.55.02-1.34-.67-1.34h-10.11c-.44,0-.85.2-1.11.55l-25.86,34.2c-.15.2-.46.09-.46-.16v-16.71c0-.46-.38-.84-.84-.84h-2.88l-7.37,20.09v22.28c0,.46.38.84.84.84h9.42c.46,0,.84-.38.84-.84v-20.1c0-.2.16-.36.36-.36h4.76c.44,0,.85.21,1.11.55l15.27,20.2c.26.35.67.55,1.11.55h10.57c.5,0,.79-.58.49-.98l-15.18-20.07c-.26-.35-.67-.55-1.11-.55h-6.72c-.26,0-.41-.31-.25-.52l27.81-36.78Z"/><rect class="cls-2" x="67.9" y="62.8" width="9.19" height="9.19"/></g></svg>