<?xml version="1.0" encoding="UTF-8"?><svg id="Capa_2" xmlns="http://www.w3.org/2000/svg" xmlns:xlink="http://www.w3.org/1999/xlink" viewBox="0 0 340 92.64"><defs><style>.cls-1{fill:url(#Degradado_sin_nombre_327-7);}.cls-2{fill:url(#Degradado_sin_nombre_327-6);}.cls-3{fill:#d33226;}.cls-4{fill:url(#Degradado_sin_nombre_327-2);}.cls-5{fill:url(#Degradado_sin_nombre_327-5);}.cls-6{fill:url(#Degradado_sin_nombre_327-4);}.cls-7{fill:url(#Degradado_sin_nombre_327);}.cls-8{fill:url(#Degradado_sin_nombre_327-8);}.cls-9{fill:none;}.cls-10{fill:url(#Degradado_sin_nombre_327-3);}</style><linearGradient id="Degradado_sin_nombre_327" x1="8.24" y1="196.25" x2="330.84" y2="-465.18" gradientUnits="userSpaceOnUse"><stop offset=".17" stop-color="#0eae93"/><stop offset=".41" stop-color="#1752bb"/><stop offset=".53" stop-color="#1b2dcc"/></linearGradient><linearGradient id="Degradado_sin_nombre_327-2" x1="60.99" y1="176.04" x2="258.99" y2="-229.93" xlink:href="#Degradado_sin_nombre_327"/><linearGradient id="Degradado_sin_nombre_327-3" x1="80.54" y1="229.49" x2="294.44" y2="-209.07" xlink:href="#Degradado_sin_nombre_327"/><linearGradient id="Degradado_sin_nombre_327-4" x1="108.96" y1="256.13" x2="306.97" y2="-149.84" xlink:href="#Degradado_sin_nombre_327"/><linearGradient id="Degradado_sin_nombre_327-5" x1="107.11" y1="354.87" x2="348.99" y2="-141.05" xlink:href="#Degradado_sin_nombre_327"/><linearGradient id="Degradado_sin_nombre_327-6" x1="61.29" y1="517.13" x2="391.44" y2="-159.79" xlink:href="#Degradado_sin_nombre_327"/><linearGradient id="Degradado_sin_nombre_327-7" x1="-223.83" y1="1159.63" x2="502.54" y2="-329.64" xlink:href="#Degradado_sin_nombre_327"/><linearGradient id="Degradado_sin_nombre_327-8" x1="10.84" y1="121.24" x2="298.28" y2="-468.11" xlink:href="#Degradado_sin_nombre_327"/></defs><g id="Capa_1-2"><rect class="cls-9" y="1.21" width="340" height="91.43"/><path class="cls-7" d="m80.25,43.51v-8.17l-9.47,5.35v32.78h9.55v-13.31c0-10.7,3.43-16.9,9.63-16.9,1.39,0,3.35.24,5.55,1.39l1.88-8.98c-1.47-.82-3.92-1.31-6.21-1.31-4.74,0-8.9,2.78-10.94,9.15Z"/><path class="cls-4" d="m120.17,34.37c-10.94,0-20.01,7.84-20.01,20s8.66,20.09,20.01,20.09c6.94,0,13.72-3.1,17.23-8.66l-6.37-4.82c-2.2,3.1-6.21,4.9-10.29,4.9-5.72,0-9.8-2.86-10.86-8.16h29.56c.08-1.39.16-2.61.16-3.67,0-11.92-8.57-19.68-19.43-19.68Zm-10.29,16.74c1.14-5.8,5.31-8.33,10.37-8.33s9.39,3.1,9.96,8.33h-20.33Z"/><path class="cls-10" d="m166.79,43.19c3.43,0,6.7,1.47,8.66,3.84l6.7-5.31c-3.51-4.41-8.9-7.35-15.51-7.35-11.02,0-20.74,7.92-20.74,20s9.72,20.09,20.74,20.09c6.61,0,12-2.94,15.51-7.35l-6.7-5.31c-1.96,2.37-5.23,3.84-8.66,3.84-6.61,0-11.35-4.9-11.35-11.27s4.74-11.19,11.35-11.19Z"/><path class="cls-6" d="m207.2,34.37c-10.94,0-20,7.84-20,20s8.66,20.09,20,20.09c6.94,0,13.72-3.1,17.23-8.66l-6.37-4.82c-2.21,3.1-6.21,4.9-10.29,4.9-5.72,0-9.8-2.86-10.86-8.16h29.56c.08-1.39.16-2.61.16-3.67,0-11.92-8.57-19.68-19.43-19.68Zm-10.29,16.74c1.14-5.8,5.31-8.33,10.37-8.33s9.39,3.1,9.96,8.33h-20.33Z"/><path class="cls-5" d="m256.68,34.37c-3.92,0-9.88,2.21-11.84,7.02v-6.04h-9.47v38.13h9.47v-20.25c0-7.35,5.39-9.88,9.72-9.88s7.92,3.27,7.92,9.39v20.74h9.47v-21.39c0-11.1-5.47-17.72-15.27-17.72Z"/><polygon class="cls-2" points="285.66 35.35 278.8 35.35 278.8 43.97 285.66 43.97 285.66 73.48 295.13 73.48 295.13 43.97 303.22 43.97 303.22 35.35 295.13 35.35 285.66 35.35"/><rect class="cls-1" x="310.48" y="35.35" width="9.47" height="38.13"/><path class="cls-8" d="m64.59,18.13h-9.26c-.4,0-.78.19-1.02.51l-23.68,31.32c-.14.18-.42.08-.42-.14v-15.31c0-.43-.35-.77-.77-.77h-2.64l-6.75,18.4v20.4c0,.43.34.77.77.77h8.62c.43,0,.77-.35.77-.77v-18.41c0-.18.15-.33.33-.33h4.36c.4,0,.77.19,1.02.51l13.99,18.5c.24.32.62.51,1.02.51h9.68c.46,0,.72-.53.45-.9l-13.9-18.38c-.24-.32-.62-.51-1.02-.51h-6.16c-.24,0-.38-.28-.23-.47l25.47-33.69c.38-.51.02-1.23-.61-1.23Z"/><rect class="cls-3" x="310.48" y="16.41" width="9.47" height="9.47"/><rect class="cls-9" x=".96" y="-.96" width="18.13" height="20.05" transform="translate(19.09 -.96) rotate(90)"/><rect class="cls-9" x="320.91" y="72.34" width="18.13" height="20.05" transform="translate(412.34 -247.61) rotate(90)"/></g></svg>