<?xml version="1.0" encoding="UTF-8"?><svg id="Capa_2" xmlns="http://www.w3.org/2000/svg" xmlns:xlink="http://www.w3.org/1999/xlink" viewBox="0 0 64 64"><defs><style>.cls-1{fill:url(#Degradado_sin_nombre_341);}.cls-2{fill:#d33226;}.cls-3{fill:none;}</style><linearGradient id="Degradado_sin_nombre_341" x1="10.09" y1="33.06" x2="49.22" y2="28.94" gradientUnits="userSpaceOnUse"><stop offset="0" stop-color="#0eae93"/><stop offset=".03" stop-color="#0ea596"/><stop offset=".21" stop-color="#137aa9"/><stop offset=".38" stop-color="#1658b8"/><stop offset=".54" stop-color="#1940c3"/><stop offset=".69" stop-color="#1a32c9"/><stop offset=".81" stop-color="#1b2dcc"/></linearGradient></defs><g id="Capa_1-2"><rect class="cls-3" width="64" height="64"/><path class="cls-1" d="m47,9.31c.3-.39.02-.96-.48-.96h-7.19c-.31,0-.6.15-.79.39l-18.39,24.32c-.11.14-.33.07-.33-.11v-11.89c0-.33-.27-.6-.6-.6h-2.05l-5.24,14.29v15.84c0,.33.27.6.6.6h6.7c.33,0,.6-.27.6-.6v-14.3c0-.14.11-.25.25-.25h3.38c.31,0,.6.15.79.39l10.86,14.36c.19.25.48.39.79.39h7.52c.36,0,.56-.41.35-.7l-10.79-14.27c-.19-.25-.48-.39-.79-.39h-4.78c-.19,0-.29-.22-.18-.37l19.78-26.16Z"/><rect class="cls-2" x="48.28" y="44.66" width="6.53" height="6.53"/></g></svg>